<?xml version="1.0" encoding="UTF-8" standalone="no"?>
<svg
   width="250mm"
   height="180mm"
   viewBox="0 0 250 180"
   version="1.1"
   id="svg28"
   sodipodi:docname="fgreil_MagLev.svg"
   inkscape:version="1.4 (86a8ad7, 2024-10-11)"
   xmlns:inkscape="http://www.inkscape.org/namespaces/inkscape"
   xmlns:sodipodi="http://sodipodi.sourceforge.net/DTD/sodipodi-0.dtd"
   xmlns="http://www.w3.org/2000/svg"
   xmlns:svg="http://www.w3.org/2000/svg"
   xmlns:rdf="http://www.w3.org/1999/02/22-rdf-syntax-ns#"
   xmlns:cc="http://creativecommons.org/ns#"
   xmlns:dc="http://purl.org/dc/elements/1.1/">
  <title
     id="title9">Magnetschwebebahn DG 2026</title>
  <defs
     id="defs28" />
  <sodipodi:namedview
     id="namedview28"
     pagecolor="#ffffff"
     bordercolor="#000000"
     borderopacity="0.25"
     inkscape:showpageshadow="2"
     inkscape:pageopacity="0.0"
     inkscape:pagecheckerboard="0"
     inkscape:deskcolor="#d1d1d1"
     inkscape:document-units="mm"
     inkscape:zoom="1.7874548"
     inkscape:cx="356.09292"
     inkscape:cy="182.66196"
     inkscape:window-width="1920"
     inkscape:window-height="1121"
     inkscape:window-x="1911"
     inkscape:window-y="-9"
     inkscape:window-maximized="1"
     inkscape:current-layer="layer3"
     showgrid="true"
     showguides="false">
    <inkscape:grid
       id="grid1"
       units="mm"
       originx="944.88189"
       originy="680.31496"
       spacingx="5.0000001"
       spacingy="2"
       empcolor="#0099e5"
       empopacity="0.30196078"
       color="#0099e5"
       opacity="0.14901961"
       empspacing="4"
       enabled="true"
       visible="true"
       dotted="false" />
  </sodipodi:namedview>
  <metadata
     id="metadata28">
    <rdf:RDF>
      <cc:Work
         rdf:about="">
        <cc:license
           rdf:resource="http://creativecommons.org/licenses/by-nc-nd/4.0/" />
        <dc:title>Magnetschwebebahn DG 2026</dc:title>
      </cc:Work>
      <cc:License
         rdf:about="http://creativecommons.org/licenses/by-nc-nd/4.0/">
        <cc:permits
           rdf:resource="http://creativecommons.org/ns#Reproduction" />
        <cc:permits
           rdf:resource="http://creativecommons.org/ns#Distribution" />
        <cc:requires
           rdf:resource="http://creativecommons.org/ns#Notice" />
        <cc:requires
           rdf:resource="http://creativecommons.org/ns#Attribution" />
        <cc:prohibits
           rdf:resource="http://creativecommons.org/ns#CommercialUse" />
      </cc:License>
    </rdf:RDF>
  </metadata>
  <g
     inkscape:groupmode="layer"
     id="layer1"
     inkscape:label="Outer Shapes"
     style="display:inline">
    <rect
       x="3.9900832"
       y="-179.99658"
       width="70.016052"
       height="175.34277"
       fill="none"
       stroke="#000000"
       stroke-width="0.468265"
       id="rect1"
       transform="rotate(90)"
       inkscape:label="track" />
    <path
       id="rect16"
       style="fill:none;stroke:#000000;stroke-width:0.5"
       d="m 134.98204,80.344898 c 9.95214,-0.03367 20.01013,1.106829 20.01765,5.865043 0.008,4.758214 -11.11741,6.025992 -19.87295,6.092713 -8.75554,0.06672 -10.4246,22.260166 -10.39289,31.771606 0.0317,9.51144 0.8892,32.2092 10.49336,32.19503 9.93657,-0.0185 19.80069,1.00125 19.83689,6.18647 0.0344,4.92959 -10.3514,6.17226 -20.55152,6.01178 L 14.822067,168.34487 c -4.9834209,0.26515 -5.0821029,-11.60754 0.148021,-11.63844 l 19.983025,-0.12035 c 4.662705,0.0578 5.032761,-2.0307 5.106772,-4.0452 L 39.911862,96.26924 c -0.02467,-2.039171 -0.04934,-3.930319 -4.810728,-3.823165 L 15.266133,92.279364 C 10.036009,92.297809 9.8386457,80.32644 15.118111,80.344885 Z"
       sodipodi:nodetypes="czzzcscccccccccc"
       inkscape:label="float" />
  </g>
  <g
     inkscape:groupmode="layer"
     id="layer2"
     inkscape:label="Cutout Float">
    <rect
       x="-35.425613"
       y="-88.251488"
       width="15"
       height="4"
       fill="none"
       stroke="#000000"
       stroke-width="0.5"
       id="rect17"
       transform="scale(-1)"
       inkscape:label="magnet_u_1" />
    <rect
       x="-60.145351"
       y="-88.008415"
       width="15"
       height="4"
       fill="none"
       stroke="#000000"
       stroke-width="0.5"
       id="rect18"
       transform="scale(-1)"
       inkscape:label="magnet_u_2" />
    <rect
       x="-84.865089"
       y="-88.061539"
       width="15"
       height="4"
       fill="none"
       stroke="#000000"
       stroke-width="0.5"
       id="rect19"
       transform="scale(-1)"
       inkscape:label="magnet_u_3" />
    <rect
       x="-35.425613"
       y="-164.6422"
       width="15"
       height="4"
       fill="none"
       stroke="#000000"
       stroke-width="0.5"
       id="rect9"
       transform="scale(-1)"
       inkscape:label="magnet_d_1" />
    <rect
       x="-60.145355"
       y="-164.49419"
       width="15"
       height="4"
       fill="none"
       stroke="#000000"
       stroke-width="0.5"
       id="rect20"
       transform="scale(-1)"
       inkscape:label="magnet_d_2" />
    <rect
       x="-85.387291"
       y="-164.33217"
       width="15"
       height="4"
       fill="none"
       stroke="#000000"
       stroke-width="0.5"
       id="rect20-8"
       transform="scale(-1)"
       inkscape:label="magnet_d_3" />
    <rect
       x="-110.33601"
       y="-164.19911"
       width="15"
       height="4"
       fill="none"
       stroke="#000000"
       stroke-width="0.5"
       id="rect20-8-8"
       transform="scale(-1)"
       inkscape:label="magnet_d_4" />
    <rect
       x="-110.12562"
       y="-87.964539"
       width="15"
       height="4"
       fill="none"
       stroke="#000000"
       stroke-width="0.5"
       id="rect20-8-2"
       transform="scale(-1)"
       inkscape:label="magnet_u_4" />
    <rect
       x="-135.16405"
       y="-87.981583"
       width="15"
       height="4"
       fill="none"
       stroke="#000000"
       stroke-width="0.5"
       id="rect20-8-2-4"
       transform="scale(-1)"
       inkscape:label="magnet_u_5" />
    <rect
       x="-134.73131"
       y="-164.48019"
       width="15"
       height="4"
       fill="none"
       stroke="#000000"
       stroke-width="0.5"
       id="rect20-8-2-5"
       transform="scale(-1)"
       inkscape:label="magnet_d_5" />
    <ellipse
       style="display:inline;fill:none;fill-rule:evenodd;stroke-width:0.5;stroke:#000000;stroke-opacity:1;stroke-dasharray:none"
       id="path9"
       cx="77.637733"
       cy="124.2648"
       rx="27.458153"
       ry="20.057034" />
  </g>
  <g
     inkscape:groupmode="layer"
     id="layer3"
     inkscape:label="Cutouts Track">
    <rect
       x="10.519789"
       y="-25.043079"
       width="4"
       height="15"
       fill="none"
       stroke="#000000"
       stroke-width="0.5"
       id="rect3"
       transform="rotate(90)"
       inkscape:label="magnet_1_u" />
    <rect
       x="10.223744"
       y="-49.862175"
       width="4"
       height="15"
       fill="none"
       stroke="#000000"
       stroke-width="0.5"
       id="rect4"
       transform="rotate(90)"
       inkscape:label="magnet_2_u" />
    <rect
       x="9.9277"
       y="-74.977165"
       width="4"
       height="15"
       fill="none"
       stroke="#000000"
       stroke-width="0.5"
       id="rect5"
       transform="rotate(90)"
       inkscape:label="magnet_3_u" />
    <rect
       x="10.223744"
       y="-99.796631"
       width="4"
       height="15"
       fill="none"
       stroke="#000000"
       stroke-width="0.5"
       id="rect6"
       transform="rotate(90)"
       inkscape:label="magnet_4_u" />
    <rect
       x="10.223744"
       y="-125.35602"
       width="4"
       height="15"
       fill="none"
       stroke="#000000"
       stroke-width="0.5"
       id="rect7"
       transform="rotate(90)"
       inkscape:label="magnet_5_u" />
    <rect
       x="10.223744"
       y="-149.7312"
       width="4"
       height="15"
       fill="none"
       stroke="#000000"
       stroke-width="0.5"
       id="rect8"
       transform="rotate(90)"
       inkscape:label="magnet_6_u" />
    <rect
       x="10.071045"
       y="-174.8015"
       width="4"
       height="15"
       fill="none"
       stroke="#000000"
       stroke-width="0.5"
       id="rect8-9"
       transform="rotate(90)"
       inkscape:label="magnet_7_u" />
    <rect
       x="64.840866"
       y="-175.23421"
       width="4"
       height="15"
       fill="none"
       stroke="#000000"
       stroke-width="0.5"
       id="rect8-4"
       transform="rotate(90)"
       inkscape:label="magnet_7_d" />
    <rect
       x="64.595497"
       y="-24.59901"
       width="4"
       height="15"
       fill="none"
       stroke="#000000"
       stroke-width="0.5"
       id="rect10"
       transform="rotate(90)"
       inkscape:label="magnet_1_d" />
    <rect
       x="64.743515"
       y="-50.454262"
       width="4"
       height="15"
       fill="none"
       stroke="#000000"
       stroke-width="0.5"
       id="rect11"
       transform="rotate(90)"
       inkscape:label="magnet_2_d" />
    <rect
       x="64.595497"
       y="-75.273216"
       width="4"
       height="15"
       fill="none"
       stroke="#000000"
       stroke-width="0.5"
       id="rect12"
       transform="rotate(90)"
       inkscape:label="magnet_3_d" />
    <rect
       x="64.447472"
       y="-99.944649"
       width="4"
       height="15"
       fill="none"
       stroke="#000000"
       stroke-width="0.5"
       id="rect13"
       transform="rotate(90)"
       inkscape:label="magnet_4_d" />
    <rect
       x="64.595497"
       y="-124.91195"
       width="4"
       height="15"
       fill="none"
       stroke="#000000"
       stroke-width="0.5"
       id="rect14"
       transform="rotate(90)"
       inkscape:label="magnet_5_d" />
    <path
       style="display:inline;fill:none;stroke:#808080;stroke-width:0.5;stroke-linecap:round;stroke-linejoin:round;stroke-dasharray:none"
       d="m 10.213545,31.972837 v 13.914104 l 4.688101,-5.846884 0.07401,-2.312306 z"
       id="path2"
       sodipodi:nodetypes="ccccc"
       inkscape:label="arrow" />
    <rect
       x="64.891541"
       y="-150.17526"
       width="4"
       height="15"
       fill="none"
       stroke="#000000"
       stroke-width="0.5"
       id="rect15"
       transform="rotate(90)"
       inkscape:label="magnet_6_d" />
  </g>
  <g
     inkscape:groupmode="layer"
     id="layer4"
     inkscape:label="Engraving">
    <path
       style="display:inline;fill:#000000;stroke-width:0.476736"
       d="M 67.900543,52.133419 C 66.727073,51.996553 64.9334,51.413951 63.891345,50.831203 63.095064,50.385898 61.663016,49.114147 61.285708,48.51722 l -0.180188,-0.285059 -1.009091,0.409347 c -0.966985,0.392255 -1.080153,0.409248 -2.711932,0.407107 -1.957156,-0.0024 -2.578445,-0.178953 -3.958541,-1.123801 l -0.781916,-0.535318 -0.482929,0.417458 c -0.681581,0.589181 -1.552969,0.8516 -2.582415,0.777697 -0.977271,-0.07016 -1.668426,-0.38569 -2.428386,-1.108617 -0.378655,-0.360209 -0.559156,-0.460727 -0.623445,-0.347194 -0.438034,0.773611 -0.718241,1.112647 -1.152062,1.393943 -0.53518,0.347018 -1.627514,0.555738 -2.181182,0.416773 -0.277305,-0.0696 -0.451652,0.05338 -1.295192,0.913665 -2.078685,2.119933 -4.661631,2.680732 -7.044759,1.529528 -1.787592,-0.863522 -2.822613,-2.744522 -2.822613,-5.129696 v -1.04566 h -0.378404 c -0.344385,0 -0.378411,0.03762 -0.378411,0.418313 0,1.610328 -0.6789,3.149867 -1.894813,4.296909 -0.995073,0.938694 -1.854384,1.392862 -3.144267,1.661808 -2.746402,0.572642 -5.182063,-0.917879 -6.077328,-3.719068 -0.36834,-1.152495 -0.362633,-3.463142 0.01311,-5.306829 0.533897,-2.619712 2.052641,-7.636225 2.912143,-9.618999 1.269966,-2.929671 3.380497,-4.903177 5.775293,-5.400333 0.961404,-0.199587 2.468535,-0.09446 3.179092,0.221764 0.670962,0.298598 1.409085,0.916739 1.895421,1.587321 l 0.344904,0.47556 0.278349,-0.450378 c 0.456731,-0.739012 1.329808,-1.699746 2.007212,-2.208736 1.480327,-1.112303 3.5908,-1.322324 5.221365,-0.519599 1.337717,0.658559 2.493504,2.107395 2.868197,3.595437 l 0.145766,0.578878 0.399254,-0.304526 c 0.219591,-0.167491 0.788803,-0.486818 1.26492,-0.709621 2.211469,-1.034871 4.385343,-0.400373 5.520684,1.611345 l 0.381574,0.67611 0.97807,-0.979333 c 1.036354,-1.037687 1.894028,-1.61771 3.18625,-2.154766 0.672893,-0.279658 0.981662,-0.329308 2.053346,-0.330179 1.596146,-0.0013 2.414842,0.293997 3.426961,1.23608 l 0.702136,0.65354 0.899667,-0.928261 c 2.080862,-2.147017 4.610764,-3.258145 7.711017,-3.386661 2.498982,-0.103591 3.927394,0.323957 5.266909,1.576466 0.935109,0.874378 1.376314,1.574586 1.778641,2.822716 0.06108,0.189638 0.191549,0.154125 1.068901,-0.291035 2.472173,-1.254371 5.02648,-1.085071 6.909547,0.457961 l 0.518364,0.424761 0.360275,-0.376044 c 0.558223,-0.582657 1.750254,-1.125389 2.471763,-1.125389 0.797075,0 1.655234,0.408421 2.148881,1.022692 l 0.38773,0.482479 0.624737,-0.561685 c 0.36062,-0.324238 0.845829,-0.62122 1.147748,-0.702518 0.926126,-0.24938 2.011244,0.03861 2.751088,0.730154 l 0.333407,0.311642 0.486476,-0.321168 c 0.69587,-0.459408 1.677101,-0.646456 2.41976,-0.461267 1.265728,0.315618 2.113198,1.072957 2.745038,2.453044 0.29312,0.640267 0.35914,0.704508 0.72326,0.70373 0.39744,-9e-4 0.40097,-0.0064 0.43468,-0.695585 0.15979,-3.265737 3.62515,-4.786793 6.28317,-2.757875 l 0.56193,0.428929 0.60001,-0.304043 c 1.28226,-0.649776 2.37451,-0.894273 3.99932,-0.895242 1.36061,-8.31e-4 1.59517,0.03342 2.32006,0.338611 l 0.80643,0.339512 0.39187,-0.295576 c 1.79125,-1.351072 6.55532,-1.629166 9.32231,-0.544176 1.5547,0.609622 3.17189,2.031842 3.89195,3.422739 0.35837,0.692197 0.64445,2.176573 0.55037,2.855608 -0.16219,1.17042 -0.49964,1.973451 -1.22768,2.921369 l -0.35462,0.461707 0.43166,0.266777 c 0.61693,0.381282 1.86693,1.755451 2.32482,2.555748 1.48951,2.603412 0.80041,5.551743 -1.78543,7.639033 -2.49268,2.012101 -6.2892,3.096113 -10.12626,2.89133 -2.56968,-0.137142 -4.50934,-0.78947 -5.72301,-1.924713 l -0.64141,-0.599969 -1.47803,0.02688 c -2.09643,0.03814 -3.72393,-0.405706 -4.7963,-1.308056 l -0.38774,-0.326263 -0.56518,0.431408 c -1.59247,1.215569 -3.91305,0.733622 -4.94931,-1.027901 -0.0125,-0.02125 -0.31853,0.274067 -0.68002,0.6563 -0.81296,0.859589 -1.55012,1.147294 -2.702603,1.054784 -0.884776,-0.07102 -1.606611,-0.397552 -2.277438,-1.030218 l -0.465214,-0.438759 -0.398924,0.454348 c -1.212276,1.380714 -3.624455,1.382026 -4.835588,0.0024 l -0.39662,-0.451707 -0.564249,0.540648 c -1.063745,1.019243 -2.779979,1.262912 -4.190672,0.59498 -0.416255,-0.197082 -0.831644,-0.448756 -0.923108,-0.559277 -0.1498,-0.181027 -0.224807,-0.16375 -0.756805,0.174302 -1.833883,1.165302 -4.360104,1.069239 -6.252748,-0.237756 l -0.490613,-0.338803 -0.193028,0.313159 c -0.106162,0.17224 -0.663266,0.779173 -1.238027,1.348743 -0.881217,0.873264 -1.248558,1.134147 -2.343641,1.664402 -1.432377,0.69358 -2.277969,0.942131 -3.881131,1.140835 -1.190234,0.147522 -1.554446,0.146868 -2.857723,-0.0051 z m 2.227048,-2.892441 c 2.156682,-0.260127 3.939444,-1.00846 5.269168,-2.21179 1.434091,-1.29778 1.973237,-2.562853 1.897904,-4.453284 -0.105762,-2.653854 -1.71422,-4.18918 -5.545953,-5.293757 -1.850765,-0.533527 -2.887561,-0.999449 -3.192358,-1.434596 -0.443813,-0.63362 -0.08861,-1.781616 0.673129,-2.175522 0.826194,-0.42724 1.399342,-0.139341 1.399342,0.7029 0,1.107011 0.612921,1.6245 1.924084,1.6245 1.286223,0 2.414051,-0.698225 3.378668,-2.091712 0.892438,-1.289201 1.158228,-3.421389 0.580477,-4.65659 -0.820497,-1.754176 -3.066561,-2.653926 -5.796437,-2.322004 -2.59529,0.315557 -4.810067,1.396879 -6.464882,3.156353 -1.061568,1.128706 -1.32952,1.697545 -1.372794,2.914321 -0.0217,0.6103 -0.122544,1.239468 -0.242569,1.513477 -0.294944,0.673343 -0.256467,1.091426 0.181004,1.966887 0.66589,1.332555 1.803462,2.132454 4.160124,2.925238 2.398874,0.806984 3.39845,1.533638 3.39958,2.471361 4.74e-4,0.573047 -0.374268,0.846787 -1.23409,0.900938 -0.619593,0.03902 -0.811226,-0.0076 -1.367661,-0.333092 -0.537889,-0.314592 -0.718064,-0.519679 -1.067514,-1.215102 -0.283517,-0.564214 -0.543131,-0.900093 -0.797311,-1.03153 -0.475814,-0.246056 -1.571585,-0.242114 -2.054071,0.0075 -0.309671,0.160137 -0.390508,0.307702 -0.506699,0.924972 -0.204093,1.084281 -0.597202,2.034722 -1.234752,2.985343 -0.311841,0.464976 -0.566982,0.931466 -0.566982,1.036653 0,0.366706 0.534829,1.257707 1.116733,1.86043 1.349721,1.397996 3.34992,2.160569 6.139422,2.340633 0.140566,0.009 0.736567,-0.04154 1.324438,-0.11242 z m -31.35296,-0.616635 c 0.820368,-0.369051 1.762118,-1.208144 2.346711,-2.090894 0.299221,-0.451832 0.583081,-0.821511 0.630797,-0.821511 0.04768,0 0.290529,0.08514 0.539591,0.189207 0.619928,0.259024 1.327787,0.236526 1.810044,-0.05752 0.687207,-0.419017 0.846597,-0.798566 0.925681,-2.204308 0.03932,-0.698498 0.04872,-1.298376 0.02095,-1.333064 -0.02776,-0.03469 -0.235311,0.149788 -0.461205,0.409944 -0.465203,0.535768 -0.57318,0.578471 -0.57318,0.226674 0,-0.421795 0.28631,-0.900013 0.652072,-1.089158 0.883651,-0.456954 2.754378,-0.294564 2.85889,0.248166 0.04044,0.209866 -0.0085,0.226933 -0.426216,0.148578 l -0.471882,-0.08852 0.06613,0.823959 c 0.153563,1.913025 1.778729,3.147724 3.427117,2.603706 1.463317,-0.482939 1.808288,-1.720557 1.161288,-4.166299 -0.524027,-1.980903 -0.636136,-3.475482 -0.453348,-6.043744 0.08734,-1.22706 0.118997,-2.549502 0.07035,-2.93876 -0.115153,-0.921672 -0.530838,-1.726633 -1.082145,-2.095556 -0.384802,-0.257498 -0.563784,-0.290016 -1.394135,-0.25329 -2.178769,0.09636 -4.015402,1.701263 -5.894378,5.150662 -0.729016,1.338321 -1.604256,3.538779 -1.97478,4.964823 -0.587152,2.259849 -0.580807,3.665221 0.01977,4.378987 0.280734,0.333634 0.386475,0.378266 0.739339,0.312067 0.512304,-0.0961 0.647985,0.09235 0.309892,0.43044 -0.372412,0.372417 -0.823176,0.320529 -1.329727,-0.153071 -1.44168,-1.347896 -0.838318,-5.136318 1.582011,-9.933246 0.937218,-1.857502 1.256753,-3.009671 1.256753,-4.531512 0,-2.337483 -1.374763,-3.832337 -3.53182,-3.840329 -2.416702,-0.0089 -4.496897,2.376218 -5.926294,6.795134 -0.319631,0.98814 -0.444409,1.184865 -0.632331,0.996947 -0.08345,-0.08346 -0.05405,-0.602435 0.08762,-1.545398 0.35048,-2.33287 -0.02785,-3.720837 -1.231182,-4.517184 -0.413933,-0.27393 -0.697404,-0.348504 -1.501714,-0.395064 -1.907491,-0.110423 -3.600562,0.721237 -4.848848,2.381827 -1.065398,1.417289 -1.691583,2.905186 -2.791059,6.631902 -1.628475,5.519786 -1.901406,8.069614 -1.053368,9.840953 0.604619,1.262896 2.020014,1.959056 3.478865,1.711077 1.6243,-0.276106 2.964185,-1.199206 3.674186,-2.531303 0.551484,-1.03469 0.664557,-1.989816 0.450742,-3.80727 -0.203367,-1.728538 -0.205235,-2.822899 -0.0075,-4.350054 0.111369,-0.859816 0.195415,-1.142912 0.348028,-1.172249 0.170727,-0.03282 0.213949,0.177114 0.28537,1.385847 0.09319,1.577307 0.334632,2.889259 0.656567,3.567683 0.352536,0.742918 1.176452,0.754216 1.857358,0.02546 0.456829,-0.48893 1.656446,-2.319597 2.389859,-3.647034 0.503628,-0.911544 0.741226,-1.138664 0.90834,-0.868274 0.07633,0.123506 -0.499377,1.755751 -1.317073,3.734179 -0.800754,1.937425 -1.059369,2.981983 -1.061774,4.288641 -0.003,1.670813 0.495888,2.665023 1.630157,3.248142 0.954331,0.490615 2.663934,0.481389 3.779365,-0.02041 z m 6.172371,-9.270816 c -0.09637,-0.251145 0.157768,-0.579095 0.448764,-0.579095 0.145713,0 0.321081,-0.255601 0.54088,-0.788353 0.88397,-2.142555 0.966579,-2.301991 1.192775,-2.301991 0.151874,0 0.218524,0.08366 0.200996,0.252273 -0.01444,0.13875 -0.06523,0.832686 -0.112975,1.542078 -0.07609,1.131221 -0.06123,1.299599 0.120826,1.369463 0.24339,0.0934 0.278533,0.510749 0.04991,0.592725 -0.08672,0.0311 -0.262486,0.0025 -0.390606,-0.06353 -0.254268,-0.131051 -1.400953,-0.07807 -1.752647,0.08098 -0.15146,0.0685 -0.243977,0.03602 -0.297921,-0.104553 z m 80.285398,9.444978 c 1.33321,-0.254368 3.16739,-0.905856 4.24158,-1.506564 1.14462,-0.640113 2.32696,-1.781005 2.84248,-2.74282 0.37271,-0.695411 0.42495,-0.907983 0.42722,-1.738322 0.002,-0.783517 -0.0548,-1.054362 -0.33151,-1.576705 -0.87439,-1.65068 -3.1988,-2.964209 -5.24543,-2.964209 -0.39644,0 -0.68486,-0.06784 -0.78101,-0.183679 -0.22017,-0.265305 -0.0792,-0.403766 0.48838,-0.479906 1.32951,-0.178323 2.88655,-1.341348 3.53614,-2.641261 1.18252,-2.366426 -0.27442,-4.710819 -3.46943,-5.582754 -2.3934,-0.653174 -6.71225,-0.201915 -7.67388,0.801816 l -0.35608,0.371669 0.31873,0.672112 c 0.59239,1.249121 0.55338,2.392187 -0.11673,3.421985 -0.29041,0.446309 -0.31632,0.619441 -0.37505,2.507016 -0.0596,1.915796 -0.0507,2.022396 0.16369,1.933194 0.84024,-0.349748 0.91971,-0.366931 1.05795,-0.228703 0.1038,0.103801 -0.0405,0.257003 -0.54803,0.581634 -0.37893,0.242394 -0.80996,0.610657 -0.95786,0.818365 l -0.26891,0.377649 0.34569,0.220207 c 1.17257,0.746937 1.44324,2.310349 0.66436,3.837111 -0.3478,0.681739 -1.41393,1.589602 -2.22155,1.891772 -0.38081,0.142482 -0.74701,0.259054 -0.81379,0.259054 -0.18836,0 -0.14446,0.188936 0.12283,0.528748 0.51603,0.656017 2.28732,1.381791 3.94259,1.615445 1.08838,0.153633 3.7235,0.05214 5.00762,-0.192854 z m -2.29899,-4.810432 c -0.21905,-0.21906 -0.0169,-0.571116 0.7518,-1.309266 l 0.8359,-0.802663 -0.47067,-0.395151 c -0.30875,-0.259201 -0.45485,-0.478146 -0.42467,-0.636368 0.0767,-0.402023 0.51611,-0.34668 1.08006,0.136026 l 0.52614,0.450363 0.6129,-0.342194 c 0.66259,-0.369935 1.04083,-0.342431 1.04083,0.07568 0,0.168955 -0.16849,0.339626 -0.50454,0.511067 -0.27751,0.14157 -0.50457,0.284498 -0.50457,0.317614 0,0.03312 0.19868,0.336739 0.4415,0.674717 0.47806,0.665427 0.53701,0.915676 0.26824,1.13872 -0.25648,0.212864 -0.47111,0.07482 -0.96201,-0.61871 -0.24281,-0.343044 -0.47026,-0.624992 -0.50543,-0.62655 -0.11616,-0.0051 -1.43043,1.115927 -1.54203,1.315351 -0.1112,0.198679 -0.49047,0.264321 -0.64345,0.11136 z m -0.37859,-7.664502 c -0.0725,-0.188715 0.44015,-0.970182 0.9098,-1.387111 l 0.27384,-0.243084 -0.40997,-0.422973 c -0.32517,-0.335499 -0.38264,-0.466281 -0.27787,-0.632366 0.21465,-0.340296 0.38046,-0.322726 0.8507,0.09015 l 0.44502,0.390737 0.69817,-0.394025 c 0.384,-0.216715 0.75669,-0.357865 0.82821,-0.313667 0.28233,0.174488 0.11519,0.576244 -0.37452,0.900331 -0.2775,0.18364 -0.50456,0.375456 -0.50456,0.426256 0,0.0508 0.10506,0.227732 0.23348,0.393182 0.44786,0.577056 0.55451,0.868107 0.39052,1.065701 -0.24848,0.29939 -0.46438,0.209851 -0.91405,-0.379071 l -0.42776,-0.560213 -0.61389,0.62328 c -0.61994,0.629392 -0.98024,0.773522 -1.10712,0.442875 z m -7.23145,10.084277 c 1.66668,-0.353132 2.93071,-1.155337 3.38048,-2.145399 0.28456,-0.626384 0.30691,-1.830135 0.0435,-2.339631 -0.10548,-0.204 -0.43185,-0.498101 -0.72527,-0.653562 -0.45379,-0.240433 -0.71246,-0.280071 -1.73178,-0.265371 -0.79728,0.0115 -1.48569,0.103401 -2.0571,0.274623 -0.47235,0.141538 -0.94062,0.225946 -1.04062,0.187571 -0.25708,-0.09865 -0.23834,-0.974085 0.0255,-1.19309 0.14835,-0.123121 0.51633,-0.161723 1.29288,-0.135624 0.92988,0.03126 1.16586,-0.005 1.64576,-0.253283 0.68749,-0.355585 1.01378,-0.784484 1.10303,-1.449883 0.0879,-0.654897 -0.24218,-1.369222 -0.75515,-1.634485 -0.43392,-0.224396 -1.67689,-0.251466 -2.34886,-0.05116 -0.59307,0.176787 -0.81323,-0.0155 -0.704,-0.614902 0.13262,-0.727952 0.30573,-0.827082 1.14868,-0.657792 1.58034,0.317375 2.80134,0.04744 3.65887,-0.808892 0.67717,-0.676228 0.89428,-1.481668 0.67894,-2.518932 -0.20191,-0.972622 -1.01703,-1.836063 -2.00867,-2.127764 -1.63905,-0.482148 -4.37906,-0.0024 -5.91335,1.035514 -0.13373,0.09046 -0.11412,0.264399 0.10202,0.906044 0.55031,1.633543 0.4245,4.149408 -0.36968,7.392679 -0.37732,1.540991 -1.13137,3.704808 -1.63518,4.692357 -0.25955,0.508773 -0.26325,0.558869 -0.071,0.964157 0.25711,0.541812 1.04192,1.067106 2.01313,1.347442 0.9551,0.275684 3.08351,0.300311 4.26781,0.04939 z m -5.00703,-2.044793 c -0.14206,-0.142054 -0.0865,-0.29089 0.10854,-0.29089 0.10408,0 0.18921,0.05341 0.18921,0.118692 0,0.159054 -0.19698,0.272971 -0.29775,0.172198 z m -50.996013,1.378597 c 2.015047,-0.948032 3.488035,-3.342479 3.488035,-5.670059 0,-2.124114 -1.01237,-2.936935 -3.657954,-2.936935 -1.435758,0 -2.336322,0.232101 -2.802636,0.72232 -0.61019,0.641461 -0.578111,1.310718 0.08358,1.744288 0.269588,0.176639 0.372596,0.177027 1.035583,0.004 0.605918,-0.158229 0.765382,-0.163091 0.901001,-0.02747 0.135621,0.135619 0.06302,0.248142 -0.410014,0.635784 -1.022782,0.838092 -1.999793,0.943927 -2.656003,0.287713 -1.111381,-1.111378 -0.774956,-3.430337 0.713618,-4.918911 0.635723,-0.635725 0.78953,-0.729024 1.145215,-0.694679 0.297468,0.02872 0.42121,0.109298 0.448342,0.291943 0.100165,0.674227 0.190822,0.84616 0.567122,1.075601 0.874463,0.53318 2.305452,0.209543 3.106251,-0.702517 0.700891,-0.798273 0.947961,-1.48922 0.94528,-2.643541 -0.003,-1.164681 -0.188016,-1.688211 -0.861413,-2.433579 -1.163622,-1.287991 -3.257826,-1.49785 -5.195137,-0.520602 -2.537156,1.279836 -4.842992,4.656495 -4.840238,7.088031 0.0015,1.356661 0.210618,2.935058 0.574032,4.333569 0.177954,0.684801 0.329553,1.528898 0.336892,1.875774 0.01599,0.755754 0.256148,1.124489 1.213264,1.862901 1.067017,0.823197 2.073722,1.116303 3.67706,1.070583 1.186035,-0.0338 1.414683,-0.08023 2.188106,-0.444108 z m 24.123227,0.08115 c 1.28842,-0.482058 2.583621,-2.090579 2.944781,-3.657143 0.489484,-2.12323 -0.3171,-3.643495 -1.93309,-3.643495 -0.761818,0 -1.141601,0.162669 -1.96588,0.842017 -0.874982,0.721138 -1.204501,0.853451 -1.657821,0.665679 -0.65736,-0.272284 -0.91633,-1.339619 -0.589638,-2.430056 0.187767,-0.626712 0.879904,-1.348097 1.293434,-1.348097 0.300466,0 0.336929,0.05747 0.498945,0.786058 0.167749,0.754418 1.455039,0.957025 2.565309,0.403757 1.52874,-0.761811 2.367528,-2.541645 2.037567,-4.323546 -0.629953,-3.401896 -5.486536,-3.893806 -8.596979,-0.87076 -1.353335,1.315316 -2.128189,3.015423 -2.315272,5.079958 l -0.08341,0.920113 0.718326,0.735735 c 0.407815,0.417697 0.891992,1.090518 1.120079,1.556474 0.375544,0.767243 0.402919,0.915287 0.419866,2.271307 l 0.01814,1.450569 0.517122,0.526402 c 1.284883,1.307944 3.213708,1.706545 5.008484,1.035028 z m 5.547225,0.13002 c 0.213129,-0.06572 0.565469,-0.303114 0.782994,-0.527532 0.645477,-0.665963 0.784623,-1.26665 0.784623,-3.387163 0,-1.773083 -0.0135,-1.876189 -0.244839,-1.876189 -0.32768,0 -0.456563,-0.236373 -0.243089,-0.44585 0.243964,-0.23941 2.288288,-0.342751 2.578752,-0.130356 0.274157,0.200461 0.132385,0.450069 -0.255615,0.450069 -0.355814,0 -0.388428,0.110019 -0.572342,1.93091 -0.151952,1.504203 -0.04247,2.489684 0.351306,3.164013 0.713863,1.222294 2.443732,1.297948 3.391352,0.148313 0.524287,-0.636058 0.656439,-1.162865 0.799273,-3.186128 0.06771,-0.957971 0.245778,-3.153189 0.395905,-4.878261 0.310254,-3.565195 0.246618,-4.585242 -0.349508,-5.602454 -0.511835,-0.873381 -1.630154,-1.270488 -2.420253,-0.859409 -0.974917,0.507254 -1.273651,1.299003 -1.408467,3.73301 -0.0978,1.76506 -0.0921,1.836279 0.161721,2.037823 0.214796,0.170549 0.234428,0.243302 0.107072,0.396756 -0.126089,0.151928 -0.240546,0.16195 -0.597682,0.05234 -0.329635,-0.101162 -0.603364,-0.09415 -1.078487,0.02761 -0.490723,0.125777 -0.670381,0.12891 -0.783571,0.01366 -0.112101,-0.114125 -0.08363,-0.201257 0.12038,-0.368114 0.202242,-0.165423 0.316513,-0.508446 0.469768,-1.410083 0.458071,-2.694996 0.400079,-3.813708 -0.228281,-4.404019 -0.622605,-0.584905 -1.880908,-0.428164 -2.731439,0.340239 -0.769024,0.694758 -0.847766,0.929396 -0.774249,2.307086 0.05774,1.081218 0.03176,1.282047 -0.26111,2.018184 -0.178857,0.449616 -0.386547,1.317326 -0.461563,1.928244 l -0.136399,1.110761 0.399166,0.810806 c 0.371991,0.755627 0.39464,0.877469 0.332792,1.790377 -0.0813,1.200676 -0.328741,2.019843 -0.893111,2.957059 l -0.43123,0.716119 0.231969,0.381451 c 0.36956,0.607687 1.43308,1.062759 2.198249,0.94062 0.208128,-0.03322 0.552794,-0.114183 0.765913,-0.179906 z m 11.866151,-0.126125 c 0.88319,-0.545839 1.5734,-1.985974 1.75608,-3.664149 0.14183,-1.302622 0.55902,-1.514345 0.55902,-0.283691 0,1.709248 0.74063,3.500518 1.63629,3.957442 0.99076,0.505454 1.96155,0.22334 2.89995,-0.842723 1.76802,-2.008574 3.49544,-8.652507 3.05656,-11.755967 -0.19043,-1.346596 -0.56093,-2.179142 -1.23302,-2.770731 -1.51806,-1.336259 -3.75443,-0.850525 -4.34673,0.944096 -0.10305,0.312278 -0.12742,0.878949 -0.0747,1.737581 0.24225,3.947949 0.24692,4.425816 0.045,4.59342 -0.25427,0.211034 -0.30501,0.110233 -0.46933,-0.932663 -0.26777,-1.699562 -0.7872,-2.828063 -1.30171,-2.828063 -0.33038,0 -0.86661,0.538898 -1.11723,1.122827 -0.13691,0.319008 -0.40711,1.144997 -0.60042,1.835529 -0.19334,0.690532 -0.41617,1.277066 -0.4952,1.30341 -0.2123,0.07077 -0.17932,-0.669793 0.11962,-2.685058 0.2961,-1.996299 0.27403,-2.830561 -0.0938,-3.543196 -0.66108,-1.280861 -2.300478,-1.528277 -3.407034,-0.514189 l -0.44223,0.405277 0.155873,1.018207 c 0.123323,0.805643 0.123695,1.384346 0.0019,2.772076 -0.618274,7.036699 -0.636155,7.767546 -0.210195,8.60097 0.331721,0.649029 0.93203,1.27271 1.524889,1.584286 0.552682,0.290442 1.520217,0.26446 2.036617,-0.05469 z"
       id="path1"
       inkscape:label="graffiti" />
  </g>
</svg>
