  0
SECTION
  2
HEADER
  9
$ACADVER
  1
AC1014
  9
$HANDSEED
  5
FFFF
  9
$INSUNITS
 70
     4
  9
$MEASUREMENT
 70
     1
  0
ENDSEC
  0
SECTION
  2
TABLES
  0
TABLE
  2
VPORT
  5
8
330
0
100
AcDbSymbolTable
 70
     4
  0
VPORT
  5
2E
330
8
100
AcDbSymbolTableRecord
100
AcDbViewportTableRecord
  2
*ACTIVE
 70
     0
 10
0.0
 20
0.0
 11
1.0
 21
1.0
 12
210.0
 22
148.5
 13
0.0
 23
0.0
 14
10.0
 24
10.0
 15
10.0
 25
10.0
 16
0.0
 26
0.0
 36
1.0
 17
0.0
 27
0.0
 37
0.0
 40
341.0
 41
1.24
 42
50.0
 43
0.0
 44
0.0
 50
0.0
 51
0.0
 71
     0
 72
   100
 73
     1
 74
     3
 75
     0
 76
     0
 77
     0
 78
     0
  0
ENDTAB
  0
TABLE
  2
LTYPE
  5
5
330
0
100
AcDbSymbolTable
 70
     1
  0
LTYPE
  5
14
330
5
100
AcDbSymbolTableRecord
100
AcDbLinetypeTableRecord
  2
BYBLOCK
 70
     0
  3

 72
    65
 73
     0
 40
0.0
  0
LTYPE
  5
15
330
5
100
AcDbSymbolTableRecord
100
AcDbLinetypeTableRecord
  2
BYLAYER
 70
     0
  3

 72
    65
 73
     0
 40
0.0
  0
LTYPE
  5
16
330
5
100
AcDbSymbolTableRecord
100
AcDbLinetypeTableRecord
  2
CONTINUOUS
 70
     0
  3
Solid line
 72
    65
 73
     0
 40
0.0
  0
ENDTAB
  0
TABLE
  2
LAYER
  5
2
100
AcDbSymbolTable
 70
5
  0
LAYER
  5
50
100
AcDbSymbolTableRecord
100
AcDbLayerTableRecord
  2
0
 70
0
  6
CONTINUOUS
  0
LAYER
  5
51
100
AcDbSymbolTableRecord
100
AcDbLayerTableRecord
  2
Outer_Shapes
 70
0
  6
CONTINUOUS
  0
LAYER
  5
52
100
AcDbSymbolTableRecord
100
AcDbLayerTableRecord
  2
Cutout_Float
 70
0
  6
CONTINUOUS
  0
LAYER
  5
53
100
AcDbSymbolTableRecord
100
AcDbLayerTableRecord
  2
Cutouts_Track
 70
0
  6
CONTINUOUS
  0
LAYER
  5
54
100
AcDbSymbolTableRecord
100
AcDbLayerTableRecord
  2
Engraving
 70
0
  6
CONTINUOUS
  0
ENDTAB
  0
TABLE
  2
STYLE
  5
3
330
0
100
AcDbSymbolTable
 70
     1
  0
STYLE
  5
11
330
3
100
AcDbSymbolTableRecord
100
AcDbTextStyleTableRecord
  2
STANDARD
 70
     0
 40
0.0
 41
1.0
 50
0.0
 71
     0
 42
2.5
  3
txt
  4

  0
ENDTAB
  0
TABLE
  2
VIEW
  5
6
330
0
100
AcDbSymbolTable
 70
     0
  0
ENDTAB
  0
TABLE
  2
UCS
  5
7
330
0
100
AcDbSymbolTable
 70
     0
  0
ENDTAB
  0
TABLE
  2
APPID
  5
9
330
0
100
AcDbSymbolTable
 70
     2
  0
APPID
  5
12
330
9
100
AcDbSymbolTableRecord
100
AcDbRegAppTableRecord
  2
ACAD
 70
     0
  0
ENDTAB
  0
TABLE
  2
DIMSTYLE
  5
A
330
0
100
AcDbSymbolTable
 70
     1
  0
DIMSTYLE
105
27
330
A
100
AcDbSymbolTableRecord
100
AcDbDimStyleTableRecord
  2
ISO-25
 70
     0
  3

  4

  5

  6

  7

 40
1.0
 41
2.5
 42
0.625
 43
3.75
 44
1.25
 45
0.0
 46
0.0
 47
0.0
 48
0.0
140
2.5
141
2.5
142
0.0
143
0.03937007874016
144
1.0
145
0.0
146
1.0
147
0.625
 71
     0
 72
     0
 73
     0
 74
     0
 75
     0
 76
     0
 77
     1
 78
     8
170
     0
171
     3
172
     1
173
     0
174
     0
175
     0
176
     0
177
     0
178
     0
270
     2
271
     2
272
     2
273
     2
274
     3
340
11
275
     0
280
     0
281
     0
282
     0
283
     0
284
     8
285
     0
286
     0
287
     3
288
     0
  0
ENDTAB
  0
TABLE
  2
BLOCK_RECORD
  5
1
330
0
100
AcDbSymbolTable
 70
     1
  0
BLOCK_RECORD
  5
1F
330
1
100
AcDbSymbolTableRecord
100
AcDbBlockTableRecord
  2
*MODEL_SPACE
  0
BLOCK_RECORD
  5
1B
330
1
100
AcDbSymbolTableRecord
100
AcDbBlockTableRecord
  2
*PAPER_SPACE
  0
ENDTAB
  0
ENDSEC
  0
SECTION
  2
BLOCKS
  0
BLOCK
  5
20
330
1F
100
AcDbEntity
  8
0
100
AcDbBlockBegin
  2
*MODEL_SPACE
 70
     0
 10
0.0
 20
0.0
 30
0.0
  3
*MODEL_SPACE
  1

  0
ENDBLK
  5
21
330
1F
100
AcDbEntity
  8
0
100
AcDbBlockEnd
  0
BLOCK
  5
1C
330
1B
100
AcDbEntity
 67
     1
  8
0
100
AcDbBlockBegin
  2
*PAPER_SPACE
  1

  0
ENDBLK
  5
1D
330
1B
100
AcDbEntity
 67
     1
  8
0
100
AcDbBlockEnd
  0
ENDSEC
  0
SECTION
  2
ENTITIES
  0
LINE
  5
100
100
AcDbEntity
  8
Outer_Shapes
 62
7
100
AcDbLine
 10
180.224670
 20
173.685059
 30
0.0
 11
180.224670
 21
107.685059
 31
0.0
  0
LINE
  5
101
100
AcDbEntity
  8
Outer_Shapes
 62
7
100
AcDbLine
 10
180.224670
 20
107.685059
 30
0.0
 11
4.881900
 21
107.685059
 31
0.0
  0
LINE
  5
102
100
AcDbEntity
  8
Outer_Shapes
 62
7
100
AcDbLine
 10
4.881900
 20
107.685059
 30
0.0
 11
4.881900
 21
173.685059
 31
0.0
  0
LINE
  5
103
100
AcDbEntity
  8
Outer_Shapes
 62
7
100
AcDbLine
 10
4.881900
 20
173.685059
 30
0.0
 11
180.224670
 21
173.685059
 31
0.0
  0
SPLINE
  5
104
100
AcDbEntity
  8
Outer_Shapes
 62
7
100
AcDbSpline
 70
8
 71
3
 72
8
 73
4
 74
0
 40
0
 40
0
 40
0
 40
0
 40
1
 40
1
 40
1
 40
1
 10
134.982040
 20
99.655102
 30
0.0
 10
144.934180
 20
99.688772
 30
0.0
 10
154.881900
 20
99.685062
 30
0.0
 10
154.881900
 20
93.685061
 30
0.0
  0
SPLINE
  5
105
100
AcDbEntity
  8
Outer_Shapes
 62
7
100
AcDbSpline
 70
8
 71
3
 72
8
 73
4
 74
0
 40
0
 40
0
 40
0
 40
0
 40
1
 40
1
 40
1
 40
1
 10
154.881900
 20
93.685061
 30
0.0
 10
154.881900
 20
87.685061
 30
0.0
 10
144.881900
 20
87.685061
 30
0.0
 10
134.881900
 20
87.685061
 30
0.0
  0
SPLINE
  5
106
100
AcDbEntity
  8
Outer_Shapes
 62
7
100
AcDbSpline
 70
8
 71
3
 72
8
 73
4
 74
0
 40
0
 40
0
 40
0
 40
0
 40
1
 40
1
 40
1
 40
1
 10
134.881900
 20
87.685061
 30
0.0
 10
124.881900
 20
87.685061
 30
0.0
 10
124.881900
 20
77.685060
 30
0.0
 10
124.881900
 20
65.685060
 30
0.0
  0
SPLINE
  5
107
100
AcDbEntity
  8
Outer_Shapes
 62
7
100
AcDbSpline
 70
8
 71
3
 72
8
 73
4
 74
0
 40
0
 40
0
 40
0
 40
0
 40
1
 40
1
 40
1
 40
1
 10
124.881900
 20
65.685060
 30
0.0
 10
124.881900
 20
53.685060
 30
0.0
 10
124.881900
 20
43.685060
 30
0.0
 10
134.881900
 20
43.685060
 30
0.0
  0
SPLINE
  5
108
100
AcDbEntity
  8
Outer_Shapes
 62
7
100
AcDbSpline
 70
8
 71
3
 72
8
 73
4
 74
0
 40
0
 40
0
 40
0
 40
0
 40
1
 40
1
 40
1
 40
1
 10
134.881900
 20
43.685060
 30
0.0
 10
144.881900
 20
43.685060
 30
0.0
 10
154.881900
 20
42.870410
 30
0.0
 10
154.881900
 20
37.685060
 30
0.0
  0
SPLINE
  5
109
100
AcDbEntity
  8
Outer_Shapes
 62
7
100
AcDbSpline
 70
8
 71
3
 72
8
 73
4
 74
0
 40
0
 40
0
 40
0
 40
0
 40
1
 40
1
 40
1
 40
1
 10
154.881900
 20
37.685060
 30
0.0
 10
154.881900
 20
31.685060
 30
0.0
 10
145.251220
 20
31.729340
 30
0.0
 10
134.881900
 20
31.685060
 30
0.0
  0
LINE
  5
10a
100
AcDbEntity
  8
Outer_Shapes
 62
7
100
AcDbLine
 10
134.881900
 20
31.685060
 30
0.0
 11
14.881897
 21
31.685060
 31
0.0
  0
SPLINE
  5
10b
100
AcDbEntity
  8
Outer_Shapes
 62
7
100
AcDbSpline
 70
8
 71
3
 72
8
 73
4
 74
0
 40
0
 40
0
 40
0
 40
0
 40
1
 40
1
 40
1
 40
1
 10
14.881897
 20
31.685060
 30
0.0
 10
9.881897
 20
31.685060
 30
0.0
 10
9.881897
 20
43.685060
 30
0.0
 10
14.881897
 20
43.685060
 30
0.0
  0
LINE
  5
10c
100
AcDbEntity
  8
Outer_Shapes
 62
7
100
AcDbLine
 10
14.881897
 20
43.685060
 30
0.0
 11
34.881897
 21
43.685060
 31
0.0
  0
SPLINE
  5
10d
100
AcDbEntity
  8
Outer_Shapes
 62
7
100
AcDbSpline
 70
8
 71
3
 72
8
 73
4
 74
0
 40
0
 40
0
 40
0
 40
0
 40
1
 40
1
 40
1
 40
1
 10
34.881897
 20
43.685060
 30
0.0
 10
39.881897
 20
43.685060
 30
0.0
 10
39.881897
 20
45.685060
 30
0.0
 10
39.881897
 20
47.685060
 30
0.0
  0
LINE
  5
10e
100
AcDbEntity
  8
Outer_Shapes
 62
7
100
AcDbLine
 10
39.881897
 20
47.685060
 30
0.0
 11
39.881897
 21
83.685061
 31
0.0
  0
SPLINE
  5
10f
100
AcDbEntity
  8
Outer_Shapes
 62
7
100
AcDbSpline
 70
8
 71
3
 72
8
 73
4
 74
0
 40
0
 40
0
 40
0
 40
0
 40
1
 40
1
 40
1
 40
1
 10
39.881897
 20
83.685061
 30
0.0
 10
39.881897
 20
85.685061
 30
0.0
 10
39.643285
 20
87.792215
 30
0.0
 10
34.881897
 20
87.685061
 30
0.0
  0
LINE
  5
110
100
AcDbEntity
  8
Outer_Shapes
 62
7
100
AcDbLine
 10
34.881897
 20
87.685061
 30
0.0
 11
14.881897
 21
87.685061
 31
0.0
  0
SPLINE
  5
111
100
AcDbEntity
  8
Outer_Shapes
 62
7
100
AcDbSpline
 70
8
 71
3
 72
8
 73
4
 74
0
 40
0
 40
0
 40
0
 40
0
 40
1
 40
1
 40
1
 40
1
 10
14.881897
 20
87.685061
 30
0.0
 10
9.881897
 20
87.685061
 30
0.0
 10
9.881897
 20
99.685061
 30
0.0
 10
14.881897
 20
99.685061
 30
0.0
  0
LINE
  5
112
100
AcDbEntity
  8
Outer_Shapes
 62
7
100
AcDbLine
 10
14.881897
 20
99.685061
 30
0.0
 11
134.982040
 21
99.655102
 31
0.0
  0
LINE
  5
113
100
AcDbEntity
  8
Cutout_Float
 62
7
100
AcDbLine
 10
34.833523
 20
91.685059
 30
0.0
 11
19.833523
 21
91.685059
 31
0.0
  0
LINE
  5
114
100
AcDbEntity
  8
Cutout_Float
 62
7
100
AcDbLine
 10
19.833523
 20
91.685059
 30
0.0
 11
19.833523
 21
95.685059
 31
0.0
  0
LINE
  5
115
100
AcDbEntity
  8
Cutout_Float
 62
7
100
AcDbLine
 10
19.833523
 20
95.685059
 30
0.0
 11
34.833523
 21
95.685059
 31
0.0
  0
LINE
  5
116
100
AcDbEntity
  8
Cutout_Float
 62
7
100
AcDbLine
 10
34.833523
 20
95.685059
 30
0.0
 11
34.833523
 21
91.685059
 31
0.0
  0
LINE
  5
117
100
AcDbEntity
  8
Cutout_Float
 62
7
100
AcDbLine
 10
60.145351
 20
91.685059
 30
0.0
 11
45.145351
 21
91.685059
 31
0.0
  0
LINE
  5
118
100
AcDbEntity
  8
Cutout_Float
 62
7
100
AcDbLine
 10
45.145351
 20
91.685059
 30
0.0
 11
45.145351
 21
95.685059
 31
0.0
  0
LINE
  5
119
100
AcDbEntity
  8
Cutout_Float
 62
7
100
AcDbLine
 10
45.145351
 20
95.685059
 30
0.0
 11
60.145351
 21
95.685059
 31
0.0
  0
LINE
  5
11a
100
AcDbEntity
  8
Cutout_Float
 62
7
100
AcDbLine
 10
60.145351
 20
95.685059
 30
0.0
 11
60.145351
 21
91.685059
 31
0.0
  0
LINE
  5
11b
100
AcDbEntity
  8
Cutout_Float
 62
7
100
AcDbLine
 10
84.717064
 20
91.685059
 30
0.0
 11
69.717064
 21
91.685059
 31
0.0
  0
LINE
  5
11c
100
AcDbEntity
  8
Cutout_Float
 62
7
100
AcDbLine
 10
69.717064
 20
91.685059
 30
0.0
 11
69.717064
 21
95.685059
 31
0.0
  0
LINE
  5
11d
100
AcDbEntity
  8
Cutout_Float
 62
7
100
AcDbLine
 10
69.717064
 20
95.685059
 30
0.0
 11
84.717064
 21
95.685059
 31
0.0
  0
LINE
  5
11e
100
AcDbEntity
  8
Cutout_Float
 62
7
100
AcDbLine
 10
84.717064
 20
95.685059
 30
0.0
 11
84.717064
 21
91.685059
 31
0.0
  0
LINE
  5
11f
100
AcDbEntity
  8
Cutout_Float
 62
7
100
AcDbLine
 10
34.896450
 20
35.685060
 30
0.0
 11
19.896450
 21
35.685060
 31
0.0
  0
LINE
  5
120
100
AcDbEntity
  8
Cutout_Float
 62
7
100
AcDbLine
 10
19.896450
 20
35.685060
 30
0.0
 11
19.896450
 21
39.685060
 31
0.0
  0
LINE
  5
121
100
AcDbEntity
  8
Cutout_Float
 62
7
100
AcDbLine
 10
19.896450
 20
39.685060
 30
0.0
 11
34.896450
 21
39.685060
 31
0.0
  0
LINE
  5
122
100
AcDbEntity
  8
Cutout_Float
 62
7
100
AcDbLine
 10
34.896450
 20
39.685060
 30
0.0
 11
34.896450
 21
35.685060
 31
0.0
  0
LINE
  5
123
100
AcDbEntity
  8
Cutout_Float
 62
7
100
AcDbLine
 10
59.881897
 20
35.685060
 30
0.0
 11
44.881897
 21
35.685060
 31
0.0
  0
LINE
  5
124
100
AcDbEntity
  8
Cutout_Float
 62
7
100
AcDbLine
 10
44.881897
 20
35.685060
 30
0.0
 11
44.881897
 21
39.685060
 31
0.0
  0
LINE
  5
125
100
AcDbEntity
  8
Cutout_Float
 62
7
100
AcDbLine
 10
44.881897
 20
39.685060
 30
0.0
 11
59.881897
 21
39.685060
 31
0.0
  0
LINE
  5
126
100
AcDbEntity
  8
Cutout_Float
 62
7
100
AcDbLine
 10
59.881897
 20
39.685060
 30
0.0
 11
59.881897
 21
35.685060
 31
0.0
  0
LINE
  5
127
100
AcDbEntity
  8
Cutout_Float
 62
7
100
AcDbLine
 10
85.154167
 20
35.833080
 30
0.0
 11
70.154167
 21
35.833080
 31
0.0
  0
LINE
  5
128
100
AcDbEntity
  8
Cutout_Float
 62
7
100
AcDbLine
 10
70.154167
 20
35.833080
 30
0.0
 11
70.154167
 21
39.833080
 31
0.0
  0
LINE
  5
129
100
AcDbEntity
  8
Cutout_Float
 62
7
100
AcDbLine
 10
70.154167
 20
39.833080
 30
0.0
 11
85.154167
 21
39.833080
 31
0.0
  0
LINE
  5
12a
100
AcDbEntity
  8
Cutout_Float
 62
7
100
AcDbLine
 10
85.154167
 20
39.833080
 30
0.0
 11
85.154167
 21
35.833080
 31
0.0
  0
LINE
  5
12b
100
AcDbEntity
  8
Cutout_Float
 62
7
100
AcDbLine
 10
109.881900
 20
35.685060
 30
0.0
 11
94.881900
 21
35.685060
 31
0.0
  0
LINE
  5
12c
100
AcDbEntity
  8
Cutout_Float
 62
7
100
AcDbLine
 10
94.881900
 20
35.685060
 30
0.0
 11
94.881900
 21
39.685060
 31
0.0
  0
LINE
  5
12d
100
AcDbEntity
  8
Cutout_Float
 62
7
100
AcDbLine
 10
94.881900
 20
39.685060
 30
0.0
 11
109.881900
 21
39.685060
 31
0.0
  0
LINE
  5
12e
100
AcDbEntity
  8
Cutout_Float
 62
7
100
AcDbLine
 10
109.881900
 20
39.685060
 30
0.0
 11
109.881900
 21
35.685060
 31
0.0
  0
LINE
  5
12f
100
AcDbEntity
  8
Cutout_Float
 62
7
100
AcDbLine
 10
109.881900
 20
91.685059
 30
0.0
 11
94.881900
 21
91.685059
 31
0.0
  0
LINE
  5
130
100
AcDbEntity
  8
Cutout_Float
 62
7
100
AcDbLine
 10
94.881900
 20
91.685059
 30
0.0
 11
94.881900
 21
95.685059
 31
0.0
  0
LINE
  5
131
100
AcDbEntity
  8
Cutout_Float
 62
7
100
AcDbLine
 10
94.881900
 20
95.685059
 30
0.0
 11
109.881900
 21
95.685059
 31
0.0
  0
LINE
  5
132
100
AcDbEntity
  8
Cutout_Float
 62
7
100
AcDbLine
 10
109.881900
 20
95.685059
 30
0.0
 11
109.881900
 21
91.685059
 31
0.0
  0
LINE
  5
133
100
AcDbEntity
  8
Cutout_Float
 62
7
100
AcDbLine
 10
135.164050
 20
91.685059
 30
0.0
 11
120.164050
 21
91.685059
 31
0.0
  0
LINE
  5
134
100
AcDbEntity
  8
Cutout_Float
 62
7
100
AcDbLine
 10
120.164050
 20
91.685059
 30
0.0
 11
120.164050
 21
95.685059
 31
0.0
  0
LINE
  5
135
100
AcDbEntity
  8
Cutout_Float
 62
7
100
AcDbLine
 10
120.164050
 20
95.685059
 30
0.0
 11
135.164050
 21
95.685059
 31
0.0
  0
LINE
  5
136
100
AcDbEntity
  8
Cutout_Float
 62
7
100
AcDbLine
 10
135.164050
 20
95.685059
 30
0.0
 11
135.164050
 21
91.685059
 31
0.0
  0
LINE
  5
137
100
AcDbEntity
  8
Cutout_Float
 62
7
100
AcDbLine
 10
134.881900
 20
35.685060
 30
0.0
 11
119.881900
 21
35.685060
 31
0.0
  0
LINE
  5
138
100
AcDbEntity
  8
Cutout_Float
 62
7
100
AcDbLine
 10
119.881900
 20
35.685060
 30
0.0
 11
119.881900
 21
39.685060
 31
0.0
  0
LINE
  5
139
100
AcDbEntity
  8
Cutout_Float
 62
7
100
AcDbLine
 10
119.881900
 20
39.685060
 30
0.0
 11
134.881900
 21
39.685060
 31
0.0
  0
LINE
  5
13a
100
AcDbEntity
  8
Cutout_Float
 62
7
100
AcDbLine
 10
134.881900
 20
39.685060
 30
0.0
 11
134.881900
 21
35.685060
 31
0.0
  0
SPLINE
  5
13b
100
AcDbEntity
  8
Cutout_Float
 62
7
100
AcDbSpline
 70
8
 71
3
 72
8
 73
4
 74
0
 40
0
 40
0
 40
0
 40
0
 40
1
 40
1
 40
1
 40
1
 10
74.881897
 20
83.685055
 30
0.0
 10
64.770341
 20
83.685055
 30
0.0
 10
55.654434
 20
79.326356
 30
0.0
 10
51.784909
 20
72.641413
 30
0.0
  0
SPLINE
  5
13c
100
AcDbEntity
  8
Cutout_Float
 62
7
100
AcDbSpline
 70
8
 71
3
 72
8
 73
4
 74
0
 40
0
 40
0
 40
0
 40
0
 40
1
 40
1
 40
1
 40
1
 10
51.784909
 20
72.641413
 30
0.0
 10
47.915384
 20
65.956470
 30
0.0
 10
50.054278
 20
58.261767
 30
0.0
 10
57.204227
 20
53.145333
 30
0.0
  0
SPLINE
  5
13d
100
AcDbEntity
  8
Cutout_Float
 62
7
100
AcDbSpline
 70
8
 71
3
 72
8
 73
4
 74
0
 40
0
 40
0
 40
0
 40
0
 40
1
 40
1
 40
1
 40
1
 10
57.204227
 20
53.145333
 30
0.0
 10
64.354177
 20
48.028899
 30
0.0
 10
75.107123
 20
46.498327
 30
0.0
 10
84.448983
 20
49.267322
 30
0.0
  0
SPLINE
  5
13e
100
AcDbEntity
  8
Cutout_Float
 62
7
100
AcDbSpline
 70
8
 71
3
 72
8
 73
4
 74
0
 40
0
 40
0
 40
0
 40
0
 40
1
 40
1
 40
1
 40
1
 10
84.448983
 20
49.267322
 30
0.0
 10
93.790843
 20
52.036316
 30
0.0
 10
99.881897
 20
58.559570
 30
0.0
 10
99.881897
 20
65.795300
 30
0.0
  0
SPLINE
  5
13f
100
AcDbEntity
  8
Cutout_Float
 62
7
100
AcDbSpline
 70
8
 71
3
 72
8
 73
4
 74
0
 40
0
 40
0
 40
0
 40
0
 40
1
 40
1
 40
1
 40
1
 10
99.881897
 20
65.795300
 30
0.0
 10
99.881897
 20
70.539958
 30
0.0
 10
97.247976
 20
75.090287
 30
0.0
 10
92.559567
 20
78.445267
 30
0.0
  0
SPLINE
  5
140
100
AcDbEntity
  8
Cutout_Float
 62
7
100
AcDbSpline
 70
8
 71
3
 72
8
 73
4
 74
0
 40
0
 40
0
 40
0
 40
0
 40
1
 40
1
 40
1
 40
1
 10
92.559567
 20
78.445267
 30
0.0
 10
87.871157
 20
81.800247
 30
0.0
 10
81.512309
 20
83.685055
 30
0.0
 10
74.881897
 20
83.685055
 30
0.0
  0
LINE
  5
141
100
AcDbEntity
  8
Cutout_Float
 62
7
100
AcDbLine
 10
74.881897
 20
83.685055
 30
0.0
 11
74.881897
 21
83.685055
 31
0.0
  0
LINE
  5
142
100
AcDbEntity
  8
Cutouts_Track
 62
7
100
AcDbLine
 10
25.043079
 20
169.480211
 30
0.0
 11
25.043079
 21
165.480211
 31
0.0
  0
LINE
  5
143
100
AcDbEntity
  8
Cutouts_Track
 62
7
100
AcDbLine
 10
25.043079
 20
165.480211
 30
0.0
 11
10.043079
 21
165.480211
 31
0.0
  0
LINE
  5
144
100
AcDbEntity
  8
Cutouts_Track
 62
7
100
AcDbLine
 10
10.043079
 20
165.480211
 30
0.0
 11
10.043079
 21
169.480211
 31
0.0
  0
LINE
  5
145
100
AcDbEntity
  8
Cutouts_Track
 62
7
100
AcDbLine
 10
10.043079
 20
169.480211
 30
0.0
 11
25.043079
 21
169.480211
 31
0.0
  0
LINE
  5
146
100
AcDbEntity
  8
Cutouts_Track
 62
7
100
AcDbLine
 10
49.862175
 20
169.776256
 30
0.0
 11
49.862175
 21
165.776256
 31
0.0
  0
LINE
  5
147
100
AcDbEntity
  8
Cutouts_Track
 62
7
100
AcDbLine
 10
49.862175
 20
165.776256
 30
0.0
 11
34.862175
 21
165.776256
 31
0.0
  0
LINE
  5
148
100
AcDbEntity
  8
Cutouts_Track
 62
7
100
AcDbLine
 10
34.862175
 20
165.776256
 30
0.0
 11
34.862175
 21
169.776256
 31
0.0
  0
LINE
  5
149
100
AcDbEntity
  8
Cutouts_Track
 62
7
100
AcDbLine
 10
34.862175
 20
169.776256
 30
0.0
 11
49.862175
 21
169.776256
 31
0.0
  0
LINE
  5
14a
100
AcDbEntity
  8
Cutouts_Track
 62
7
100
AcDbLine
 10
74.881897
 20
169.685059
 30
0.0
 11
74.881897
 21
165.685059
 31
0.0
  0
LINE
  5
14b
100
AcDbEntity
  8
Cutouts_Track
 62
7
100
AcDbLine
 10
74.881897
 20
165.685059
 30
0.0
 11
59.881897
 21
165.685059
 31
0.0
  0
LINE
  5
14c
100
AcDbEntity
  8
Cutouts_Track
 62
7
100
AcDbLine
 10
59.881897
 20
165.685059
 30
0.0
 11
59.881897
 21
169.685059
 31
0.0
  0
LINE
  5
14d
100
AcDbEntity
  8
Cutouts_Track
 62
7
100
AcDbLine
 10
59.881897
 20
169.685059
 30
0.0
 11
74.881897
 21
169.685059
 31
0.0
  0
LINE
  5
14e
100
AcDbEntity
  8
Cutouts_Track
 62
7
100
AcDbLine
 10
99.796631
 20
169.685059
 30
0.0
 11
99.796631
 21
165.685059
 31
0.0
  0
LINE
  5
14f
100
AcDbEntity
  8
Cutouts_Track
 62
7
100
AcDbLine
 10
99.796631
 20
165.685059
 30
0.0
 11
84.796631
 21
165.685059
 31
0.0
  0
LINE
  5
150
100
AcDbEntity
  8
Cutouts_Track
 62
7
100
AcDbLine
 10
84.796631
 20
165.685059
 30
0.0
 11
84.796631
 21
169.685059
 31
0.0
  0
LINE
  5
151
100
AcDbEntity
  8
Cutouts_Track
 62
7
100
AcDbLine
 10
84.796631
 20
169.685059
 30
0.0
 11
99.796631
 21
169.685059
 31
0.0
  0
LINE
  5
152
100
AcDbEntity
  8
Cutouts_Track
 62
7
100
AcDbLine
 10
124.763930
 20
169.685059
 30
0.0
 11
124.763930
 21
165.685059
 31
0.0
  0
LINE
  5
153
100
AcDbEntity
  8
Cutouts_Track
 62
7
100
AcDbLine
 10
124.763930
 20
165.685059
 30
0.0
 11
109.763930
 21
165.685059
 31
0.0
  0
LINE
  5
154
100
AcDbEntity
  8
Cutouts_Track
 62
7
100
AcDbLine
 10
109.763930
 20
165.685059
 30
0.0
 11
109.763930
 21
169.685059
 31
0.0
  0
LINE
  5
155
100
AcDbEntity
  8
Cutouts_Track
 62
7
100
AcDbLine
 10
109.763930
 20
169.685059
 30
0.0
 11
124.763930
 21
169.685059
 31
0.0
  0
LINE
  5
156
100
AcDbEntity
  8
Cutouts_Track
 62
7
100
AcDbLine
 10
149.731200
 20
169.685059
 30
0.0
 11
149.731200
 21
165.685059
 31
0.0
  0
LINE
  5
157
100
AcDbEntity
  8
Cutouts_Track
 62
7
100
AcDbLine
 10
149.731200
 20
165.685059
 30
0.0
 11
134.731200
 21
165.685059
 31
0.0
  0
LINE
  5
158
100
AcDbEntity
  8
Cutouts_Track
 62
7
100
AcDbLine
 10
134.731200
 20
165.685059
 30
0.0
 11
134.731200
 21
169.685059
 31
0.0
  0
LINE
  5
159
100
AcDbEntity
  8
Cutouts_Track
 62
7
100
AcDbLine
 10
134.731200
 20
169.685059
 30
0.0
 11
149.731200
 21
169.685059
 31
0.0
  0
LINE
  5
15a
100
AcDbEntity
  8
Cutouts_Track
 62
7
100
AcDbLine
 10
174.801500
 20
169.685059
 30
0.0
 11
174.801500
 21
165.685059
 31
0.0
  0
LINE
  5
15b
100
AcDbEntity
  8
Cutouts_Track
 62
7
100
AcDbLine
 10
174.801500
 20
165.685059
 30
0.0
 11
159.801500
 21
165.685059
 31
0.0
  0
LINE
  5
15c
100
AcDbEntity
  8
Cutouts_Track
 62
7
100
AcDbLine
 10
159.801500
 20
165.685059
 30
0.0
 11
159.801500
 21
169.685059
 31
0.0
  0
LINE
  5
15d
100
AcDbEntity
  8
Cutouts_Track
 62
7
100
AcDbLine
 10
159.801500
 20
169.685059
 30
0.0
 11
174.801500
 21
169.685059
 31
0.0
  0
LINE
  5
15e
100
AcDbEntity
  8
Cutouts_Track
 62
7
100
AcDbLine
 10
175.234210
 20
115.685059
 30
0.0
 11
175.234210
 21
111.685059
 31
0.0
  0
LINE
  5
15f
100
AcDbEntity
  8
Cutouts_Track
 62
7
100
AcDbLine
 10
175.234210
 20
111.685059
 30
0.0
 11
160.234210
 21
111.685059
 31
0.0
  0
LINE
  5
160
100
AcDbEntity
  8
Cutouts_Track
 62
7
100
AcDbLine
 10
160.234210
 20
111.685059
 30
0.0
 11
160.234210
 21
115.685059
 31
0.0
  0
LINE
  5
161
100
AcDbEntity
  8
Cutouts_Track
 62
7
100
AcDbLine
 10
160.234210
 20
115.685059
 30
0.0
 11
175.234210
 21
115.685059
 31
0.0
  0
LINE
  5
162
100
AcDbEntity
  8
Cutouts_Track
 62
7
100
AcDbLine
 10
24.881897
 20
115.685059
 30
0.0
 11
24.881897
 21
111.685059
 31
0.0
  0
LINE
  5
163
100
AcDbEntity
  8
Cutouts_Track
 62
7
100
AcDbLine
 10
24.881897
 20
111.685059
 30
0.0
 11
9.881897
 21
111.685059
 31
0.0
  0
LINE
  5
164
100
AcDbEntity
  8
Cutouts_Track
 62
7
100
AcDbLine
 10
9.881897
 20
111.685059
 30
0.0
 11
9.881897
 21
115.685059
 31
0.0
  0
LINE
  5
165
100
AcDbEntity
  8
Cutouts_Track
 62
7
100
AcDbLine
 10
9.881897
 20
115.685059
 30
0.0
 11
24.881897
 21
115.685059
 31
0.0
  0
LINE
  5
166
100
AcDbEntity
  8
Cutouts_Track
 62
7
100
AcDbLine
 10
49.881897
 20
115.685059
 30
0.0
 11
49.881897
 21
111.685059
 31
0.0
  0
LINE
  5
167
100
AcDbEntity
  8
Cutouts_Track
 62
7
100
AcDbLine
 10
49.881897
 20
111.685059
 30
0.0
 11
34.881897
 21
111.685059
 31
0.0
  0
LINE
  5
168
100
AcDbEntity
  8
Cutouts_Track
 62
7
100
AcDbLine
 10
34.881897
 20
111.685059
 30
0.0
 11
34.881897
 21
115.685059
 31
0.0
  0
LINE
  5
169
100
AcDbEntity
  8
Cutouts_Track
 62
7
100
AcDbLine
 10
34.881897
 20
115.685059
 30
0.0
 11
49.881897
 21
115.685059
 31
0.0
  0
LINE
  5
16a
100
AcDbEntity
  8
Cutouts_Track
 62
7
100
AcDbLine
 10
74.881897
 20
115.685059
 30
0.0
 11
74.881897
 21
111.685059
 31
0.0
  0
LINE
  5
16b
100
AcDbEntity
  8
Cutouts_Track
 62
7
100
AcDbLine
 10
74.881897
 20
111.685059
 30
0.0
 11
59.881897
 21
111.685059
 31
0.0
  0
LINE
  5
16c
100
AcDbEntity
  8
Cutouts_Track
 62
7
100
AcDbLine
 10
59.881897
 20
111.685059
 30
0.0
 11
59.881897
 21
115.685059
 31
0.0
  0
LINE
  5
16d
100
AcDbEntity
  8
Cutouts_Track
 62
7
100
AcDbLine
 10
59.881897
 20
115.685059
 30
0.0
 11
74.881897
 21
115.685059
 31
0.0
  0
LINE
  5
16e
100
AcDbEntity
  8
Cutouts_Track
 62
7
100
AcDbLine
 10
99.944649
 20
115.685059
 30
0.0
 11
99.944649
 21
111.685059
 31
0.0
  0
LINE
  5
16f
100
AcDbEntity
  8
Cutouts_Track
 62
7
100
AcDbLine
 10
99.944649
 20
111.685059
 30
0.0
 11
84.944649
 21
111.685059
 31
0.0
  0
LINE
  5
170
100
AcDbEntity
  8
Cutouts_Track
 62
7
100
AcDbLine
 10
84.944649
 20
111.685059
 30
0.0
 11
84.944649
 21
115.685059
 31
0.0
  0
LINE
  5
171
100
AcDbEntity
  8
Cutouts_Track
 62
7
100
AcDbLine
 10
84.944649
 20
115.685059
 30
0.0
 11
99.944649
 21
115.685059
 31
0.0
  0
LINE
  5
172
100
AcDbEntity
  8
Cutouts_Track
 62
7
100
AcDbLine
 10
124.911950
 20
115.685059
 30
0.0
 11
124.911950
 21
111.685059
 31
0.0
  0
LINE
  5
173
100
AcDbEntity
  8
Cutouts_Track
 62
7
100
AcDbLine
 10
124.911950
 20
111.685059
 30
0.0
 11
109.911950
 21
111.685059
 31
0.0
  0
LINE
  5
174
100
AcDbEntity
  8
Cutouts_Track
 62
7
100
AcDbLine
 10
109.911950
 20
111.685059
 30
0.0
 11
109.911950
 21
115.685059
 31
0.0
  0
LINE
  5
175
100
AcDbEntity
  8
Cutouts_Track
 62
7
100
AcDbLine
 10
109.911950
 20
115.685059
 30
0.0
 11
124.911950
 21
115.685059
 31
0.0
  0
LINE
  5
176
100
AcDbEntity
  8
Cutouts_Track
 62
1
100
AcDbLine
 10
9.881897
 20
147.685060
 30
0.0
 11
9.881897
 21
133.685060
 31
0.0
  0
LINE
  5
177
100
AcDbEntity
  8
Cutouts_Track
 62
1
100
AcDbLine
 10
9.881897
 20
133.685060
 30
0.0
 11
14.881897
 21
139.685060
 31
0.0
  0
LINE
  5
178
100
AcDbEntity
  8
Cutouts_Track
 62
1
100
AcDbLine
 10
14.881897
 20
139.685060
 30
0.0
 11
14.881897
 21
141.685060
 31
0.0
  0
LINE
  5
179
100
AcDbEntity
  8
Cutouts_Track
 62
1
100
AcDbLine
 10
14.881897
 20
141.685060
 30
0.0
 11
9.881897
 21
147.685060
 31
0.0
  0
LINE
  5
17a
100
AcDbEntity
  8
Cutouts_Track
 62
7
100
AcDbLine
 10
150.027240
 20
115.685059
 30
0.0
 11
150.027240
 21
111.685059
 31
0.0
  0
LINE
  5
17b
100
AcDbEntity
  8
Cutouts_Track
 62
7
100
AcDbLine
 10
150.027240
 20
111.685059
 30
0.0
 11
135.027240
 21
111.685059
 31
0.0
  0
LINE
  5
17c
100
AcDbEntity
  8
Cutouts_Track
 62
7
100
AcDbLine
 10
135.027240
 20
111.685059
 30
0.0
 11
135.027240
 21
115.685059
 31
0.0
  0
LINE
  5
17d
100
AcDbEntity
  8
Cutouts_Track
 62
7
100
AcDbLine
 10
135.027240
 20
115.685059
 30
0.0
 11
150.027240
 21
115.685059
 31
0.0
  0
LINE
  5
17e
100
AcDbEntity
  8
Cutouts_Track
 62
7
100
AcDbLine
 10
104.380220
 20
64.003390
 30
0.0
 11
104.380220
 21
67.800570
 31
0.0
  0
LINE
  5
17f
100
AcDbEntity
  8
Cutouts_Track
 62
7
100
AcDbLine
 10
104.380220
 20
67.800570
 30
0.0
 11
104.111150
 21
67.800570
 31
0.0
  0
SPLINE
  5
180
100
AcDbEntity
  8
Cutouts_Track
 62
7
100
AcDbSpline
 70
8
 71
3
 72
8
 73
4
 74
0
 40
0
 40
0
 40
0
 40
0
 40
1
 40
1
 40
1
 40
1
 10
104.111150
 20
67.800570
 30
0.0
 10
104.035363
 20
67.800570
 30
0.0
 10
103.981047
 20
67.814470
 30
0.0
 10
103.948200
 20
67.842270
 30
0.0
  0
SPLINE
  5
181
100
AcDbEntity
  8
Cutouts_Track
 62
7
100
AcDbSpline
 70
8
 71
3
 72
8
 73
4
 74
0
 40
0
 40
0
 40
0
 40
0
 40
1
 40
1
 40
1
 40
1
 10
103.948200
 20
67.842270
 30
0.0
 10
103.915333
 20
67.872603
 30
0.0
 10
103.898900
 20
67.911763
 30
0.0
 10
103.898900
 20
67.959750
 30
0.0
  0
SPLINE
  5
182
100
AcDbEntity
  8
Cutouts_Track
 62
7
100
AcDbSpline
 70
8
 71
3
 72
8
 73
4
 74
0
 40
0
 40
0
 40
0
 40
0
 40
1
 40
1
 40
1
 40
1
 10
103.898900
 20
67.959750
 30
0.0
 10
103.898900
 20
68.007750
 30
0.0
 10
103.915333
 20
68.045647
 30
0.0
 10
103.948200
 20
68.073440
 30
0.0
  0
SPLINE
  5
183
100
AcDbEntity
  8
Cutouts_Track
 62
7
100
AcDbSpline
 70
8
 71
3
 72
8
 73
4
 74
0
 40
0
 40
0
 40
0
 40
0
 40
1
 40
1
 40
1
 40
1
 10
103.948200
 20
68.073440
 30
0.0
 10
103.981067
 20
68.103773
 30
0.0
 10
104.035383
 20
68.118940
 30
0.0
 10
104.111150
 20
68.118940
 30
0.0
  0
LINE
  5
184
100
AcDbEntity
  8
Cutouts_Track
 62
7
100
AcDbLine
 10
104.111150
 20
68.118940
 30
0.0
 11
105.824060
 21
68.118940
 31
0.0
  0
SPLINE
  5
185
100
AcDbEntity
  8
Cutouts_Track
 62
7
100
AcDbSpline
 70
8
 71
3
 72
8
 73
4
 74
0
 40
0
 40
0
 40
0
 40
0
 40
1
 40
1
 40
1
 40
1
 10
105.824060
 20
68.118940
 30
0.0
 10
106.091853
 20
68.118940
 30
0.0
 10
106.335650
 20
68.063357
 30
0.0
 10
106.555450
 20
67.952190
 30
0.0
  0
SPLINE
  5
186
100
AcDbEntity
  8
Cutouts_Track
 62
7
100
AcDbSpline
 70
8
 71
3
 72
8
 73
4
 74
0
 40
0
 40
0
 40
0
 40
0
 40
1
 40
1
 40
1
 40
1
 10
106.555450
 20
67.952190
 30
0.0
 10
106.777777
 20
67.841030
 30
0.0
 10
106.947047
 20
67.714710
 30
0.0
 10
107.063260
 20
67.573230
 30
0.0
  0
SPLINE
  5
187
100
AcDbEntity
  8
Cutouts_Track
 62
7
100
AcDbSpline
 70
8
 71
3
 72
8
 73
4
 74
0
 40
0
 40
0
 40
0
 40
0
 40
1
 40
1
 40
1
 40
1
 10
107.063260
 20
67.573230
 30
0.0
 10
107.262847
 20
67.333223
 30
0.0
 10
107.414430
 20
67.079320
 30
0.0
 10
107.518010
 20
66.811520
 30
0.0
  0
SPLINE
  5
188
100
AcDbEntity
  8
Cutouts_Track
 62
7
100
AcDbSpline
 70
8
 71
3
 72
8
 73
4
 74
0
 40
0
 40
0
 40
0
 40
0
 40
1
 40
1
 40
1
 40
1
 10
107.518010
 20
66.811520
 30
0.0
 10
107.591277
 20
66.616987
 30
0.0
 10
107.627910
 20
66.387083
 30
0.0
 10
107.627910
 20
66.121810
 30
0.0
  0
LINE
  5
189
100
AcDbEntity
  8
Cutouts_Track
 62
7
100
AcDbLine
 10
107.627910
 20
66.121810
 30
0.0
 11
107.627910
 21
65.682220
 31
0.0
  0
SPLINE
  5
18a
100
AcDbEntity
  8
Cutouts_Track
 62
7
100
AcDbSpline
 70
8
 71
3
 72
8
 73
4
 74
0
 40
0
 40
0
 40
0
 40
0
 40
1
 40
1
 40
1
 40
1
 10
107.627910
 20
65.682220
 30
0.0
 10
107.627910
 20
65.356313
 30
0.0
 10
107.555907
 20
65.040513
 30
0.0
 10
107.411900
 20
64.734820
 30
0.0
  0
SPLINE
  5
18b
100
AcDbEntity
  8
Cutouts_Track
 62
7
100
AcDbSpline
 70
8
 71
3
 72
8
 73
4
 74
0
 40
0
 40
0
 40
0
 40
0
 40
1
 40
1
 40
1
 40
1
 10
107.411900
 20
64.734820
 30
0.0
 10
107.267893
 20
64.429127
 30
0.0
 10
107.027887
 20
64.162590
 30
0.0
 10
106.691880
 20
63.935210
 30
0.0
  0
SPLINE
  5
18c
100
AcDbEntity
  8
Cutouts_Track
 62
7
100
AcDbSpline
 70
8
 71
3
 72
8
 73
4
 74
0
 40
0
 40
0
 40
0
 40
0
 40
1
 40
1
 40
1
 40
1
 10
106.691880
 20
63.935210
 30
0.0
 10
106.441760
 20
63.768470
 30
0.0
 10
106.152487
 20
63.685100
 30
0.0
 10
105.824060
 20
63.685100
 30
0.0
  0
LINE
  5
18d
100
AcDbEntity
  8
Cutouts_Track
 62
7
100
AcDbLine
 10
105.824060
 20
63.685100
 30
0.0
 11
104.111150
 21
63.685100
 31
0.0
  0
SPLINE
  5
18e
100
AcDbEntity
  8
Cutouts_Track
 62
7
100
AcDbSpline
 70
8
 71
3
 72
8
 73
4
 74
0
 40
0
 40
0
 40
0
 40
0
 40
1
 40
1
 40
1
 40
1
 10
104.111150
 20
63.685100
 30
0.0
 10
104.035363
 20
63.685100
 30
0.0
 10
103.981047
 20
63.700267
 30
0.0
 10
103.948200
 20
63.730600
 30
0.0
  0
SPLINE
  5
18f
100
AcDbEntity
  8
Cutouts_Track
 62
7
100
AcDbSpline
 70
8
 71
3
 72
8
 73
4
 74
0
 40
0
 40
0
 40
0
 40
0
 40
1
 40
1
 40
1
 40
1
 10
103.948200
 20
63.730600
 30
0.0
 10
103.915333
 20
63.760933
 30
0.0
 10
103.898900
 20
63.798830
 30
0.0
 10
103.898900
 20
63.844290
 30
0.0
  0
SPLINE
  5
190
100
AcDbEntity
  8
Cutouts_Track
 62
7
100
AcDbSpline
 70
8
 71
3
 72
8
 73
4
 74
0
 40
0
 40
0
 40
0
 40
0
 40
1
 40
1
 40
1
 40
1
 10
103.898900
 20
63.844290
 30
0.0
 10
103.898900
 20
63.892290
 30
0.0
 10
103.915333
 20
63.930187
 30
0.0
 10
103.948200
 20
63.957980
 30
0.0
  0
SPLINE
  5
191
100
AcDbEntity
  8
Cutouts_Track
 62
7
100
AcDbSpline
 70
8
 71
3
 72
8
 73
4
 74
0
 40
0
 40
0
 40
0
 40
0
 40
1
 40
1
 40
1
 40
1
 10
103.948200
 20
63.957980
 30
0.0
 10
103.981067
 20
63.988313
 30
0.0
 10
104.035383
 20
64.003480
 30
0.0
 10
104.111150
 20
64.003480
 30
0.0
  0
LINE
  5
192
100
AcDbEntity
  8
Cutouts_Track
 62
7
100
AcDbLine
 10
104.111150
 20
64.003480
 30
0.0
 11
104.380220
 21
64.003390
 31
0.0
  0
LINE
  5
193
100
AcDbEntity
  8
Cutouts_Track
 62
7
100
AcDbLine
 10
104.698540
 20
64.003390
 30
0.0
 11
105.854370
 21
64.003390
 31
0.0
  0
SPLINE
  5
194
100
AcDbEntity
  8
Cutouts_Track
 62
7
100
AcDbSpline
 70
8
 71
3
 72
8
 73
4
 74
0
 40
0
 40
0
 40
0
 40
0
 40
1
 40
1
 40
1
 40
1
 10
105.854370
 20
64.003390
 30
0.0
 10
106.122170
 20
64.003390
 30
0.0
 10
106.372283
 20
64.090550
 30
0.0
 10
106.604710
 20
64.264870
 30
0.0
  0
SPLINE
  5
195
100
AcDbEntity
  8
Cutouts_Track
 62
7
100
AcDbSpline
 70
8
 71
3
 72
8
 73
4
 74
0
 40
0
 40
0
 40
0
 40
0
 40
1
 40
1
 40
1
 40
1
 10
106.604710
 20
64.264870
 30
0.0
 10
106.839670
 20
64.439190
 30
0.0
 10
107.015257
 20
64.647617
 30
0.0
 10
107.131470
 20
64.890150
 30
0.0
  0
SPLINE
  5
196
100
AcDbEntity
  8
Cutouts_Track
 62
7
100
AcDbSpline
 70
8
 71
3
 72
8
 73
4
 74
0
 40
0
 40
0
 40
0
 40
0
 40
1
 40
1
 40
1
 40
1
 10
107.131470
 20
64.890150
 30
0.0
 10
107.250210
 20
65.135210
 30
0.0
 10
107.309580
 20
65.376483
 30
0.0
 10
107.309580
 20
65.613970
 30
0.0
  0
LINE
  5
197
100
AcDbEntity
  8
Cutouts_Track
 62
7
100
AcDbLine
 10
107.309580
 20
65.613970
 30
0.0
 11
107.309580
 21
66.189990
 31
0.0
  0
SPLINE
  5
198
100
AcDbEntity
  8
Cutouts_Track
 62
7
100
AcDbSpline
 70
8
 71
3
 72
8
 73
4
 74
0
 40
0
 40
0
 40
0
 40
0
 40
1
 40
1
 40
1
 40
1
 10
107.309580
 20
66.189990
 30
0.0
 10
107.309580
 20
66.387050
 30
0.0
 10
107.278013
 20
66.562633
 30
0.0
 10
107.214880
 20
66.716740
 30
0.0
  0
SPLINE
  5
199
100
AcDbEntity
  8
Cutouts_Track
 62
7
100
AcDbSpline
 70
8
 71
3
 72
8
 73
4
 74
0
 40
0
 40
0
 40
0
 40
0
 40
1
 40
1
 40
1
 40
1
 10
107.214880
 20
66.716740
 30
0.0
 10
107.123933
 20
66.941593
 30
0.0
 10
106.995087
 20
67.155077
 30
0.0
 10
106.828340
 20
67.357190
 30
0.0
  0
SPLINE
  5
19a
100
AcDbEntity
  8
Cutouts_Track
 62
7
100
AcDbSpline
 70
8
 71
3
 72
8
 73
4
 74
0
 40
0
 40
0
 40
0
 40
0
 40
1
 40
1
 40
1
 40
1
 10
106.828340
 20
67.357190
 30
0.0
 10
106.737393
 20
67.468350
 30
0.0
 10
106.603493
 20
67.569403
 30
0.0
 10
106.426640
 20
67.660350
 30
0.0
  0
SPLINE
  5
19b
100
AcDbEntity
  8
Cutouts_Track
 62
7
100
AcDbSpline
 70
8
 71
3
 72
8
 73
4
 74
0
 40
0
 40
0
 40
0
 40
0
 40
1
 40
1
 40
1
 40
1
 10
106.426640
 20
67.660350
 30
0.0
 10
106.249793
 20
67.753830
 30
0.0
 10
106.059050
 20
67.800570
 30
0.0
 10
105.854410
 20
67.800570
 30
0.0
  0
LINE
  5
19c
100
AcDbEntity
  8
Cutouts_Track
 62
7
100
AcDbLine
 10
105.854410
 20
67.800570
 30
0.0
 11
104.698580
 21
67.800570
 31
0.0
  0
LINE
  5
19d
100
AcDbEntity
  8
Cutouts_Track
 62
7
100
AcDbLine
 10
104.698580
 20
67.800570
 30
0.0
 11
104.698540
 21
64.003390
 31
0.0
  0
LINE
  5
19e
100
AcDbEntity
  8
Cutouts_Track
 62
7
100
AcDbLine
 10
112.016270
 20
65.329750
 30
0.0
 11
112.016270
 21
63.965490
 31
0.0
  0
SPLINE
  5
19f
100
AcDbEntity
  8
Cutouts_Track
 62
7
100
AcDbSpline
 70
8
 71
3
 72
8
 73
4
 74
0
 40
0
 40
0
 40
0
 40
0
 40
1
 40
1
 40
1
 40
1
 10
112.016270
 20
63.965490
 30
0.0
 10
111.773737
 20
63.831590
 30
0.0
 10
111.531203
 20
63.730533
 30
0.0
 10
111.288670
 20
63.662320
 30
0.0
  0
SPLINE
  5
1a0
100
AcDbEntity
  8
Cutouts_Track
 62
7
100
AcDbSpline
 70
8
 71
3
 72
8
 73
4
 74
0
 40
0
 40
0
 40
0
 40
0
 40
1
 40
1
 40
1
 40
1
 10
111.288670
 20
63.662320
 30
0.0
 10
111.048657
 20
63.594107
 30
0.0
 10
110.808647
 20
63.560000
 30
0.0
 10
110.568640
 20
63.560000
 30
0.0
  0
SPLINE
  5
1a1
100
AcDbEntity
  8
Cutouts_Track
 62
7
100
AcDbSpline
 70
8
 71
3
 72
8
 73
4
 74
0
 40
0
 40
0
 40
0
 40
0
 40
1
 40
1
 40
1
 40
1
 10
110.568640
 20
63.560000
 30
0.0
 10
110.227573
 20
63.560000
 30
0.0
 10
109.926933
 20
63.610530
 30
0.0
 10
109.666720
 20
63.711590
 30
0.0
  0
SPLINE
  5
1a2
100
AcDbEntity
  8
Cutouts_Track
 62
7
100
AcDbSpline
 70
8
 71
3
 72
8
 73
4
 74
0
 40
0
 40
0
 40
0
 40
0
 40
1
 40
1
 40
1
 40
1
 10
109.666720
 20
63.711590
 30
0.0
 10
109.409027
 20
63.812643
 30
0.0
 10
109.190490
 20
63.954120
 30
0.0
 10
109.011110
 20
64.136020
 30
0.0
  0
SPLINE
  5
1a3
100
AcDbEntity
  8
Cutouts_Track
 62
7
100
AcDbSpline
 70
8
 71
3
 72
8
 73
4
 74
0
 40
0
 40
0
 40
0
 40
0
 40
1
 40
1
 40
1
 40
1
 10
109.011110
 20
64.136020
 30
0.0
 10
108.831737
 20
64.317920
 30
0.0
 10
108.691523
 20
64.521297
 30
0.0
 10
108.590470
 20
64.746150
 30
0.0
  0
SPLINE
  5
1a4
100
AcDbEntity
  8
Cutouts_Track
 62
7
100
AcDbSpline
 70
8
 71
3
 72
8
 73
4
 74
0
 40
0
 40
0
 40
0
 40
0
 40
1
 40
1
 40
1
 40
1
 10
108.590470
 20
64.746150
 30
0.0
 10
108.491937
 20
64.970997
 30
0.0
 10
108.442670
 20
65.256480
 30
0.0
 10
108.442670
 20
65.602600
 30
0.0
  0
LINE
  5
1a5
100
AcDbEntity
  8
Cutouts_Track
 62
7
100
AcDbLine
 10
108.442670
 20
65.602600
 30
0.0
 11
108.442670
 21
66.186200
 31
0.0
  0
SPLINE
  5
1a6
100
AcDbEntity
  8
Cutouts_Track
 62
7
100
AcDbSpline
 70
8
 71
3
 72
8
 73
4
 74
0
 40
0
 40
0
 40
0
 40
0
 40
1
 40
1
 40
1
 40
1
 10
108.442670
 20
66.186200
 30
0.0
 10
108.442670
 20
66.534840
 30
0.0
 10
108.528570
 20
66.873377
 30
0.0
 10
108.700370
 20
67.201810
 30
0.0
  0
SPLINE
  5
1a7
100
AcDbEntity
  8
Cutouts_Track
 62
7
100
AcDbSpline
 70
8
 71
3
 72
8
 73
4
 74
0
 40
0
 40
0
 40
0
 40
0
 40
1
 40
1
 40
1
 40
1
 10
108.700370
 20
67.201810
 30
0.0
 10
108.874690
 20
67.532770
 30
0.0
 10
109.112170
 20
67.785410
 30
0.0
 10
109.412810
 20
67.959730
 30
0.0
  0
SPLINE
  5
1a8
100
AcDbEntity
  8
Cutouts_Track
 62
7
100
AcDbSpline
 70
8
 71
3
 72
8
 73
4
 74
0
 40
0
 40
0
 40
0
 40
0
 40
1
 40
1
 40
1
 40
1
 10
109.412810
 20
67.959730
 30
0.0
 10
109.713450
 20
68.134057
 30
0.0
 10
110.040620
 20
68.221220
 30
0.0
 10
110.394320
 20
68.221220
 30
0.0
  0
SPLINE
  5
1a9
100
AcDbEntity
  8
Cutouts_Track
 62
7
100
AcDbSpline
 70
8
 71
3
 72
8
 73
4
 74
0
 40
0
 40
0
 40
0
 40
0
 40
1
 40
1
 40
1
 40
1
 10
110.394320
 20
68.221220
 30
0.0
 10
110.907180
 20
68.221220
 30
0.0
 10
111.340457
 20
68.081003
 30
0.0
 10
111.694150
 20
67.800570
 30
0.0
  0
SPLINE
  5
1aa
100
AcDbEntity
  8
Cutouts_Track
 62
7
100
AcDbSpline
 70
8
 71
3
 72
8
 73
4
 74
0
 40
0
 40
0
 40
0
 40
0
 40
1
 40
1
 40
1
 40
1
 10
111.694150
 20
67.800570
 30
0.0
 10
111.694150
 20
67.924363
 30
0.0
 10
111.697950
 20
67.998893
 30
0.0
 10
111.705550
 20
68.024160
 30
0.0
  0
SPLINE
  5
1ab
100
AcDbEntity
  8
Cutouts_Track
 62
7
100
AcDbSpline
 70
8
 71
3
 72
8
 73
4
 74
0
 40
0
 40
0
 40
0
 40
0
 40
1
 40
1
 40
1
 40
1
 10
111.705550
 20
68.024160
 30
0.0
 10
111.715683
 20
68.049427
 30
0.0
 10
111.734617
 20
68.070893
 30
0.0
 10
111.762350
 20
68.088560
 30
0.0
  0
SPLINE
  5
1ac
100
AcDbEntity
  8
Cutouts_Track
 62
7
100
AcDbSpline
 70
8
 71
3
 72
8
 73
4
 74
0
 40
0
 40
0
 40
0
 40
0
 40
1
 40
1
 40
1
 40
1
 10
111.762350
 20
68.088560
 30
0.0
 10
111.790150
 20
68.108760
 30
0.0
 10
111.821717
 20
68.118860
 30
0.0
 10
111.857050
 20
68.118860
 30
0.0
  0
SPLINE
  5
1ad
100
AcDbEntity
  8
Cutouts_Track
 62
7
100
AcDbSpline
 70
8
 71
3
 72
8
 73
4
 74
0
 40
0
 40
0
 40
0
 40
0
 40
1
 40
1
 40
1
 40
1
 10
111.857050
 20
68.118860
 30
0.0
 10
111.902517
 20
68.118860
 30
0.0
 10
111.940410
 20
68.102427
 30
0.0
 10
111.970730
 20
68.069560
 30
0.0
  0
SPLINE
  5
1ae
100
AcDbEntity
  8
Cutouts_Track
 62
7
100
AcDbSpline
 70
8
 71
3
 72
8
 73
4
 74
0
 40
0
 40
0
 40
0
 40
0
 40
1
 40
1
 40
1
 40
1
 10
111.970730
 20
68.069560
 30
0.0
 10
112.001063
 20
68.036693
 30
0.0
 10
112.016230
 20
67.982377
 30
0.0
 10
112.016230
 20
67.906610
 30
0.0
  0
LINE
  5
1af
100
AcDbEntity
  8
Cutouts_Track
 62
7
100
AcDbLine
 10
112.016230
 20
67.906610
 30
0.0
 11
112.016230
 21
67.186580
 31
0.0
  0
SPLINE
  5
1b0
100
AcDbEntity
  8
Cutouts_Track
 62
7
100
AcDbSpline
 70
8
 71
3
 72
8
 73
4
 74
0
 40
0
 40
0
 40
0
 40
0
 40
1
 40
1
 40
1
 40
1
 10
112.016230
 20
67.186580
 30
0.0
 10
112.016230
 20
67.108267
 30
0.0
 10
112.001063
 20
67.052687
 30
0.0
 10
111.970730
 20
67.019840
 30
0.0
  0
SPLINE
  5
1b1
100
AcDbEntity
  8
Cutouts_Track
 62
7
100
AcDbSpline
 70
8
 71
3
 72
8
 73
4
 74
0
 40
0
 40
0
 40
0
 40
0
 40
1
 40
1
 40
1
 40
1
 10
111.970730
 20
67.019840
 30
0.0
 10
111.940397
 20
66.989507
 30
0.0
 10
111.902503
 20
66.974340
 30
0.0
 10
111.857050
 20
66.974340
 30
0.0
  0
SPLINE
  5
1b2
100
AcDbEntity
  8
Cutouts_Track
 62
7
100
AcDbSpline
 70
8
 71
3
 72
8
 73
4
 74
0
 40
0
 40
0
 40
0
 40
0
 40
1
 40
1
 40
1
 40
1
 10
111.857050
 20
66.974340
 30
0.0
 10
111.814117
 20
66.974340
 30
0.0
 10
111.777483
 20
66.988240
 30
0.0
 10
111.747150
 20
67.016040
 30
0.0
  0
SPLINE
  5
1b3
100
AcDbEntity
  8
Cutouts_Track
 62
7
100
AcDbSpline
 70
8
 71
3
 72
8
 73
4
 74
0
 40
0
 40
0
 40
0
 40
0
 40
1
 40
1
 40
1
 40
1
 10
111.747150
 20
67.016040
 30
0.0
 10
111.719350
 20
67.046373
 30
0.0
 10
111.704183
 20
67.098163
 30
0.0
 10
111.701650
 20
67.171410
 30
0.0
  0
SPLINE
  5
1b4
100
AcDbEntity
  8
Cutouts_Track
 62
7
100
AcDbSpline
 70
8
 71
3
 72
8
 73
4
 74
0
 40
0
 40
0
 40
0
 40
0
 40
1
 40
1
 40
1
 40
1
 10
111.701650
 20
67.171410
 30
0.0
 10
111.686517
 20
67.386157
 30
0.0
 10
111.546303
 20
67.561743
 30
0.0
 10
111.281010
 20
67.698170
 30
0.0
  0
SPLINE
  5
1b5
100
AcDbEntity
  8
Cutouts_Track
 62
7
100
AcDbSpline
 70
8
 71
3
 72
8
 73
4
 74
0
 40
0
 40
0
 40
0
 40
0
 40
1
 40
1
 40
1
 40
1
 10
111.281010
 20
67.698170
 30
0.0
 10
111.018263
 20
67.834597
 30
0.0
 10
110.731517
 20
67.902810
 30
0.0
 10
110.420770
 20
67.902810
 30
0.0
  0
SPLINE
  5
1b6
100
AcDbEntity
  8
Cutouts_Track
 62
7
100
AcDbSpline
 70
8
 71
3
 72
8
 73
4
 74
0
 40
0
 40
0
 40
0
 40
0
 40
1
 40
1
 40
1
 40
1
 10
110.420770
 20
67.902810
 30
0.0
 10
110.127703
 20
67.902810
 30
0.0
 10
109.862430
 20
67.838387
 30
0.0
 10
109.624950
 20
67.709540
 30
0.0
  0
SPLINE
  5
1b7
100
AcDbEntity
  8
Cutouts_Track
 62
7
100
AcDbSpline
 70
8
 71
3
 72
8
 73
4
 74
0
 40
0
 40
0
 40
0
 40
0
 40
1
 40
1
 40
1
 40
1
 10
109.624950
 20
67.709540
 30
0.0
 10
109.389997
 20
67.583220
 30
0.0
 10
109.170200
 20
67.340683
 30
0.0
 10
108.965560
 20
66.981930
 30
0.0
  0
SPLINE
  5
1b8
100
AcDbEntity
  8
Cutouts_Track
 62
7
100
AcDbSpline
 70
8
 71
3
 72
8
 73
4
 74
0
 40
0
 40
0
 40
0
 40
0
 40
1
 40
1
 40
1
 40
1
 10
108.965560
 20
66.981930
 30
0.0
 10
108.829133
 20
66.746977
 30
0.0
 10
108.760920
 20
66.480443
 30
0.0
 10
108.760920
 20
66.182330
 30
0.0
  0
LINE
  5
1b9
100
AcDbEntity
  8
Cutouts_Track
 62
7
100
AcDbLine
 10
108.760920
 20
66.182330
 30
0.0
 11
108.760920
 21
65.602520
 31
0.0
  0
SPLINE
  5
1ba
100
AcDbEntity
  8
Cutouts_Track
 62
7
100
AcDbSpline
 70
8
 71
3
 72
8
 73
4
 74
0
 40
0
 40
0
 40
0
 40
0
 40
1
 40
1
 40
1
 40
1
 10
108.760920
 20
65.602520
 30
0.0
 10
108.760920
 20
65.074500
 30
0.0
 10
108.922610
 20
64.655117
 30
0.0
 10
109.245990
 20
64.344370
 30
0.0
  0
SPLINE
  5
1bb
100
AcDbEntity
  8
Cutouts_Track
 62
7
100
AcDbSpline
 70
8
 71
3
 72
8
 73
4
 74
0
 40
0
 40
0
 40
0
 40
0
 40
1
 40
1
 40
1
 40
1
 10
109.245990
 20
64.344370
 30
0.0
 10
109.569370
 20
64.033623
 30
0.0
 10
110.015280
 20
63.878250
 30
0.0
 10
110.583720
 20
63.878250
 30
0.0
  0
SPLINE
  5
1bc
100
AcDbEntity
  8
Cutouts_Track
 62
7
100
AcDbSpline
 70
8
 71
3
 72
8
 73
4
 74
0
 40
0
 40
0
 40
0
 40
0
 40
1
 40
1
 40
1
 40
1
 10
110.583720
 20
63.878250
 30
0.0
 10
110.775727
 20
63.878250
 30
0.0
 10
110.953837
 20
63.898450
 30
0.0
 10
111.118050
 20
63.938850
 30
0.0
  0
SPLINE
  5
1bd
100
AcDbEntity
  8
Cutouts_Track
 62
7
100
AcDbSpline
 70
8
 71
3
 72
8
 73
4
 74
0
 40
0
 40
0
 40
0
 40
0
 40
1
 40
1
 40
1
 40
1
 10
111.118050
 20
63.938850
 30
0.0
 10
111.282270
 20
63.979250
 30
0.0
 10
111.474277
 20
64.049990
 30
0.0
 10
111.694070
 20
64.151070
 30
0.0
  0
LINE
  5
1be
100
AcDbEntity
  8
Cutouts_Track
 62
7
100
AcDbLine
 10
111.694070
 20
64.151070
 30
0.0
 11
111.694070
 21
65.329640
 31
0.0
  0
LINE
  5
1bf
100
AcDbEntity
  8
Cutouts_Track
 62
7
100
AcDbLine
 10
111.694070
 20
65.329640
 30
0.0
 11
110.598880
 21
65.329640
 31
0.0
  0
SPLINE
  5
1c0
100
AcDbEntity
  8
Cutouts_Track
 62
7
100
AcDbSpline
 70
8
 71
3
 72
8
 73
4
 74
0
 40
0
 40
0
 40
0
 40
0
 40
1
 40
1
 40
1
 40
1
 10
110.598880
 20
65.329640
 30
0.0
 10
110.523087
 20
65.329640
 30
0.0
 10
110.468767
 20
65.343540
 30
0.0
 10
110.435920
 20
65.371340
 30
0.0
  0
SPLINE
  5
1c1
100
AcDbEntity
  8
Cutouts_Track
 62
7
100
AcDbSpline
 70
8
 71
3
 72
8
 73
4
 74
0
 40
0
 40
0
 40
0
 40
0
 40
1
 40
1
 40
1
 40
1
 10
110.435920
 20
65.371340
 30
0.0
 10
110.403053
 20
65.401673
 30
0.0
 10
110.386620
 20
65.440833
 30
0.0
 10
110.386620
 20
65.488820
 30
0.0
  0
SPLINE
  5
1c2
100
AcDbEntity
  8
Cutouts_Track
 62
7
100
AcDbSpline
 70
8
 71
3
 72
8
 73
4
 74
0
 40
0
 40
0
 40
0
 40
0
 40
1
 40
1
 40
1
 40
1
 10
110.386620
 20
65.488820
 30
0.0
 10
110.386620
 20
65.536820
 30
0.0
 10
110.403053
 20
65.575980
 30
0.0
 10
110.435920
 20
65.606300
 30
0.0
  0
SPLINE
  5
1c3
100
AcDbEntity
  8
Cutouts_Track
 62
7
100
AcDbSpline
 70
8
 71
3
 72
8
 73
4
 74
0
 40
0
 40
0
 40
0
 40
0
 40
1
 40
1
 40
1
 40
1
 10
110.435920
 20
65.606300
 30
0.0
 10
110.468787
 20
65.636633
 30
0.0
 10
110.523107
 20
65.651800
 30
0.0
 10
110.598880
 20
65.651800
 30
0.0
  0
LINE
  5
1c4
100
AcDbEntity
  8
Cutouts_Track
 62
7
100
AcDbLine
 10
110.598880
 20
65.651800
 30
0.0
 11
112.129880
 21
65.647800
 31
0.0
  0
SPLINE
  5
1c5
100
AcDbEntity
  8
Cutouts_Track
 62
7
100
AcDbSpline
 70
8
 71
3
 72
8
 73
4
 74
0
 40
0
 40
0
 40
0
 40
0
 40
1
 40
1
 40
1
 40
1
 10
112.129880
 20
65.647800
 30
0.0
 10
112.205673
 20
65.647800
 30
0.0
 10
112.259990
 20
65.632633
 30
0.0
 10
112.292830
 20
65.602300
 30
0.0
  0
SPLINE
  5
1c6
100
AcDbEntity
  8
Cutouts_Track
 62
7
100
AcDbSpline
 70
8
 71
3
 72
8
 73
4
 74
0
 40
0
 40
0
 40
0
 40
0
 40
1
 40
1
 40
1
 40
1
 10
112.292830
 20
65.602300
 30
0.0
 10
112.325697
 20
65.574500
 30
0.0
 10
112.342130
 20
65.536603
 30
0.0
 10
112.342130
 20
65.488610
 30
0.0
  0
SPLINE
  5
1c7
100
AcDbEntity
  8
Cutouts_Track
 62
7
100
AcDbSpline
 70
8
 71
3
 72
8
 73
4
 74
0
 40
0
 40
0
 40
0
 40
0
 40
1
 40
1
 40
1
 40
1
 10
112.342130
 20
65.488610
 30
0.0
 10
112.342130
 20
65.455743
 30
0.0
 10
112.332030
 20
65.425410
 30
0.0
 10
112.311830
 20
65.397610
 30
0.0
  0
SPLINE
  5
1c8
100
AcDbEntity
  8
Cutouts_Track
 62
7
100
AcDbSpline
 70
8
 71
3
 72
8
 73
4
 74
0
 40
0
 40
0
 40
0
 40
0
 40
1
 40
1
 40
1
 40
1
 10
112.311830
 20
65.397610
 30
0.0
 10
112.291630
 20
65.369810
 30
0.0
 10
112.268897
 20
65.350877
 30
0.0
 10
112.243630
 20
65.340810
 30
0.0
  0
SPLINE
  5
1c9
100
AcDbEntity
  8
Cutouts_Track
 62
7
100
AcDbSpline
 70
8
 71
3
 72
8
 73
4
 74
0
 40
0
 40
0
 40
0
 40
0
 40
1
 40
1
 40
1
 40
1
 10
112.243630
 20
65.340810
 30
0.0
 10
112.218363
 20
65.333210
 30
0.0
 10
112.142570
 20
65.329410
 30
0.0
 10
112.016250
 20
65.329410
 30
0.0
  0
LINE
  5
1ca
100
AcDbEntity
  8
Cutouts_Track
 62
7
100
AcDbLine
 10
112.016250
 20
65.329410
 30
0.0
 11
112.016270
 21
65.329750
 31
0.0
  0
SPLINE
  5
1cb
100
AcDbEntity
  8
Engraving
 62
7
100
AcDbSpline
 70
8
 71
3
 72
8
 73
4
 74
0
 40
0
 40
0
 40
0
 40
0
 40
1
 40
1
 40
1
 40
1
 10
67.900543
 20
127.866581
 30
0.0
 10
66.727073
 20
128.003447
 30
0.0
 10
64.933400
 20
128.586049
 30
0.0
 10
63.891345
 20
129.168797
 30
0.0
  0
SPLINE
  5
1cc
100
AcDbEntity
  8
Engraving
 62
7
100
AcDbSpline
 70
8
 71
3
 72
8
 73
4
 74
0
 40
0
 40
0
 40
0
 40
0
 40
1
 40
1
 40
1
 40
1
 10
63.891345
 20
129.168797
 30
0.0
 10
63.095064
 20
129.614102
 30
0.0
 10
61.663016
 20
130.885853
 30
0.0
 10
61.285708
 20
131.482780
 30
0.0
  0
LINE
  5
1cd
100
AcDbEntity
  8
Engraving
 62
7
100
AcDbLine
 10
61.285708
 20
131.482780
 30
0.0
 11
61.105520
 21
131.767839
 31
0.0
  0
LINE
  5
1ce
100
AcDbEntity
  8
Engraving
 62
7
100
AcDbLine
 10
61.105520
 20
131.767839
 30
0.0
 11
60.096429
 21
131.358492
 31
0.0
  0
SPLINE
  5
1cf
100
AcDbEntity
  8
Engraving
 62
7
100
AcDbSpline
 70
8
 71
3
 72
8
 73
4
 74
0
 40
0
 40
0
 40
0
 40
0
 40
1
 40
1
 40
1
 40
1
 10
60.096429
 20
131.358492
 30
0.0
 10
59.129444
 20
130.966237
 30
0.0
 10
59.016276
 20
130.949244
 30
0.0
 10
57.384497
 20
130.951385
 30
0.0
  0
SPLINE
  5
1d0
100
AcDbEntity
  8
Engraving
 62
7
100
AcDbSpline
 70
8
 71
3
 72
8
 73
4
 74
0
 40
0
 40
0
 40
0
 40
0
 40
1
 40
1
 40
1
 40
1
 10
57.384497
 20
130.951385
 30
0.0
 10
55.427341
 20
130.953785
 30
0.0
 10
54.806052
 20
131.130338
 30
0.0
 10
53.425956
 20
132.075186
 30
0.0
  0
LINE
  5
1d1
100
AcDbEntity
  8
Engraving
 62
7
100
AcDbLine
 10
53.425956
 20
132.075186
 30
0.0
 11
52.644040
 21
132.610504
 31
0.0
  0
LINE
  5
1d2
100
AcDbEntity
  8
Engraving
 62
7
100
AcDbLine
 10
52.644040
 20
132.610504
 30
0.0
 11
52.161111
 21
132.193046
 31
0.0
  0
SPLINE
  5
1d3
100
AcDbEntity
  8
Engraving
 62
7
100
AcDbSpline
 70
8
 71
3
 72
8
 73
4
 74
0
 40
0
 40
0
 40
0
 40
0
 40
1
 40
1
 40
1
 40
1
 10
52.161111
 20
132.193046
 30
0.0
 10
51.479530
 20
131.603865
 30
0.0
 10
50.608142
 20
131.341446
 30
0.0
 10
49.578696
 20
131.415349
 30
0.0
  0
SPLINE
  5
1d4
100
AcDbEntity
  8
Engraving
 62
7
100
AcDbSpline
 70
8
 71
3
 72
8
 73
4
 74
0
 40
0
 40
0
 40
0
 40
0
 40
1
 40
1
 40
1
 40
1
 10
49.578696
 20
131.415349
 30
0.0
 10
48.601425
 20
131.485509
 30
0.0
 10
47.910270
 20
131.801039
 30
0.0
 10
47.150310
 20
132.523966
 30
0.0
  0
SPLINE
  5
1d5
100
AcDbEntity
  8
Engraving
 62
7
100
AcDbSpline
 70
8
 71
3
 72
8
 73
4
 74
0
 40
0
 40
0
 40
0
 40
0
 40
1
 40
1
 40
1
 40
1
 10
47.150310
 20
132.523966
 30
0.0
 10
46.771655
 20
132.884175
 30
0.0
 10
46.591154
 20
132.984693
 30
0.0
 10
46.526865
 20
132.871160
 30
0.0
  0
SPLINE
  5
1d6
100
AcDbEntity
  8
Engraving
 62
7
100
AcDbSpline
 70
8
 71
3
 72
8
 73
4
 74
0
 40
0
 40
0
 40
0
 40
0
 40
1
 40
1
 40
1
 40
1
 10
46.526865
 20
132.871160
 30
0.0
 10
46.088831
 20
132.097549
 30
0.0
 10
45.808624
 20
131.758513
 30
0.0
 10
45.374803
 20
131.477217
 30
0.0
  0
SPLINE
  5
1d7
100
AcDbEntity
  8
Engraving
 62
7
100
AcDbSpline
 70
8
 71
3
 72
8
 73
4
 74
0
 40
0
 40
0
 40
0
 40
0
 40
1
 40
1
 40
1
 40
1
 10
45.374803
 20
131.477217
 30
0.0
 10
44.839623
 20
131.130199
 30
0.0
 10
43.747289
 20
130.921479
 30
0.0
 10
43.193621
 20
131.060444
 30
0.0
  0
SPLINE
  5
1d8
100
AcDbEntity
  8
Engraving
 62
7
100
AcDbSpline
 70
8
 71
3
 72
8
 73
4
 74
0
 40
0
 40
0
 40
0
 40
0
 40
1
 40
1
 40
1
 40
1
 10
43.193621
 20
131.060444
 30
0.0
 10
42.916316
 20
131.130044
 30
0.0
 10
42.741969
 20
131.007064
 30
0.0
 10
41.898429
 20
130.146779
 30
0.0
  0
SPLINE
  5
1d9
100
AcDbEntity
  8
Engraving
 62
7
100
AcDbSpline
 70
8
 71
3
 72
8
 73
4
 74
0
 40
0
 40
0
 40
0
 40
0
 40
1
 40
1
 40
1
 40
1
 10
41.898429
 20
130.146779
 30
0.0
 10
39.819744
 20
128.026846
 30
0.0
 10
37.236798
 20
127.466047
 30
0.0
 10
34.853670
 20
128.617251
 30
0.0
  0
SPLINE
  5
1da
100
AcDbEntity
  8
Engraving
 62
7
100
AcDbSpline
 70
8
 71
3
 72
8
 73
4
 74
0
 40
0
 40
0
 40
0
 40
0
 40
1
 40
1
 40
1
 40
1
 10
34.853670
 20
128.617251
 30
0.0
 10
33.066078
 20
129.480773
 30
0.0
 10
32.031057
 20
131.361773
 30
0.0
 10
32.031057
 20
133.746947
 30
0.0
  0
LINE
  5
1db
100
AcDbEntity
  8
Engraving
 62
7
100
AcDbLine
 10
32.031057
 20
133.746947
 30
0.0
 11
32.031057
 21
134.792607
 31
0.0
  0
LINE
  5
1dc
100
AcDbEntity
  8
Engraving
 62
7
100
AcDbLine
 10
32.031057
 20
134.792607
 30
0.0
 11
31.652653
 21
134.792607
 31
0.0
  0
SPLINE
  5
1dd
100
AcDbEntity
  8
Engraving
 62
7
100
AcDbSpline
 70
8
 71
3
 72
8
 73
4
 74
0
 40
0
 40
0
 40
0
 40
0
 40
1
 40
1
 40
1
 40
1
 10
31.652653
 20
134.792607
 30
0.0
 10
31.308268
 20
134.792607
 30
0.0
 10
31.274242
 20
134.754987
 30
0.0
 10
31.274242
 20
134.374294
 30
0.0
  0
SPLINE
  5
1de
100
AcDbEntity
  8
Engraving
 62
7
100
AcDbSpline
 70
8
 71
3
 72
8
 73
4
 74
0
 40
0
 40
0
 40
0
 40
0
 40
1
 40
1
 40
1
 40
1
 10
31.274242
 20
134.374294
 30
0.0
 10
31.274242
 20
132.763966
 30
0.0
 10
30.595342
 20
131.224427
 30
0.0
 10
29.379429
 20
130.077385
 30
0.0
  0
SPLINE
  5
1df
100
AcDbEntity
  8
Engraving
 62
7
100
AcDbSpline
 70
8
 71
3
 72
8
 73
4
 74
0
 40
0
 40
0
 40
0
 40
0
 40
1
 40
1
 40
1
 40
1
 10
29.379429
 20
130.077385
 30
0.0
 10
28.384356
 20
129.138691
 30
0.0
 10
27.525045
 20
128.684523
 30
0.0
 10
26.235162
 20
128.415577
 30
0.0
  0
SPLINE
  5
1e0
100
AcDbEntity
  8
Engraving
 62
7
100
AcDbSpline
 70
8
 71
3
 72
8
 73
4
 74
0
 40
0
 40
0
 40
0
 40
0
 40
1
 40
1
 40
1
 40
1
 10
26.235162
 20
128.415577
 30
0.0
 10
23.488760
 20
127.842935
 30
0.0
 10
21.053099
 20
129.333456
 30
0.0
 10
20.157834
 20
132.134645
 30
0.0
  0
SPLINE
  5
1e1
100
AcDbEntity
  8
Engraving
 62
7
100
AcDbSpline
 70
8
 71
3
 72
8
 73
4
 74
0
 40
0
 40
0
 40
0
 40
0
 40
1
 40
1
 40
1
 40
1
 10
20.157834
 20
132.134645
 30
0.0
 10
19.789494
 20
133.287140
 30
0.0
 10
19.795201
 20
135.597787
 30
0.0
 10
20.170944
 20
137.441474
 30
0.0
  0
SPLINE
  5
1e2
100
AcDbEntity
  8
Engraving
 62
7
100
AcDbSpline
 70
8
 71
3
 72
8
 73
4
 74
0
 40
0
 40
0
 40
0
 40
0
 40
1
 40
1
 40
1
 40
1
 10
20.170944
 20
137.441474
 30
0.0
 10
20.704841
 20
140.061186
 30
0.0
 10
22.223585
 20
145.077699
 30
0.0
 10
23.083087
 20
147.060473
 30
0.0
  0
SPLINE
  5
1e3
100
AcDbEntity
  8
Engraving
 62
7
100
AcDbSpline
 70
8
 71
3
 72
8
 73
4
 74
0
 40
0
 40
0
 40
0
 40
0
 40
1
 40
1
 40
1
 40
1
 10
23.083087
 20
147.060473
 30
0.0
 10
24.353053
 20
149.990144
 30
0.0
 10
26.463584
 20
151.963650
 30
0.0
 10
28.858380
 20
152.460806
 30
0.0
  0
SPLINE
  5
1e4
100
AcDbEntity
  8
Engraving
 62
7
100
AcDbSpline
 70
8
 71
3
 72
8
 73
4
 74
0
 40
0
 40
0
 40
0
 40
0
 40
1
 40
1
 40
1
 40
1
 10
28.858380
 20
152.460806
 30
0.0
 10
29.819784
 20
152.660393
 30
0.0
 10
31.326915
 20
152.555266
 30
0.0
 10
32.037472
 20
152.239042
 30
0.0
  0
SPLINE
  5
1e5
100
AcDbEntity
  8
Engraving
 62
7
100
AcDbSpline
 70
8
 71
3
 72
8
 73
4
 74
0
 40
0
 40
0
 40
0
 40
0
 40
1
 40
1
 40
1
 40
1
 10
32.037472
 20
152.239042
 30
0.0
 10
32.708434
 20
151.940444
 30
0.0
 10
33.446557
 20
151.322303
 30
0.0
 10
33.932893
 20
150.651721
 30
0.0
  0
LINE
  5
1e6
100
AcDbEntity
  8
Engraving
 62
7
100
AcDbLine
 10
33.932893
 20
150.651721
 30
0.0
 11
34.277797
 21
150.176161
 31
0.0
  0
LINE
  5
1e7
100
AcDbEntity
  8
Engraving
 62
7
100
AcDbLine
 10
34.277797
 20
150.176161
 30
0.0
 11
34.556146
 21
150.626539
 31
0.0
  0
SPLINE
  5
1e8
100
AcDbEntity
  8
Engraving
 62
7
100
AcDbSpline
 70
8
 71
3
 72
8
 73
4
 74
0
 40
0
 40
0
 40
0
 40
0
 40
1
 40
1
 40
1
 40
1
 10
34.556146
 20
150.626539
 30
0.0
 10
35.012877
 20
151.365551
 30
0.0
 10
35.885954
 20
152.326285
 30
0.0
 10
36.563358
 20
152.835275
 30
0.0
  0
SPLINE
  5
1e9
100
AcDbEntity
  8
Engraving
 62
7
100
AcDbSpline
 70
8
 71
3
 72
8
 73
4
 74
0
 40
0
 40
0
 40
0
 40
0
 40
1
 40
1
 40
1
 40
1
 10
36.563358
 20
152.835275
 30
0.0
 10
38.043685
 20
153.947578
 30
0.0
 10
40.154158
 20
154.157599
 30
0.0
 10
41.784723
 20
153.354874
 30
0.0
  0
SPLINE
  5
1ea
100
AcDbEntity
  8
Engraving
 62
7
100
AcDbSpline
 70
8
 71
3
 72
8
 73
4
 74
0
 40
0
 40
0
 40
0
 40
0
 40
1
 40
1
 40
1
 40
1
 10
41.784723
 20
153.354874
 30
0.0
 10
43.122440
 20
152.696315
 30
0.0
 10
44.278227
 20
151.247479
 30
0.0
 10
44.652920
 20
149.759437
 30
0.0
  0
LINE
  5
1eb
100
AcDbEntity
  8
Engraving
 62
7
100
AcDbLine
 10
44.652920
 20
149.759437
 30
0.0
 11
44.798686
 21
149.180559
 31
0.0
  0
LINE
  5
1ec
100
AcDbEntity
  8
Engraving
 62
7
100
AcDbLine
 10
44.798686
 20
149.180559
 30
0.0
 11
45.197940
 21
149.485085
 31
0.0
  0
SPLINE
  5
1ed
100
AcDbEntity
  8
Engraving
 62
7
100
AcDbSpline
 70
8
 71
3
 72
8
 73
4
 74
0
 40
0
 40
0
 40
0
 40
0
 40
1
 40
1
 40
1
 40
1
 10
45.197940
 20
149.485085
 30
0.0
 10
45.417531
 20
149.652576
 30
0.0
 10
45.986743
 20
149.971903
 30
0.0
 10
46.462860
 20
150.194706
 30
0.0
  0
SPLINE
  5
1ee
100
AcDbEntity
  8
Engraving
 62
7
100
AcDbSpline
 70
8
 71
3
 72
8
 73
4
 74
0
 40
0
 40
0
 40
0
 40
0
 40
1
 40
1
 40
1
 40
1
 10
46.462860
 20
150.194706
 30
0.0
 10
48.674329
 20
151.229577
 30
0.0
 10
50.848203
 20
150.595079
 30
0.0
 10
51.983544
 20
148.583361
 30
0.0
  0
LINE
  5
1ef
100
AcDbEntity
  8
Engraving
 62
7
100
AcDbLine
 10
51.983544
 20
148.583361
 30
0.0
 11
52.365118
 21
147.907251
 31
0.0
  0
LINE
  5
1f0
100
AcDbEntity
  8
Engraving
 62
7
100
AcDbLine
 10
52.365118
 20
147.907251
 30
0.0
 11
53.343188
 21
148.886584
 31
0.0
  0
SPLINE
  5
1f1
100
AcDbEntity
  8
Engraving
 62
7
100
AcDbSpline
 70
8
 71
3
 72
8
 73
4
 74
0
 40
0
 40
0
 40
0
 40
0
 40
1
 40
1
 40
1
 40
1
 10
53.343188
 20
148.886584
 30
0.0
 10
54.379542
 20
149.924271
 30
0.0
 10
55.237216
 20
150.504294
 30
0.0
 10
56.529438
 20
151.041350
 30
0.0
  0
SPLINE
  5
1f2
100
AcDbEntity
  8
Engraving
 62
7
100
AcDbSpline
 70
8
 71
3
 72
8
 73
4
 74
0
 40
0
 40
0
 40
0
 40
0
 40
1
 40
1
 40
1
 40
1
 10
56.529438
 20
151.041350
 30
0.0
 10
57.202331
 20
151.321008
 30
0.0
 10
57.511100
 20
151.370658
 30
0.0
 10
58.582784
 20
151.371529
 30
0.0
  0
SPLINE
  5
1f3
100
AcDbEntity
  8
Engraving
 62
7
100
AcDbSpline
 70
8
 71
3
 72
8
 73
4
 74
0
 40
0
 40
0
 40
0
 40
0
 40
1
 40
1
 40
1
 40
1
 10
58.582784
 20
151.371529
 30
0.0
 10
60.178930
 20
151.372829
 30
0.0
 10
60.997626
 20
151.077532
 30
0.0
 10
62.009745
 20
150.135449
 30
0.0
  0
LINE
  5
1f4
100
AcDbEntity
  8
Engraving
 62
7
100
AcDbLine
 10
62.009745
 20
150.135449
 30
0.0
 11
62.711881
 21
149.481909
 31
0.0
  0
LINE
  5
1f5
100
AcDbEntity
  8
Engraving
 62
7
100
AcDbLine
 10
62.711881
 20
149.481909
 30
0.0
 11
63.611548
 21
150.410170
 31
0.0
  0
SPLINE
  5
1f6
100
AcDbEntity
  8
Engraving
 62
7
100
AcDbSpline
 70
8
 71
3
 72
8
 73
4
 74
0
 40
0
 40
0
 40
0
 40
0
 40
1
 40
1
 40
1
 40
1
 10
63.611548
 20
150.410170
 30
0.0
 10
65.692410
 20
152.557187
 30
0.0
 10
68.222312
 20
153.668315
 30
0.0
 10
71.322565
 20
153.796831
 30
0.0
  0
SPLINE
  5
1f7
100
AcDbEntity
  8
Engraving
 62
7
100
AcDbSpline
 70
8
 71
3
 72
8
 73
4
 74
0
 40
0
 40
0
 40
0
 40
0
 40
1
 40
1
 40
1
 40
1
 10
71.322565
 20
153.796831
 30
0.0
 10
73.821547
 20
153.900422
 30
0.0
 10
75.249959
 20
153.472874
 30
0.0
 10
76.589474
 20
152.220365
 30
0.0
  0
SPLINE
  5
1f8
100
AcDbEntity
  8
Engraving
 62
7
100
AcDbSpline
 70
8
 71
3
 72
8
 73
4
 74
0
 40
0
 40
0
 40
0
 40
0
 40
1
 40
1
 40
1
 40
1
 10
76.589474
 20
152.220365
 30
0.0
 10
77.524583
 20
151.345987
 30
0.0
 10
77.965788
 20
150.645779
 30
0.0
 10
78.368115
 20
149.397649
 30
0.0
  0
SPLINE
  5
1f9
100
AcDbEntity
  8
Engraving
 62
7
100
AcDbSpline
 70
8
 71
3
 72
8
 73
4
 74
0
 40
0
 40
0
 40
0
 40
0
 40
1
 40
1
 40
1
 40
1
 10
78.368115
 20
149.397649
 30
0.0
 10
78.429195
 20
149.208011
 30
0.0
 10
78.559664
 20
149.243524
 30
0.0
 10
79.437016
 20
149.688684
 30
0.0
  0
SPLINE
  5
1fa
100
AcDbEntity
  8
Engraving
 62
7
100
AcDbSpline
 70
8
 71
3
 72
8
 73
4
 74
0
 40
0
 40
0
 40
0
 40
0
 40
1
 40
1
 40
1
 40
1
 10
79.437016
 20
149.688684
 30
0.0
 10
81.909189
 20
150.943055
 30
0.0
 10
84.463496
 20
150.773755
 30
0.0
 10
86.346563
 20
149.230723
 30
0.0
  0
LINE
  5
1fb
100
AcDbEntity
  8
Engraving
 62
7
100
AcDbLine
 10
86.346563
 20
149.230723
 30
0.0
 11
86.864927
 21
148.805962
 31
0.0
  0
LINE
  5
1fc
100
AcDbEntity
  8
Engraving
 62
7
100
AcDbLine
 10
86.864927
 20
148.805962
 30
0.0
 11
87.225202
 21
149.182006
 31
0.0
  0
SPLINE
  5
1fd
100
AcDbEntity
  8
Engraving
 62
7
100
AcDbSpline
 70
8
 71
3
 72
8
 73
4
 74
0
 40
0
 40
0
 40
0
 40
0
 40
1
 40
1
 40
1
 40
1
 10
87.225202
 20
149.182006
 30
0.0
 10
87.783425
 20
149.764663
 30
0.0
 10
88.975456
 20
150.307395
 30
0.0
 10
89.696965
 20
150.307395
 30
0.0
  0
SPLINE
  5
1fe
100
AcDbEntity
  8
Engraving
 62
7
100
AcDbSpline
 70
8
 71
3
 72
8
 73
4
 74
0
 40
0
 40
0
 40
0
 40
0
 40
1
 40
1
 40
1
 40
1
 10
89.696965
 20
150.307395
 30
0.0
 10
90.494040
 20
150.307395
 30
0.0
 10
91.352199
 20
149.898974
 30
0.0
 10
91.845846
 20
149.284703
 30
0.0
  0
LINE
  5
1ff
100
AcDbEntity
  8
Engraving
 62
7
100
AcDbLine
 10
91.845846
 20
149.284703
 30
0.0
 11
92.233576
 21
148.802224
 31
0.0
  0
LINE
  5
200
100
AcDbEntity
  8
Engraving
 62
7
100
AcDbLine
 10
92.233576
 20
148.802224
 30
0.0
 11
92.858313
 21
149.363909
 31
0.0
  0
SPLINE
  5
201
100
AcDbEntity
  8
Engraving
 62
7
100
AcDbSpline
 70
8
 71
3
 72
8
 73
4
 74
0
 40
0
 40
0
 40
0
 40
0
 40
1
 40
1
 40
1
 40
1
 10
92.858313
 20
149.363909
 30
0.0
 10
93.218933
 20
149.688147
 30
0.0
 10
93.704142
 20
149.985129
 30
0.0
 10
94.006061
 20
150.066427
 30
0.0
  0
SPLINE
  5
202
100
AcDbEntity
  8
Engraving
 62
7
100
AcDbSpline
 70
8
 71
3
 72
8
 73
4
 74
0
 40
0
 40
0
 40
0
 40
0
 40
1
 40
1
 40
1
 40
1
 10
94.006061
 20
150.066427
 30
0.0
 10
94.932187
 20
150.315807
 30
0.0
 10
96.017305
 20
150.027817
 30
0.0
 10
96.757149
 20
149.336273
 30
0.0
  0
LINE
  5
203
100
AcDbEntity
  8
Engraving
 62
7
100
AcDbLine
 10
96.757149
 20
149.336273
 30
0.0
 11
97.090556
 21
149.024631
 31
0.0
  0
LINE
  5
204
100
AcDbEntity
  8
Engraving
 62
7
100
AcDbLine
 10
97.090556
 20
149.024631
 30
0.0
 11
97.577032
 21
149.345799
 31
0.0
  0
SPLINE
  5
205
100
AcDbEntity
  8
Engraving
 62
7
100
AcDbSpline
 70
8
 71
3
 72
8
 73
4
 74
0
 40
0
 40
0
 40
0
 40
0
 40
1
 40
1
 40
1
 40
1
 10
97.577032
 20
149.345799
 30
0.0
 10
98.272902
 20
149.805207
 30
0.0
 10
99.254133
 20
149.992255
 30
0.0
 10
99.996792
 20
149.807066
 30
0.0
  0
SPLINE
  5
206
100
AcDbEntity
  8
Engraving
 62
7
100
AcDbSpline
 70
8
 71
3
 72
8
 73
4
 74
0
 40
0
 40
0
 40
0
 40
0
 40
1
 40
1
 40
1
 40
1
 10
99.996792
 20
149.807066
 30
0.0
 10
101.262520
 20
149.491448
 30
0.0
 10
102.109990
 20
148.734109
 30
0.0
 10
102.741830
 20
147.354022
 30
0.0
  0
SPLINE
  5
207
100
AcDbEntity
  8
Engraving
 62
7
100
AcDbSpline
 70
8
 71
3
 72
8
 73
4
 74
0
 40
0
 40
0
 40
0
 40
0
 40
1
 40
1
 40
1
 40
1
 10
102.741830
 20
147.354022
 30
0.0
 10
103.034950
 20
146.713755
 30
0.0
 10
103.100970
 20
146.649514
 30
0.0
 10
103.465090
 20
146.650292
 30
0.0
  0
SPLINE
  5
208
100
AcDbEntity
  8
Engraving
 62
7
100
AcDbSpline
 70
8
 71
3
 72
8
 73
4
 74
0
 40
0
 40
0
 40
0
 40
0
 40
1
 40
1
 40
1
 40
1
 10
103.465090
 20
146.650292
 30
0.0
 10
103.862530
 20
146.651192
 30
0.0
 10
103.866060
 20
146.656692
 30
0.0
 10
103.899770
 20
147.345877
 30
0.0
  0
SPLINE
  5
209
100
AcDbEntity
  8
Engraving
 62
7
100
AcDbSpline
 70
8
 71
3
 72
8
 73
4
 74
0
 40
0
 40
0
 40
0
 40
0
 40
1
 40
1
 40
1
 40
1
 10
103.899770
 20
147.345877
 30
0.0
 10
104.059560
 20
150.611614
 30
0.0
 10
107.524920
 20
152.132670
 30
0.0
 10
110.182940
 20
150.103752
 30
0.0
  0
LINE
  5
20a
100
AcDbEntity
  8
Engraving
 62
7
100
AcDbLine
 10
110.182940
 20
150.103752
 30
0.0
 11
110.744870
 21
149.674823
 31
0.0
  0
LINE
  5
20b
100
AcDbEntity
  8
Engraving
 62
7
100
AcDbLine
 10
110.744870
 20
149.674823
 30
0.0
 11
111.344880
 21
149.978866
 31
0.0
  0
SPLINE
  5
20c
100
AcDbEntity
  8
Engraving
 62
7
100
AcDbSpline
 70
8
 71
3
 72
8
 73
4
 74
0
 40
0
 40
0
 40
0
 40
0
 40
1
 40
1
 40
1
 40
1
 10
111.344880
 20
149.978866
 30
0.0
 10
112.627140
 20
150.628642
 30
0.0
 10
113.719390
 20
150.873139
 30
0.0
 10
115.344200
 20
150.874108
 30
0.0
  0
SPLINE
  5
20d
100
AcDbEntity
  8
Engraving
 62
7
100
AcDbSpline
 70
8
 71
3
 72
8
 73
4
 74
0
 40
0
 40
0
 40
0
 40
0
 40
1
 40
1
 40
1
 40
1
 10
115.344200
 20
150.874108
 30
0.0
 10
116.704810
 20
150.874939
 30
0.0
 10
116.939370
 20
150.840688
 30
0.0
 10
117.664260
 20
150.535497
 30
0.0
  0
LINE
  5
20e
100
AcDbEntity
  8
Engraving
 62
7
100
AcDbLine
 10
117.664260
 20
150.535497
 30
0.0
 11
118.470690
 21
150.195985
 31
0.0
  0
LINE
  5
20f
100
AcDbEntity
  8
Engraving
 62
7
100
AcDbLine
 10
118.470690
 20
150.195985
 30
0.0
 11
118.862560
 21
150.491561
 31
0.0
  0
SPLINE
  5
210
100
AcDbEntity
  8
Engraving
 62
7
100
AcDbSpline
 70
8
 71
3
 72
8
 73
4
 74
0
 40
0
 40
0
 40
0
 40
0
 40
1
 40
1
 40
1
 40
1
 10
118.862560
 20
150.491561
 30
0.0
 10
120.653810
 20
151.842633
 30
0.0
 10
125.417880
 20
152.120727
 30
0.0
 10
128.184870
 20
151.035737
 30
0.0
  0
SPLINE
  5
211
100
AcDbEntity
  8
Engraving
 62
7
100
AcDbSpline
 70
8
 71
3
 72
8
 73
4
 74
0
 40
0
 40
0
 40
0
 40
0
 40
1
 40
1
 40
1
 40
1
 10
128.184870
 20
151.035737
 30
0.0
 10
129.739570
 20
150.426115
 30
0.0
 10
131.356760
 20
149.003895
 30
0.0
 10
132.076820
 20
147.612998
 30
0.0
  0
SPLINE
  5
212
100
AcDbEntity
  8
Engraving
 62
7
100
AcDbSpline
 70
8
 71
3
 72
8
 73
4
 74
0
 40
0
 40
0
 40
0
 40
0
 40
1
 40
1
 40
1
 40
1
 10
132.076820
 20
147.612998
 30
0.0
 10
132.435190
 20
146.920801
 30
0.0
 10
132.721270
 20
145.436425
 30
0.0
 10
132.627190
 20
144.757390
 30
0.0
  0
SPLINE
  5
213
100
AcDbEntity
  8
Engraving
 62
7
100
AcDbSpline
 70
8
 71
3
 72
8
 73
4
 74
0
 40
0
 40
0
 40
0
 40
0
 40
1
 40
1
 40
1
 40
1
 10
132.627190
 20
144.757390
 30
0.0
 10
132.465000
 20
143.586970
 30
0.0
 10
132.127550
 20
142.783939
 30
0.0
 10
131.399510
 20
141.836021
 30
0.0
  0
LINE
  5
214
100
AcDbEntity
  8
Engraving
 62
7
100
AcDbLine
 10
131.399510
 20
141.836021
 30
0.0
 11
131.044890
 21
141.374314
 31
0.0
  0
LINE
  5
215
100
AcDbEntity
  8
Engraving
 62
7
100
AcDbLine
 10
131.044890
 20
141.374314
 30
0.0
 11
131.476550
 21
141.107537
 31
0.0
  0
SPLINE
  5
216
100
AcDbEntity
  8
Engraving
 62
7
100
AcDbSpline
 70
8
 71
3
 72
8
 73
4
 74
0
 40
0
 40
0
 40
0
 40
0
 40
1
 40
1
 40
1
 40
1
 10
131.476550
 20
141.107537
 30
0.0
 10
132.093480
 20
140.726255
 30
0.0
 10
133.343480
 20
139.352086
 30
0.0
 10
133.801370
 20
138.551789
 30
0.0
  0
SPLINE
  5
217
100
AcDbEntity
  8
Engraving
 62
7
100
AcDbSpline
 70
8
 71
3
 72
8
 73
4
 74
0
 40
0
 40
0
 40
0
 40
0
 40
1
 40
1
 40
1
 40
1
 10
133.801370
 20
138.551789
 30
0.0
 10
135.290880
 20
135.948377
 30
0.0
 10
134.601780
 20
133.000046
 30
0.0
 10
132.015940
 20
130.912756
 30
0.0
  0
SPLINE
  5
218
100
AcDbEntity
  8
Engraving
 62
7
100
AcDbSpline
 70
8
 71
3
 72
8
 73
4
 74
0
 40
0
 40
0
 40
0
 40
0
 40
1
 40
1
 40
1
 40
1
 10
132.015940
 20
130.912756
 30
0.0
 10
129.523260
 20
128.900655
 30
0.0
 10
125.726740
 20
127.816643
 30
0.0
 10
121.889680
 20
128.021426
 30
0.0
  0
SPLINE
  5
219
100
AcDbEntity
  8
Engraving
 62
7
100
AcDbSpline
 70
8
 71
3
 72
8
 73
4
 74
0
 40
0
 40
0
 40
0
 40
0
 40
1
 40
1
 40
1
 40
1
 10
121.889680
 20
128.021426
 30
0.0
 10
119.320000
 20
128.158568
 30
0.0
 10
117.380340
 20
128.810896
 30
0.0
 10
116.166670
 20
129.946139
 30
0.0
  0
LINE
  5
21a
100
AcDbEntity
  8
Engraving
 62
7
100
AcDbLine
 10
116.166670
 20
129.946139
 30
0.0
 11
115.525260
 21
130.546108
 31
0.0
  0
LINE
  5
21b
100
AcDbEntity
  8
Engraving
 62
7
100
AcDbLine
 10
115.525260
 20
130.546108
 30
0.0
 11
114.047230
 21
130.519228
 31
0.0
  0
SPLINE
  5
21c
100
AcDbEntity
  8
Engraving
 62
7
100
AcDbSpline
 70
8
 71
3
 72
8
 73
4
 74
0
 40
0
 40
0
 40
0
 40
0
 40
1
 40
1
 40
1
 40
1
 10
114.047230
 20
130.519228
 30
0.0
 10
111.950800
 20
130.481088
 30
0.0
 10
110.323300
 20
130.924934
 30
0.0
 10
109.250930
 20
131.827284
 30
0.0
  0
LINE
  5
21d
100
AcDbEntity
  8
Engraving
 62
7
100
AcDbLine
 10
109.250930
 20
131.827284
 30
0.0
 11
108.863190
 21
132.153547
 31
0.0
  0
LINE
  5
21e
100
AcDbEntity
  8
Engraving
 62
7
100
AcDbLine
 10
108.863190
 20
132.153547
 30
0.0
 11
108.298010
 21
131.722139
 31
0.0
  0
SPLINE
  5
21f
100
AcDbEntity
  8
Engraving
 62
7
100
AcDbSpline
 70
8
 71
3
 72
8
 73
4
 74
0
 40
0
 40
0
 40
0
 40
0
 40
1
 40
1
 40
1
 40
1
 10
108.298010
 20
131.722139
 30
0.0
 10
106.705540
 20
130.506570
 30
0.0
 10
104.384960
 20
130.988517
 30
0.0
 10
103.348700
 20
132.750040
 30
0.0
  0
SPLINE
  5
220
100
AcDbEntity
  8
Engraving
 62
7
100
AcDbSpline
 70
8
 71
3
 72
8
 73
4
 74
0
 40
0
 40
0
 40
0
 40
0
 40
1
 40
1
 40
1
 40
1
 10
103.348700
 20
132.750040
 30
0.0
 10
103.336200
 20
132.771290
 30
0.0
 10
103.030170
 20
132.475973
 30
0.0
 10
102.668680
 20
132.093740
 30
0.0
  0
SPLINE
  5
221
100
AcDbEntity
  8
Engraving
 62
7
100
AcDbSpline
 70
8
 71
3
 72
8
 73
4
 74
0
 40
0
 40
0
 40
0
 40
0
 40
1
 40
1
 40
1
 40
1
 10
102.668680
 20
132.093740
 30
0.0
 10
101.855720
 20
131.234151
 30
0.0
 10
101.118560
 20
130.946446
 30
0.0
 10
99.966077
 20
131.038956
 30
0.0
  0
SPLINE
  5
222
100
AcDbEntity
  8
Engraving
 62
7
100
AcDbSpline
 70
8
 71
3
 72
8
 73
4
 74
0
 40
0
 40
0
 40
0
 40
0
 40
1
 40
1
 40
1
 40
1
 10
99.966077
 20
131.038956
 30
0.0
 10
99.081301
 20
131.109976
 30
0.0
 10
98.359466
 20
131.436508
 30
0.0
 10
97.688639
 20
132.069174
 30
0.0
  0
LINE
  5
223
100
AcDbEntity
  8
Engraving
 62
7
100
AcDbLine
 10
97.688639
 20
132.069174
 30
0.0
 11
97.223425
 21
132.507933
 31
0.0
  0
LINE
  5
224
100
AcDbEntity
  8
Engraving
 62
7
100
AcDbLine
 10
97.223425
 20
132.507933
 30
0.0
 11
96.824501
 21
132.053585
 31
0.0
  0
SPLINE
  5
225
100
AcDbEntity
  8
Engraving
 62
7
100
AcDbSpline
 70
8
 71
3
 72
8
 73
4
 74
0
 40
0
 40
0
 40
0
 40
0
 40
1
 40
1
 40
1
 40
1
 10
96.824501
 20
132.053585
 30
0.0
 10
95.612225
 20
130.672871
 30
0.0
 10
93.200046
 20
130.671559
 30
0.0
 10
91.988913
 20
132.051185
 30
0.0
  0
LINE
  5
226
100
AcDbEntity
  8
Engraving
 62
7
100
AcDbLine
 10
91.988913
 20
132.051185
 30
0.0
 11
91.592293
 21
132.502892
 31
0.0
  0
LINE
  5
227
100
AcDbEntity
  8
Engraving
 62
7
100
AcDbLine
 10
91.592293
 20
132.502892
 30
0.0
 11
91.028044
 21
131.962244
 31
0.0
  0
SPLINE
  5
228
100
AcDbEntity
  8
Engraving
 62
7
100
AcDbSpline
 70
8
 71
3
 72
8
 73
4
 74
0
 40
0
 40
0
 40
0
 40
0
 40
1
 40
1
 40
1
 40
1
 10
91.028044
 20
131.962244
 30
0.0
 10
89.964299
 20
130.943001
 30
0.0
 10
88.248065
 20
130.699332
 30
0.0
 10
86.837372
 20
131.367264
 30
0.0
  0
SPLINE
  5
229
100
AcDbEntity
  8
Engraving
 62
7
100
AcDbSpline
 70
8
 71
3
 72
8
 73
4
 74
0
 40
0
 40
0
 40
0
 40
0
 40
1
 40
1
 40
1
 40
1
 10
86.837372
 20
131.367264
 30
0.0
 10
86.421117
 20
131.564346
 30
0.0
 10
86.005728
 20
131.816020
 30
0.0
 10
85.914264
 20
131.926541
 30
0.0
  0
SPLINE
  5
22a
100
AcDbEntity
  8
Engraving
 62
7
100
AcDbSpline
 70
8
 71
3
 72
8
 73
4
 74
0
 40
0
 40
0
 40
0
 40
0
 40
1
 40
1
 40
1
 40
1
 10
85.914264
 20
131.926541
 30
0.0
 10
85.764464
 20
132.107568
 30
0.0
 10
85.689457
 20
132.090291
 30
0.0
 10
85.157459
 20
131.752239
 30
0.0
  0
SPLINE
  5
22b
100
AcDbEntity
  8
Engraving
 62
7
100
AcDbSpline
 70
8
 71
3
 72
8
 73
4
 74
0
 40
0
 40
0
 40
0
 40
0
 40
1
 40
1
 40
1
 40
1
 10
85.157459
 20
131.752239
 30
0.0
 10
83.323576
 20
130.586937
 30
0.0
 10
80.797355
 20
130.683000
 30
0.0
 10
78.904711
 20
131.989995
 30
0.0
  0
LINE
  5
22c
100
AcDbEntity
  8
Engraving
 62
7
100
AcDbLine
 10
78.904711
 20
131.989995
 30
0.0
 11
78.414098
 21
132.328798
 31
0.0
  0
LINE
  5
22d
100
AcDbEntity
  8
Engraving
 62
7
100
AcDbLine
 10
78.414098
 20
132.328798
 30
0.0
 11
78.221070
 21
132.015639
 31
0.0
  0
SPLINE
  5
22e
100
AcDbEntity
  8
Engraving
 62
7
100
AcDbSpline
 70
8
 71
3
 72
8
 73
4
 74
0
 40
0
 40
0
 40
0
 40
0
 40
1
 40
1
 40
1
 40
1
 10
78.221070
 20
132.015639
 30
0.0
 10
78.114908
 20
131.843399
 30
0.0
 10
77.557804
 20
131.236466
 30
0.0
 10
76.983043
 20
130.666896
 30
0.0
  0
SPLINE
  5
22f
100
AcDbEntity
  8
Engraving
 62
7
100
AcDbSpline
 70
8
 71
3
 72
8
 73
4
 74
0
 40
0
 40
0
 40
0
 40
0
 40
1
 40
1
 40
1
 40
1
 10
76.983043
 20
130.666896
 30
0.0
 10
76.101826
 20
129.793632
 30
0.0
 10
75.734485
 20
129.532749
 30
0.0
 10
74.639402
 20
129.002494
 30
0.0
  0
SPLINE
  5
230
100
AcDbEntity
  8
Engraving
 62
7
100
AcDbSpline
 70
8
 71
3
 72
8
 73
4
 74
0
 40
0
 40
0
 40
0
 40
0
 40
1
 40
1
 40
1
 40
1
 10
74.639402
 20
129.002494
 30
0.0
 10
73.207025
 20
128.308914
 30
0.0
 10
72.361433
 20
128.060363
 30
0.0
 10
70.758271
 20
127.861659
 30
0.0
  0
SPLINE
  5
231
100
AcDbEntity
  8
Engraving
 62
7
100
AcDbSpline
 70
8
 71
3
 72
8
 73
4
 74
0
 40
0
 40
0
 40
0
 40
0
 40
1
 40
1
 40
1
 40
1
 10
70.758271
 20
127.861659
 30
0.0
 10
69.568037
 20
127.714137
 30
0.0
 10
69.203825
 20
127.714791
 30
0.0
 10
67.900548
 20
127.866759
 30
0.0
  0
LINE
  5
232
100
AcDbEntity
  8
Engraving
 62
7
100
AcDbLine
 10
67.900548
 20
127.866759
 30
0.0
 11
67.900543
 21
127.866581
 31
0.0
  0
SPLINE
  5
233
100
AcDbEntity
  8
Engraving
 62
7
100
AcDbSpline
 70
8
 71
3
 72
8
 73
4
 74
0
 40
0
 40
0
 40
0
 40
0
 40
1
 40
1
 40
1
 40
1
 10
70.127591
 20
130.759022
 30
0.0
 10
72.284273
 20
131.019149
 30
0.0
 10
74.067035
 20
131.767482
 30
0.0
 10
75.396759
 20
132.970812
 30
0.0
  0
SPLINE
  5
234
100
AcDbEntity
  8
Engraving
 62
7
100
AcDbSpline
 70
8
 71
3
 72
8
 73
4
 74
0
 40
0
 40
0
 40
0
 40
0
 40
1
 40
1
 40
1
 40
1
 10
75.396759
 20
132.970812
 30
0.0
 10
76.830850
 20
134.268592
 30
0.0
 10
77.369996
 20
135.533665
 30
0.0
 10
77.294663
 20
137.424096
 30
0.0
  0
SPLINE
  5
235
100
AcDbEntity
  8
Engraving
 62
7
100
AcDbSpline
 70
8
 71
3
 72
8
 73
4
 74
0
 40
0
 40
0
 40
0
 40
0
 40
1
 40
1
 40
1
 40
1
 10
77.294663
 20
137.424096
 30
0.0
 10
77.188901
 20
140.077950
 30
0.0
 10
75.580443
 20
141.613276
 30
0.0
 10
71.748710
 20
142.717853
 30
0.0
  0
SPLINE
  5
236
100
AcDbEntity
  8
Engraving
 62
7
100
AcDbSpline
 70
8
 71
3
 72
8
 73
4
 74
0
 40
0
 40
0
 40
0
 40
0
 40
1
 40
1
 40
1
 40
1
 10
71.748710
 20
142.717853
 30
0.0
 10
69.897945
 20
143.251380
 30
0.0
 10
68.861149
 20
143.717302
 30
0.0
 10
68.556352
 20
144.152449
 30
0.0
  0
SPLINE
  5
237
100
AcDbEntity
  8
Engraving
 62
7
100
AcDbSpline
 70
8
 71
3
 72
8
 73
4
 74
0
 40
0
 40
0
 40
0
 40
0
 40
1
 40
1
 40
1
 40
1
 10
68.556352
 20
144.152449
 30
0.0
 10
68.112539
 20
144.786069
 30
0.0
 10
68.467742
 20
145.934065
 30
0.0
 10
69.229481
 20
146.327971
 30
0.0
  0
SPLINE
  5
238
100
AcDbEntity
  8
Engraving
 62
7
100
AcDbSpline
 70
8
 71
3
 72
8
 73
4
 74
0
 40
0
 40
0
 40
0
 40
0
 40
1
 40
1
 40
1
 40
1
 10
69.229481
 20
146.327971
 30
0.0
 10
70.055675
 20
146.755211
 30
0.0
 10
70.628823
 20
146.467312
 30
0.0
 10
70.628823
 20
145.625071
 30
0.0
  0
SPLINE
  5
239
100
AcDbEntity
  8
Engraving
 62
7
100
AcDbSpline
 70
8
 71
3
 72
8
 73
4
 74
0
 40
0
 40
0
 40
0
 40
0
 40
1
 40
1
 40
1
 40
1
 10
70.628823
 20
145.625071
 30
0.0
 10
70.628823
 20
144.518060
 30
0.0
 10
71.241744
 20
144.000571
 30
0.0
 10
72.552907
 20
144.000571
 30
0.0
  0
SPLINE
  5
23a
100
AcDbEntity
  8
Engraving
 62
7
100
AcDbSpline
 70
8
 71
3
 72
8
 73
4
 74
0
 40
0
 40
0
 40
0
 40
0
 40
1
 40
1
 40
1
 40
1
 10
72.552907
 20
144.000571
 30
0.0
 10
73.839130
 20
144.000571
 30
0.0
 10
74.966958
 20
144.698796
 30
0.0
 10
75.931575
 20
146.092283
 30
0.0
  0
SPLINE
  5
23b
100
AcDbEntity
  8
Engraving
 62
7
100
AcDbSpline
 70
8
 71
3
 72
8
 73
4
 74
0
 40
0
 40
0
 40
0
 40
0
 40
1
 40
1
 40
1
 40
1
 10
75.931575
 20
146.092283
 30
0.0
 10
76.824013
 20
147.381484
 30
0.0
 10
77.089803
 20
149.513672
 30
0.0
 10
76.512052
 20
150.748873
 30
0.0
  0
SPLINE
  5
23c
100
AcDbEntity
  8
Engraving
 62
7
100
AcDbSpline
 70
8
 71
3
 72
8
 73
4
 74
0
 40
0
 40
0
 40
0
 40
0
 40
1
 40
1
 40
1
 40
1
 10
76.512052
 20
150.748873
 30
0.0
 10
75.691555
 20
152.503049
 30
0.0
 10
73.445491
 20
153.402799
 30
0.0
 10
70.715615
 20
153.070877
 30
0.0
  0
SPLINE
  5
23d
100
AcDbEntity
  8
Engraving
 62
7
100
AcDbSpline
 70
8
 71
3
 72
8
 73
4
 74
0
 40
0
 40
0
 40
0
 40
0
 40
1
 40
1
 40
1
 40
1
 10
70.715615
 20
153.070877
 30
0.0
 10
68.120325
 20
152.755320
 30
0.0
 10
65.905548
 20
151.673998
 30
0.0
 10
64.250733
 20
149.914524
 30
0.0
  0
SPLINE
  5
23e
100
AcDbEntity
  8
Engraving
 62
7
100
AcDbSpline
 70
8
 71
3
 72
8
 73
4
 74
0
 40
0
 40
0
 40
0
 40
0
 40
1
 40
1
 40
1
 40
1
 10
64.250733
 20
149.914524
 30
0.0
 10
63.189165
 20
148.785818
 30
0.0
 10
62.921213
 20
148.216979
 30
0.0
 10
62.877939
 20
147.000203
 30
0.0
  0
SPLINE
  5
23f
100
AcDbEntity
  8
Engraving
 62
7
100
AcDbSpline
 70
8
 71
3
 72
8
 73
4
 74
0
 40
0
 40
0
 40
0
 40
0
 40
1
 40
1
 40
1
 40
1
 10
62.877939
 20
147.000203
 30
0.0
 10
62.856239
 20
146.389903
 30
0.0
 10
62.755395
 20
145.760735
 30
0.0
 10
62.635370
 20
145.486726
 30
0.0
  0
SPLINE
  5
240
100
AcDbEntity
  8
Engraving
 62
7
100
AcDbSpline
 70
8
 71
3
 72
8
 73
4
 74
0
 40
0
 40
0
 40
0
 40
0
 40
1
 40
1
 40
1
 40
1
 10
62.635370
 20
145.486726
 30
0.0
 10
62.340426
 20
144.813383
 30
0.0
 10
62.378903
 20
144.395300
 30
0.0
 10
62.816374
 20
143.519839
 30
0.0
  0
SPLINE
  5
241
100
AcDbEntity
  8
Engraving
 62
7
100
AcDbSpline
 70
8
 71
3
 72
8
 73
4
 74
0
 40
0
 40
0
 40
0
 40
0
 40
1
 40
1
 40
1
 40
1
 10
62.816374
 20
143.519839
 30
0.0
 10
63.482264
 20
142.187284
 30
0.0
 10
64.619836
 20
141.387385
 30
0.0
 10
66.976498
 20
140.594601
 30
0.0
  0
SPLINE
  5
242
100
AcDbEntity
  8
Engraving
 62
7
100
AcDbSpline
 70
8
 71
3
 72
8
 73
4
 74
0
 40
0
 40
0
 40
0
 40
0
 40
1
 40
1
 40
1
 40
1
 10
66.976498
 20
140.594601
 30
0.0
 10
69.375372
 20
139.787617
 30
0.0
 10
70.374948
 20
139.060963
 30
0.0
 10
70.376078
 20
138.123240
 30
0.0
  0
SPLINE
  5
243
100
AcDbEntity
  8
Engraving
 62
7
100
AcDbSpline
 70
8
 71
3
 72
8
 73
4
 74
0
 40
0
 40
0
 40
0
 40
0
 40
1
 40
1
 40
1
 40
1
 10
70.376078
 20
138.123240
 30
0.0
 10
70.376552
 20
137.550193
 30
0.0
 10
70.001810
 20
137.276453
 30
0.0
 10
69.141988
 20
137.222302
 30
0.0
  0
SPLINE
  5
244
100
AcDbEntity
  8
Engraving
 62
7
100
AcDbSpline
 70
8
 71
3
 72
8
 73
4
 74
0
 40
0
 40
0
 40
0
 40
0
 40
1
 40
1
 40
1
 40
1
 10
69.141988
 20
137.222302
 30
0.0
 10
68.522395
 20
137.183282
 30
0.0
 10
68.330762
 20
137.229902
 30
0.0
 10
67.774327
 20
137.555394
 30
0.0
  0
SPLINE
  5
245
100
AcDbEntity
  8
Engraving
 62
7
100
AcDbSpline
 70
8
 71
3
 72
8
 73
4
 74
0
 40
0
 40
0
 40
0
 40
0
 40
1
 40
1
 40
1
 40
1
 10
67.774327
 20
137.555394
 30
0.0
 10
67.236438
 20
137.869986
 30
0.0
 10
67.056263
 20
138.075073
 30
0.0
 10
66.706813
 20
138.770496
 30
0.0
  0
SPLINE
  5
246
100
AcDbEntity
  8
Engraving
 62
7
100
AcDbSpline
 70
8
 71
3
 72
8
 73
4
 74
0
 40
0
 40
0
 40
0
 40
0
 40
1
 40
1
 40
1
 40
1
 10
66.706813
 20
138.770496
 30
0.0
 10
66.423296
 20
139.334710
 30
0.0
 10
66.163682
 20
139.670589
 30
0.0
 10
65.909502
 20
139.802026
 30
0.0
  0
SPLINE
  5
247
100
AcDbEntity
  8
Engraving
 62
7
100
AcDbSpline
 70
8
 71
3
 72
8
 73
4
 74
0
 40
0
 40
0
 40
0
 40
0
 40
1
 40
1
 40
1
 40
1
 10
65.909502
 20
139.802026
 30
0.0
 10
65.433688
 20
140.048082
 30
0.0
 10
64.337917
 20
140.044140
 30
0.0
 10
63.855431
 20
139.794526
 30
0.0
  0
SPLINE
  5
248
100
AcDbEntity
  8
Engraving
 62
7
100
AcDbSpline
 70
8
 71
3
 72
8
 73
4
 74
0
 40
0
 40
0
 40
0
 40
0
 40
1
 40
1
 40
1
 40
1
 10
63.855431
 20
139.794526
 30
0.0
 10
63.545760
 20
139.634389
 30
0.0
 10
63.464923
 20
139.486824
 30
0.0
 10
63.348732
 20
138.869554
 30
0.0
  0
SPLINE
  5
249
100
AcDbEntity
  8
Engraving
 62
7
100
AcDbSpline
 70
8
 71
3
 72
8
 73
4
 74
0
 40
0
 40
0
 40
0
 40
0
 40
1
 40
1
 40
1
 40
1
 10
63.348732
 20
138.869554
 30
0.0
 10
63.144639
 20
137.785273
 30
0.0
 10
62.751530
 20
136.834832
 30
0.0
 10
62.113980
 20
135.884211
 30
0.0
  0
SPLINE
  5
24a
100
AcDbEntity
  8
Engraving
 62
7
100
AcDbSpline
 70
8
 71
3
 72
8
 73
4
 74
0
 40
0
 40
0
 40
0
 40
0
 40
1
 40
1
 40
1
 40
1
 10
62.113980
 20
135.884211
 30
0.0
 10
61.802139
 20
135.419235
 30
0.0
 10
61.546998
 20
134.952745
 30
0.0
 10
61.546998
 20
134.847558
 30
0.0
  0
SPLINE
  5
24b
100
AcDbEntity
  8
Engraving
 62
7
100
AcDbSpline
 70
8
 71
3
 72
8
 73
4
 74
0
 40
0
 40
0
 40
0
 40
0
 40
1
 40
1
 40
1
 40
1
 10
61.546998
 20
134.847558
 30
0.0
 10
61.546998
 20
134.480852
 30
0.0
 10
62.081827
 20
133.589851
 30
0.0
 10
62.663731
 20
132.987128
 30
0.0
  0
SPLINE
  5
24c
100
AcDbEntity
  8
Engraving
 62
7
100
AcDbSpline
 70
8
 71
3
 72
8
 73
4
 74
0
 40
0
 40
0
 40
0
 40
0
 40
1
 40
1
 40
1
 40
1
 10
62.663731
 20
132.987128
 30
0.0
 10
64.013452
 20
131.589132
 30
0.0
 10
66.013651
 20
130.826559
 30
0.0
 10
68.803153
 20
130.646495
 30
0.0
  0
SPLINE
  5
24d
100
AcDbEntity
  8
Engraving
 62
7
100
AcDbSpline
 70
8
 71
3
 72
8
 73
4
 74
0
 40
0
 40
0
 40
0
 40
0
 40
1
 40
1
 40
1
 40
1
 10
68.803153
 20
130.646495
 30
0.0
 10
68.943719
 20
130.637495
 30
0.0
 10
69.539720
 20
130.688035
 30
0.0
 10
70.127591
 20
130.758915
 30
0.0
  0
LINE
  5
24e
100
AcDbEntity
  8
Engraving
 62
7
100
AcDbLine
 10
70.127591
 20
130.758915
 30
0.0
 11
70.127591
 21
130.759022
 31
0.0
  0
SPLINE
  5
24f
100
AcDbEntity
  8
Engraving
 62
7
100
AcDbSpline
 70
8
 71
3
 72
8
 73
4
 74
0
 40
0
 40
0
 40
0
 40
0
 40
1
 40
1
 40
1
 40
1
 10
38.774631
 20
131.375657
 30
0.0
 10
39.594999
 20
131.744708
 30
0.0
 10
40.536749
 20
132.583801
 30
0.0
 10
41.121342
 20
133.466551
 30
0.0
  0
SPLINE
  5
250
100
AcDbEntity
  8
Engraving
 62
7
100
AcDbSpline
 70
8
 71
3
 72
8
 73
4
 74
0
 40
0
 40
0
 40
0
 40
0
 40
1
 40
1
 40
1
 40
1
 10
41.121342
 20
133.466551
 30
0.0
 10
41.420563
 20
133.918383
 30
0.0
 10
41.704423
 20
134.288062
 30
0.0
 10
41.752139
 20
134.288062
 30
0.0
  0
SPLINE
  5
251
100
AcDbEntity
  8
Engraving
 62
7
100
AcDbSpline
 70
8
 71
3
 72
8
 73
4
 74
0
 40
0
 40
0
 40
0
 40
0
 40
1
 40
1
 40
1
 40
1
 10
41.752139
 20
134.288062
 30
0.0
 10
41.799819
 20
134.288062
 30
0.0
 10
42.042668
 20
134.202922
 30
0.0
 10
42.291730
 20
134.098855
 30
0.0
  0
SPLINE
  5
252
100
AcDbEntity
  8
Engraving
 62
7
100
AcDbSpline
 70
8
 71
3
 72
8
 73
4
 74
0
 40
0
 40
0
 40
0
 40
0
 40
1
 40
1
 40
1
 40
1
 10
42.291730
 20
134.098855
 30
0.0
 10
42.911658
 20
133.839831
 30
0.0
 10
43.619517
 20
133.862329
 30
0.0
 10
44.101774
 20
134.156375
 30
0.0
  0
SPLINE
  5
253
100
AcDbEntity
  8
Engraving
 62
7
100
AcDbSpline
 70
8
 71
3
 72
8
 73
4
 74
0
 40
0
 40
0
 40
0
 40
0
 40
1
 40
1
 40
1
 40
1
 10
44.101774
 20
134.156375
 30
0.0
 10
44.788981
 20
134.575392
 30
0.0
 10
44.948371
 20
134.954941
 30
0.0
 10
45.027455
 20
136.360683
 30
0.0
  0
SPLINE
  5
254
100
AcDbEntity
  8
Engraving
 62
7
100
AcDbSpline
 70
8
 71
3
 72
8
 73
4
 74
0
 40
0
 40
0
 40
0
 40
0
 40
1
 40
1
 40
1
 40
1
 10
45.027455
 20
136.360683
 30
0.0
 10
45.066775
 20
137.059181
 30
0.0
 10
45.076175
 20
137.659059
 30
0.0
 10
45.048405
 20
137.693747
 30
0.0
  0
SPLINE
  5
255
100
AcDbEntity
  8
Engraving
 62
7
100
AcDbSpline
 70
8
 71
3
 72
8
 73
4
 74
0
 40
0
 40
0
 40
0
 40
0
 40
1
 40
1
 40
1
 40
1
 10
45.048405
 20
137.693747
 30
0.0
 10
45.020645
 20
137.728437
 30
0.0
 10
44.813094
 20
137.543959
 30
0.0
 10
44.587200
 20
137.283803
 30
0.0
  0
SPLINE
  5
256
100
AcDbEntity
  8
Engraving
 62
7
100
AcDbSpline
 70
8
 71
3
 72
8
 73
4
 74
0
 40
0
 40
0
 40
0
 40
0
 40
1
 40
1
 40
1
 40
1
 10
44.587200
 20
137.283803
 30
0.0
 10
44.121997
 20
136.748035
 30
0.0
 10
44.014020
 20
136.705332
 30
0.0
 10
44.014020
 20
137.057129
 30
0.0
  0
SPLINE
  5
257
100
AcDbEntity
  8
Engraving
 62
7
100
AcDbSpline
 70
8
 71
3
 72
8
 73
4
 74
0
 40
0
 40
0
 40
0
 40
0
 40
1
 40
1
 40
1
 40
1
 10
44.014020
 20
137.057129
 30
0.0
 10
44.014020
 20
137.478924
 30
0.0
 10
44.300330
 20
137.957142
 30
0.0
 10
44.666092
 20
138.146287
 30
0.0
  0
SPLINE
  5
258
100
AcDbEntity
  8
Engraving
 62
7
100
AcDbSpline
 70
8
 71
3
 72
8
 73
4
 74
0
 40
0
 40
0
 40
0
 40
0
 40
1
 40
1
 40
1
 40
1
 10
44.666092
 20
138.146287
 30
0.0
 10
45.549743
 20
138.603241
 30
0.0
 10
47.420470
 20
138.440851
 30
0.0
 10
47.524982
 20
137.898121
 30
0.0
  0
SPLINE
  5
259
100
AcDbEntity
  8
Engraving
 62
7
100
AcDbSpline
 70
8
 71
3
 72
8
 73
4
 74
0
 40
0
 40
0
 40
0
 40
0
 40
1
 40
1
 40
1
 40
1
 10
47.524982
 20
137.898121
 30
0.0
 10
47.565422
 20
137.688255
 30
0.0
 10
47.516482
 20
137.671188
 30
0.0
 10
47.098766
 20
137.749543
 30
0.0
  0
LINE
  5
25a
100
AcDbEntity
  8
Engraving
 62
7
100
AcDbLine
 10
47.098766
 20
137.749543
 30
0.0
 11
46.626884
 21
137.838063
 31
0.0
  0
LINE
  5
25b
100
AcDbEntity
  8
Engraving
 62
7
100
AcDbLine
 10
46.626884
 20
137.838063
 30
0.0
 11
46.693014
 21
137.014104
 31
0.0
  0
SPLINE
  5
25c
100
AcDbEntity
  8
Engraving
 62
7
100
AcDbSpline
 70
8
 71
3
 72
8
 73
4
 74
0
 40
0
 40
0
 40
0
 40
0
 40
1
 40
1
 40
1
 40
1
 10
46.693014
 20
137.014104
 30
0.0
 10
46.846577
 20
135.101079
 30
0.0
 10
48.471743
 20
133.866380
 30
0.0
 10
50.120131
 20
134.410398
 30
0.0
  0
SPLINE
  5
25d
100
AcDbEntity
  8
Engraving
 62
7
100
AcDbSpline
 70
8
 71
3
 72
8
 73
4
 74
0
 40
0
 40
0
 40
0
 40
0
 40
1
 40
1
 40
1
 40
1
 10
50.120131
 20
134.410398
 30
0.0
 10
51.583448
 20
134.893337
 30
0.0
 10
51.928419
 20
136.130955
 30
0.0
 10
51.281419
 20
138.576697
 30
0.0
  0
SPLINE
  5
25e
100
AcDbEntity
  8
Engraving
 62
7
100
AcDbSpline
 70
8
 71
3
 72
8
 73
4
 74
0
 40
0
 40
0
 40
0
 40
0
 40
1
 40
1
 40
1
 40
1
 10
51.281419
 20
138.576697
 30
0.0
 10
50.757392
 20
140.557600
 30
0.0
 10
50.645283
 20
142.052179
 30
0.0
 10
50.828071
 20
144.620441
 30
0.0
  0
SPLINE
  5
25f
100
AcDbEntity
  8
Engraving
 62
7
100
AcDbSpline
 70
8
 71
3
 72
8
 73
4
 74
0
 40
0
 40
0
 40
0
 40
0
 40
1
 40
1
 40
1
 40
1
 10
50.828071
 20
144.620441
 30
0.0
 10
50.915411
 20
145.847501
 30
0.0
 10
50.947068
 20
147.169943
 30
0.0
 10
50.898421
 20
147.559201
 30
0.0
  0
SPLINE
  5
260
100
AcDbEntity
  8
Engraving
 62
7
100
AcDbSpline
 70
8
 71
3
 72
8
 73
4
 74
0
 40
0
 40
0
 40
0
 40
0
 40
1
 40
1
 40
1
 40
1
 10
50.898421
 20
147.559201
 30
0.0
 10
50.783268
 20
148.480873
 30
0.0
 10
50.367583
 20
149.285834
 30
0.0
 10
49.816276
 20
149.654757
 30
0.0
  0
SPLINE
  5
261
100
AcDbEntity
  8
Engraving
 62
7
100
AcDbSpline
 70
8
 71
3
 72
8
 73
4
 74
0
 40
0
 40
0
 40
0
 40
0
 40
1
 40
1
 40
1
 40
1
 10
49.816276
 20
149.654757
 30
0.0
 10
49.431474
 20
149.912255
 30
0.0
 10
49.252492
 20
149.944773
 30
0.0
 10
48.422141
 20
149.908047
 30
0.0
  0
SPLINE
  5
262
100
AcDbEntity
  8
Engraving
 62
7
100
AcDbSpline
 70
8
 71
3
 72
8
 73
4
 74
0
 40
0
 40
0
 40
0
 40
0
 40
1
 40
1
 40
1
 40
1
 10
48.422141
 20
149.908047
 30
0.0
 10
46.243372
 20
149.811687
 30
0.0
 10
44.406739
 20
148.206784
 30
0.0
 10
42.527763
 20
144.757385
 30
0.0
  0
SPLINE
  5
263
100
AcDbEntity
  8
Engraving
 62
7
100
AcDbSpline
 70
8
 71
3
 72
8
 73
4
 74
0
 40
0
 40
0
 40
0
 40
0
 40
1
 40
1
 40
1
 40
1
 10
42.527763
 20
144.757385
 30
0.0
 10
41.798747
 20
143.419064
 30
0.0
 10
40.923507
 20
141.218606
 30
0.0
 10
40.552983
 20
139.792562
 30
0.0
  0
SPLINE
  5
264
100
AcDbEntity
  8
Engraving
 62
7
100
AcDbSpline
 70
8
 71
3
 72
8
 73
4
 74
0
 40
0
 40
0
 40
0
 40
0
 40
1
 40
1
 40
1
 40
1
 10
40.552983
 20
139.792562
 30
0.0
 10
39.965831
 20
137.532713
 30
0.0
 10
39.972176
 20
136.127341
 30
0.0
 10
40.572753
 20
135.413575
 30
0.0
  0
SPLINE
  5
265
100
AcDbEntity
  8
Engraving
 62
7
100
AcDbSpline
 70
8
 71
3
 72
8
 73
4
 74
0
 40
0
 40
0
 40
0
 40
0
 40
1
 40
1
 40
1
 40
1
 10
40.572753
 20
135.413575
 30
0.0
 10
40.853487
 20
135.079941
 30
0.0
 10
40.959228
 20
135.035309
 30
0.0
 10
41.312092
 20
135.101508
 30
0.0
  0
SPLINE
  5
266
100
AcDbEntity
  8
Engraving
 62
7
100
AcDbSpline
 70
8
 71
3
 72
8
 73
4
 74
0
 40
0
 40
0
 40
0
 40
0
 40
1
 40
1
 40
1
 40
1
 10
41.312092
 20
135.101508
 30
0.0
 10
41.824396
 20
135.197608
 30
0.0
 10
41.960077
 20
135.009158
 30
0.0
 10
41.621984
 20
134.671068
 30
0.0
  0
SPLINE
  5
267
100
AcDbEntity
  8
Engraving
 62
7
100
AcDbSpline
 70
8
 71
3
 72
8
 73
4
 74
0
 40
0
 40
0
 40
0
 40
0
 40
1
 40
1
 40
1
 40
1
 10
41.621984
 20
134.671068
 30
0.0
 10
41.249572
 20
134.298651
 30
0.0
 10
40.798808
 20
134.350539
 30
0.0
 10
40.292257
 20
134.824139
 30
0.0
  0
SPLINE
  5
268
100
AcDbEntity
  8
Engraving
 62
7
100
AcDbSpline
 70
8
 71
3
 72
8
 73
4
 74
0
 40
0
 40
0
 40
0
 40
0
 40
1
 40
1
 40
1
 40
1
 10
40.292257
 20
134.824139
 30
0.0
 10
38.850577
 20
136.172035
 30
0.0
 10
39.453939
 20
139.960457
 30
0.0
 10
41.874268
 20
144.757385
 30
0.0
  0
SPLINE
  5
269
100
AcDbEntity
  8
Engraving
 62
7
100
AcDbSpline
 70
8
 71
3
 72
8
 73
4
 74
0
 40
0
 40
0
 40
0
 40
0
 40
1
 40
1
 40
1
 40
1
 10
41.874268
 20
144.757385
 30
0.0
 10
42.811486
 20
146.614887
 30
0.0
 10
43.131021
 20
147.767056
 30
0.0
 10
43.131021
 20
149.288897
 30
0.0
  0
SPLINE
  5
26a
100
AcDbEntity
  8
Engraving
 62
7
100
AcDbSpline
 70
8
 71
3
 72
8
 73
4
 74
0
 40
0
 40
0
 40
0
 40
0
 40
1
 40
1
 40
1
 40
1
 10
43.131021
 20
149.288897
 30
0.0
 10
43.131021
 20
151.626380
 30
0.0
 10
41.756258
 20
153.121234
 30
0.0
 10
39.599201
 20
153.129226
 30
0.0
  0
SPLINE
  5
26b
100
AcDbEntity
  8
Engraving
 62
7
100
AcDbSpline
 70
8
 71
3
 72
8
 73
4
 74
0
 40
0
 40
0
 40
0
 40
0
 40
1
 40
1
 40
1
 40
1
 10
39.599201
 20
153.129226
 30
0.0
 10
37.182499
 20
153.138126
 30
0.0
 10
35.102304
 20
150.753008
 30
0.0
 10
33.672907
 20
146.334092
 30
0.0
  0
SPLINE
  5
26c
100
AcDbEntity
  8
Engraving
 62
7
100
AcDbSpline
 70
8
 71
3
 72
8
 73
4
 74
0
 40
0
 40
0
 40
0
 40
0
 40
1
 40
1
 40
1
 40
1
 10
33.672907
 20
146.334092
 30
0.0
 10
33.353276
 20
145.345952
 30
0.0
 10
33.228498
 20
145.149227
 30
0.0
 10
33.040576
 20
145.337145
 30
0.0
  0
SPLINE
  5
26d
100
AcDbEntity
  8
Engraving
 62
7
100
AcDbSpline
 70
8
 71
3
 72
8
 73
4
 74
0
 40
0
 40
0
 40
0
 40
0
 40
1
 40
1
 40
1
 40
1
 10
33.040576
 20
145.337145
 30
0.0
 10
32.957126
 20
145.420605
 30
0.0
 10
32.986526
 20
145.939580
 30
0.0
 10
33.128196
 20
146.882543
 30
0.0
  0
SPLINE
  5
26e
100
AcDbEntity
  8
Engraving
 62
7
100
AcDbSpline
 70
8
 71
3
 72
8
 73
4
 74
0
 40
0
 40
0
 40
0
 40
0
 40
1
 40
1
 40
1
 40
1
 10
33.128196
 20
146.882543
 30
0.0
 10
33.478676
 20
149.215413
 30
0.0
 10
33.100346
 20
150.603380
 30
0.0
 10
31.897014
 20
151.399727
 30
0.0
  0
SPLINE
  5
26f
100
AcDbEntity
  8
Engraving
 62
7
100
AcDbSpline
 70
8
 71
3
 72
8
 73
4
 74
0
 40
0
 40
0
 40
0
 40
0
 40
1
 40
1
 40
1
 40
1
 10
31.897014
 20
151.399727
 30
0.0
 10
31.483081
 20
151.673657
 30
0.0
 10
31.199610
 20
151.748231
 30
0.0
 10
30.395300
 20
151.794791
 30
0.0
  0
SPLINE
  5
270
100
AcDbEntity
  8
Engraving
 62
7
100
AcDbSpline
 70
8
 71
3
 72
8
 73
4
 74
0
 40
0
 40
0
 40
0
 40
0
 40
1
 40
1
 40
1
 40
1
 10
30.395300
 20
151.794791
 30
0.0
 10
28.487809
 20
151.905214
 30
0.0
 10
26.794738
 20
151.073554
 30
0.0
 10
25.546452
 20
149.412964
 30
0.0
  0
SPLINE
  5
271
100
AcDbEntity
  8
Engraving
 62
7
100
AcDbSpline
 70
8
 71
3
 72
8
 73
4
 74
0
 40
0
 40
0
 40
0
 40
0
 40
1
 40
1
 40
1
 40
1
 10
25.546452
 20
149.412964
 30
0.0
 10
24.481054
 20
147.995675
 30
0.0
 10
23.854869
 20
146.507778
 30
0.0
 10
22.755393
 20
142.781062
 30
0.0
  0
SPLINE
  5
272
100
AcDbEntity
  8
Engraving
 62
7
100
AcDbSpline
 70
8
 71
3
 72
8
 73
4
 74
0
 40
0
 40
0
 40
0
 40
0
 40
1
 40
1
 40
1
 40
1
 10
22.755393
 20
142.781062
 30
0.0
 10
21.126918
 20
137.261276
 30
0.0
 10
20.853987
 20
134.711448
 30
0.0
 10
21.702025
 20
132.940109
 30
0.0
  0
SPLINE
  5
273
100
AcDbEntity
  8
Engraving
 62
7
100
AcDbSpline
 70
8
 71
3
 72
8
 73
4
 74
0
 40
0
 40
0
 40
0
 40
0
 40
1
 40
1
 40
1
 40
1
 10
21.702025
 20
132.940109
 30
0.0
 10
22.306644
 20
131.677213
 30
0.0
 10
23.722039
 20
130.981053
 30
0.0
 10
25.180890
 20
131.229032
 30
0.0
  0
SPLINE
  5
274
100
AcDbEntity
  8
Engraving
 62
7
100
AcDbSpline
 70
8
 71
3
 72
8
 73
4
 74
0
 40
0
 40
0
 40
0
 40
0
 40
1
 40
1
 40
1
 40
1
 10
25.180890
 20
131.229032
 30
0.0
 10
26.805190
 20
131.505138
 30
0.0
 10
28.145075
 20
132.428238
 30
0.0
 10
28.855076
 20
133.760335
 30
0.0
  0
SPLINE
  5
275
100
AcDbEntity
  8
Engraving
 62
7
100
AcDbSpline
 70
8
 71
3
 72
8
 73
4
 74
0
 40
0
 40
0
 40
0
 40
0
 40
1
 40
1
 40
1
 40
1
 10
28.855076
 20
133.760335
 30
0.0
 10
29.406560
 20
134.795025
 30
0.0
 10
29.519633
 20
135.750151
 30
0.0
 10
29.305818
 20
137.567605
 30
0.0
  0
SPLINE
  5
276
100
AcDbEntity
  8
Engraving
 62
7
100
AcDbSpline
 70
8
 71
3
 72
8
 73
4
 74
0
 40
0
 40
0
 40
0
 40
0
 40
1
 40
1
 40
1
 40
1
 10
29.305818
 20
137.567605
 30
0.0
 10
29.102451
 20
139.296143
 30
0.0
 10
29.100583
 20
140.390504
 30
0.0
 10
29.298318
 20
141.917659
 30
0.0
  0
SPLINE
  5
277
100
AcDbEntity
  8
Engraving
 62
7
100
AcDbSpline
 70
8
 71
3
 72
8
 73
4
 74
0
 40
0
 40
0
 40
0
 40
0
 40
1
 40
1
 40
1
 40
1
 10
29.298318
 20
141.917659
 30
0.0
 10
29.409687
 20
142.777475
 30
0.0
 10
29.493733
 20
143.060571
 30
0.0
 10
29.646346
 20
143.089908
 30
0.0
  0
SPLINE
  5
278
100
AcDbEntity
  8
Engraving
 62
7
100
AcDbSpline
 70
8
 71
3
 72
8
 73
4
 74
0
 40
0
 40
0
 40
0
 40
0
 40
1
 40
1
 40
1
 40
1
 10
29.646346
 20
143.089908
 30
0.0
 10
29.817073
 20
143.122728
 30
0.0
 10
29.860295
 20
142.912794
 30
0.0
 10
29.931716
 20
141.704061
 30
0.0
  0
SPLINE
  5
279
100
AcDbEntity
  8
Engraving
 62
7
100
AcDbSpline
 70
8
 71
3
 72
8
 73
4
 74
0
 40
0
 40
0
 40
0
 40
0
 40
1
 40
1
 40
1
 40
1
 10
29.931716
 20
141.704061
 30
0.0
 10
30.024906
 20
140.126754
 30
0.0
 10
30.266348
 20
138.814802
 30
0.0
 10
30.588283
 20
138.136378
 30
0.0
  0
SPLINE
  5
27a
100
AcDbEntity
  8
Engraving
 62
7
100
AcDbSpline
 70
8
 71
3
 72
8
 73
4
 74
0
 40
0
 40
0
 40
0
 40
0
 40
1
 40
1
 40
1
 40
1
 10
30.588283
 20
138.136378
 30
0.0
 10
30.940819
 20
137.393460
 30
0.0
 10
31.764735
 20
137.382162
 30
0.0
 10
32.445641
 20
138.110918
 30
0.0
  0
SPLINE
  5
27b
100
AcDbEntity
  8
Engraving
 62
7
100
AcDbSpline
 70
8
 71
3
 72
8
 73
4
 74
0
 40
0
 40
0
 40
0
 40
0
 40
1
 40
1
 40
1
 40
1
 10
32.445641
 20
138.110918
 30
0.0
 10
32.902470
 20
138.599848
 30
0.0
 10
34.102087
 20
140.430515
 30
0.0
 10
34.835500
 20
141.757952
 30
0.0
  0
SPLINE
  5
27c
100
AcDbEntity
  8
Engraving
 62
7
100
AcDbSpline
 70
8
 71
3
 72
8
 73
4
 74
0
 40
0
 40
0
 40
0
 40
0
 40
1
 40
1
 40
1
 40
1
 10
34.835500
 20
141.757952
 30
0.0
 10
35.339128
 20
142.669496
 30
0.0
 10
35.576726
 20
142.896616
 30
0.0
 10
35.743840
 20
142.626226
 30
0.0
  0
SPLINE
  5
27d
100
AcDbEntity
  8
Engraving
 62
7
100
AcDbSpline
 70
8
 71
3
 72
8
 73
4
 74
0
 40
0
 40
0
 40
0
 40
0
 40
1
 40
1
 40
1
 40
1
 10
35.743840
 20
142.626226
 30
0.0
 10
35.820170
 20
142.502720
 30
0.0
 10
35.244463
 20
140.870475
 30
0.0
 10
34.426767
 20
138.892047
 30
0.0
  0
SPLINE
  5
27e
100
AcDbEntity
  8
Engraving
 62
7
100
AcDbSpline
 70
8
 71
3
 72
8
 73
4
 74
0
 40
0
 40
0
 40
0
 40
0
 40
1
 40
1
 40
1
 40
1
 10
34.426767
 20
138.892047
 30
0.0
 10
33.626013
 20
136.954622
 30
0.0
 10
33.367398
 20
135.910064
 30
0.0
 10
33.364993
 20
134.603406
 30
0.0
  0
SPLINE
  5
27f
100
AcDbEntity
  8
Engraving
 62
7
100
AcDbSpline
 70
8
 71
3
 72
8
 73
4
 74
0
 40
0
 40
0
 40
0
 40
0
 40
1
 40
1
 40
1
 40
1
 10
33.364993
 20
134.603406
 30
0.0
 10
33.361993
 20
132.932593
 30
0.0
 10
33.860881
 20
131.938383
 30
0.0
 10
34.995150
 20
131.355264
 30
0.0
  0
SPLINE
  5
280
100
AcDbEntity
  8
Engraving
 62
7
100
AcDbSpline
 70
8
 71
3
 72
8
 73
4
 74
0
 40
0
 40
0
 40
0
 40
0
 40
1
 40
1
 40
1
 40
1
 10
34.995150
 20
131.355264
 30
0.0
 10
35.949481
 20
130.864649
 30
0.0
 10
37.659084
 20
130.873875
 30
0.0
 10
38.774515
 20
131.375674
 30
0.0
  0
LINE
  5
281
100
AcDbEntity
  8
Engraving
 62
7
100
AcDbLine
 10
38.774515
 20
131.375674
 30
0.0
 11
38.774631
 21
131.375657
 31
0.0
  0
SPLINE
  5
282
100
AcDbEntity
  8
Engraving
 62
7
100
AcDbSpline
 70
8
 71
3
 72
8
 73
4
 74
0
 40
0
 40
0
 40
0
 40
0
 40
1
 40
1
 40
1
 40
1
 10
44.947002
 20
140.646473
 30
0.0
 10
44.850632
 20
140.897618
 30
0.0
 10
45.104770
 20
141.225568
 30
0.0
 10
45.395766
 20
141.225568
 30
0.0
  0
SPLINE
  5
283
100
AcDbEntity
  8
Engraving
 62
7
100
AcDbSpline
 70
8
 71
3
 72
8
 73
4
 74
0
 40
0
 40
0
 40
0
 40
0
 40
1
 40
1
 40
1
 40
1
 10
45.395766
 20
141.225568
 30
0.0
 10
45.541479
 20
141.225568
 30
0.0
 10
45.716847
 20
141.481169
 30
0.0
 10
45.936646
 20
142.013921
 30
0.0
  0
SPLINE
  5
284
100
AcDbEntity
  8
Engraving
 62
7
100
AcDbSpline
 70
8
 71
3
 72
8
 73
4
 74
0
 40
0
 40
0
 40
0
 40
0
 40
1
 40
1
 40
1
 40
1
 10
45.936646
 20
142.013921
 30
0.0
 10
46.820616
 20
144.156476
 30
0.0
 10
46.903225
 20
144.315912
 30
0.0
 10
47.129421
 20
144.315912
 30
0.0
  0
SPLINE
  5
285
100
AcDbEntity
  8
Engraving
 62
7
100
AcDbSpline
 70
8
 71
3
 72
8
 73
4
 74
0
 40
0
 40
0
 40
0
 40
0
 40
1
 40
1
 40
1
 40
1
 10
47.129421
 20
144.315912
 30
0.0
 10
47.281295
 20
144.315912
 30
0.0
 10
47.347945
 20
144.232252
 30
0.0
 10
47.330417
 20
144.063639
 30
0.0
  0
SPLINE
  5
286
100
AcDbEntity
  8
Engraving
 62
7
100
AcDbSpline
 70
8
 71
3
 72
8
 73
4
 74
0
 40
0
 40
0
 40
0
 40
0
 40
1
 40
1
 40
1
 40
1
 10
47.330417
 20
144.063639
 30
0.0
 10
47.315977
 20
143.924889
 30
0.0
 10
47.265187
 20
143.230953
 30
0.0
 10
47.217442
 20
142.521561
 30
0.0
  0
SPLINE
  5
287
100
AcDbEntity
  8
Engraving
 62
7
100
AcDbSpline
 70
8
 71
3
 72
8
 73
4
 74
0
 40
0
 40
0
 40
0
 40
0
 40
1
 40
1
 40
1
 40
1
 10
47.217442
 20
142.521561
 30
0.0
 10
47.141352
 20
141.390340
 30
0.0
 10
47.156212
 20
141.221962
 30
0.0
 10
47.338268
 20
141.152098
 30
0.0
  0
SPLINE
  5
288
100
AcDbEntity
  8
Engraving
 62
7
100
AcDbSpline
 70
8
 71
3
 72
8
 73
4
 74
0
 40
0
 40
0
 40
0
 40
0
 40
1
 40
1
 40
1
 40
1
 10
47.338268
 20
141.152098
 30
0.0
 10
47.581658
 20
141.058698
 30
0.0
 10
47.616801
 20
140.641349
 30
0.0
 10
47.388178
 20
140.559373
 30
0.0
  0
SPLINE
  5
289
100
AcDbEntity
  8
Engraving
 62
7
100
AcDbSpline
 70
8
 71
3
 72
8
 73
4
 74
0
 40
0
 40
0
 40
0
 40
0
 40
1
 40
1
 40
1
 40
1
 10
47.388178
 20
140.559373
 30
0.0
 10
47.301458
 20
140.528273
 30
0.0
 10
47.125692
 20
140.556873
 30
0.0
 10
46.997572
 20
140.622903
 30
0.0
  0
SPLINE
  5
28a
100
AcDbEntity
  8
Engraving
 62
7
100
AcDbSpline
 70
8
 71
3
 72
8
 73
4
 74
0
 40
0
 40
0
 40
0
 40
0
 40
1
 40
1
 40
1
 40
1
 10
46.997572
 20
140.622903
 30
0.0
 10
46.743304
 20
140.753954
 30
0.0
 10
45.596619
 20
140.700973
 30
0.0
 10
45.244925
 20
140.541923
 30
0.0
  0
SPLINE
  5
28b
100
AcDbEntity
  8
Engraving
 62
7
100
AcDbSpline
 70
8
 71
3
 72
8
 73
4
 74
0
 40
0
 40
0
 40
0
 40
0
 40
1
 40
1
 40
1
 40
1
 10
45.244925
 20
140.541923
 30
0.0
 10
45.093465
 20
140.473423
 30
0.0
 10
45.000948
 20
140.505903
 30
0.0
 10
44.947004
 20
140.646476
 30
0.0
  0
LINE
  5
28c
100
AcDbEntity
  8
Engraving
 62
7
100
AcDbLine
 10
44.947004
 20
140.646476
 30
0.0
 11
44.947002
 21
140.646473
 31
0.0
  0
SPLINE
  5
28d
100
AcDbEntity
  8
Engraving
 62
7
100
AcDbSpline
 70
8
 71
3
 72
8
 73
4
 74
0
 40
0
 40
0
 40
0
 40
0
 40
1
 40
1
 40
1
 40
1
 10
125.232400
 20
131.201495
 30
0.0
 10
126.565610
 20
131.455863
 30
0.0
 10
128.399790
 20
132.107351
 30
0.0
 10
129.473980
 20
132.708059
 30
0.0
  0
SPLINE
  5
28e
100
AcDbEntity
  8
Engraving
 62
7
100
AcDbSpline
 70
8
 71
3
 72
8
 73
4
 74
0
 40
0
 40
0
 40
0
 40
0
 40
1
 40
1
 40
1
 40
1
 10
129.473980
 20
132.708059
 30
0.0
 10
130.618600
 20
133.348172
 30
0.0
 10
131.800940
 20
134.489064
 30
0.0
 10
132.316460
 20
135.450879
 30
0.0
  0
SPLINE
  5
28f
100
AcDbEntity
  8
Engraving
 62
7
100
AcDbSpline
 70
8
 71
3
 72
8
 73
4
 74
0
 40
0
 40
0
 40
0
 40
0
 40
1
 40
1
 40
1
 40
1
 10
132.316460
 20
135.450879
 30
0.0
 10
132.689170
 20
136.146290
 30
0.0
 10
132.741410
 20
136.358862
 30
0.0
 10
132.743680
 20
137.189201
 30
0.0
  0
SPLINE
  5
290
100
AcDbEntity
  8
Engraving
 62
7
100
AcDbSpline
 70
8
 71
3
 72
8
 73
4
 74
0
 40
0
 40
0
 40
0
 40
0
 40
1
 40
1
 40
1
 40
1
 10
132.743680
 20
137.189201
 30
0.0
 10
132.745680
 20
137.972718
 30
0.0
 10
132.688880
 20
138.243563
 30
0.0
 10
132.412170
 20
138.765906
 30
0.0
  0
SPLINE
  5
291
100
AcDbEntity
  8
Engraving
 62
7
100
AcDbSpline
 70
8
 71
3
 72
8
 73
4
 74
0
 40
0
 40
0
 40
0
 40
0
 40
1
 40
1
 40
1
 40
1
 10
132.412170
 20
138.765906
 30
0.0
 10
131.537780
 20
140.416586
 30
0.0
 10
129.213370
 20
141.730115
 30
0.0
 10
127.166740
 20
141.730115
 30
0.0
  0
SPLINE
  5
292
100
AcDbEntity
  8
Engraving
 62
7
100
AcDbSpline
 70
8
 71
3
 72
8
 73
4
 74
0
 40
0
 40
0
 40
0
 40
0
 40
1
 40
1
 40
1
 40
1
 10
127.166740
 20
141.730115
 30
0.0
 10
126.770300
 20
141.730115
 30
0.0
 10
126.481880
 20
141.797955
 30
0.0
 10
126.385730
 20
141.913794
 30
0.0
  0
SPLINE
  5
293
100
AcDbEntity
  8
Engraving
 62
7
100
AcDbSpline
 70
8
 71
3
 72
8
 73
4
 74
0
 40
0
 40
0
 40
0
 40
0
 40
1
 40
1
 40
1
 40
1
 10
126.385730
 20
141.913794
 30
0.0
 10
126.165560
 20
142.179099
 30
0.0
 10
126.306530
 20
142.317560
 30
0.0
 10
126.874110
 20
142.393700
 30
0.0
  0
SPLINE
  5
294
100
AcDbEntity
  8
Engraving
 62
7
100
AcDbSpline
 70
8
 71
3
 72
8
 73
4
 74
0
 40
0
 40
0
 40
0
 40
0
 40
1
 40
1
 40
1
 40
1
 10
126.874110
 20
142.393700
 30
0.0
 10
128.203620
 20
142.572023
 30
0.0
 10
129.760660
 20
143.735048
 30
0.0
 10
130.410250
 20
145.034961
 30
0.0
  0
SPLINE
  5
295
100
AcDbEntity
  8
Engraving
 62
7
100
AcDbSpline
 70
8
 71
3
 72
8
 73
4
 74
0
 40
0
 40
0
 40
0
 40
0
 40
1
 40
1
 40
1
 40
1
 10
130.410250
 20
145.034961
 30
0.0
 10
131.592770
 20
147.401387
 30
0.0
 10
130.135830
 20
149.745780
 30
0.0
 10
126.940820
 20
150.617715
 30
0.0
  0
SPLINE
  5
296
100
AcDbEntity
  8
Engraving
 62
7
100
AcDbSpline
 70
8
 71
3
 72
8
 73
4
 74
0
 40
0
 40
0
 40
0
 40
0
 40
1
 40
1
 40
1
 40
1
 10
126.940820
 20
150.617715
 30
0.0
 10
124.547420
 20
151.270889
 30
0.0
 10
120.228570
 20
150.819630
 30
0.0
 10
119.266940
 20
149.815899
 30
0.0
  0
LINE
  5
297
100
AcDbEntity
  8
Engraving
 62
7
100
AcDbLine
 10
119.266940
 20
149.815899
 30
0.0
 11
118.910860
 21
149.444230
 31
0.0
  0
LINE
  5
298
100
AcDbEntity
  8
Engraving
 62
7
100
AcDbLine
 10
118.910860
 20
149.444230
 30
0.0
 11
119.229590
 21
148.772118
 31
0.0
  0
SPLINE
  5
299
100
AcDbEntity
  8
Engraving
 62
7
100
AcDbSpline
 70
8
 71
3
 72
8
 73
4
 74
0
 40
0
 40
0
 40
0
 40
0
 40
1
 40
1
 40
1
 40
1
 10
119.229590
 20
148.772118
 30
0.0
 10
119.821980
 20
147.522997
 30
0.0
 10
119.782970
 20
146.379931
 30
0.0
 10
119.112860
 20
145.350133
 30
0.0
  0
SPLINE
  5
29a
100
AcDbEntity
  8
Engraving
 62
7
100
AcDbSpline
 70
8
 71
3
 72
8
 73
4
 74
0
 40
0
 40
0
 40
0
 40
0
 40
1
 40
1
 40
1
 40
1
 10
119.112860
 20
145.350133
 30
0.0
 10
118.822450
 20
144.903824
 30
0.0
 10
118.796540
 20
144.730692
 30
0.0
 10
118.737810
 20
142.843117
 30
0.0
  0
SPLINE
  5
29b
100
AcDbEntity
  8
Engraving
 62
7
100
AcDbSpline
 70
8
 71
3
 72
8
 73
4
 74
0
 40
0
 40
0
 40
0
 40
0
 40
1
 40
1
 40
1
 40
1
 10
118.737810
 20
142.843117
 30
0.0
 10
118.678210
 20
140.927321
 30
0.0
 10
118.687110
 20
140.820721
 30
0.0
 10
118.901500
 20
140.909923
 30
0.0
  0
SPLINE
  5
29c
100
AcDbEntity
  8
Engraving
 62
7
100
AcDbSpline
 70
8
 71
3
 72
8
 73
4
 74
0
 40
0
 40
0
 40
0
 40
0
 40
1
 40
1
 40
1
 40
1
 10
118.901500
 20
140.909923
 30
0.0
 10
119.741740
 20
141.259671
 30
0.0
 10
119.821210
 20
141.276854
 30
0.0
 10
119.959450
 20
141.138626
 30
0.0
  0
SPLINE
  5
29d
100
AcDbEntity
  8
Engraving
 62
7
100
AcDbSpline
 70
8
 71
3
 72
8
 73
4
 74
0
 40
0
 40
0
 40
0
 40
0
 40
1
 40
1
 40
1
 40
1
 10
119.959450
 20
141.138626
 30
0.0
 10
120.063250
 20
141.034825
 30
0.0
 10
119.918950
 20
140.881623
 30
0.0
 10
119.411420
 20
140.556992
 30
0.0
  0
SPLINE
  5
29e
100
AcDbEntity
  8
Engraving
 62
7
100
AcDbSpline
 70
8
 71
3
 72
8
 73
4
 74
0
 40
0
 40
0
 40
0
 40
0
 40
1
 40
1
 40
1
 40
1
 10
119.411420
 20
140.556992
 30
0.0
 10
119.032490
 20
140.314598
 30
0.0
 10
118.601460
 20
139.946335
 30
0.0
 10
118.453560
 20
139.738627
 30
0.0
  0
LINE
  5
29f
100
AcDbEntity
  8
Engraving
 62
7
100
AcDbLine
 10
118.453560
 20
139.738627
 30
0.0
 11
118.184650
 21
139.360978
 31
0.0
  0
LINE
  5
2a0
100
AcDbEntity
  8
Engraving
 62
7
100
AcDbLine
 10
118.184650
 20
139.360978
 30
0.0
 11
118.530340
 21
139.140771
 31
0.0
  0
SPLINE
  5
2a1
100
AcDbEntity
  8
Engraving
 62
7
100
AcDbSpline
 70
8
 71
3
 72
8
 73
4
 74
0
 40
0
 40
0
 40
0
 40
0
 40
1
 40
1
 40
1
 40
1
 10
118.530340
 20
139.140771
 30
0.0
 10
119.702910
 20
138.393834
 30
0.0
 10
119.973580
 20
136.830422
 30
0.0
 10
119.194700
 20
135.303660
 30
0.0
  0
SPLINE
  5
2a2
100
AcDbEntity
  8
Engraving
 62
7
100
AcDbSpline
 70
8
 71
3
 72
8
 73
4
 74
0
 40
0
 40
0
 40
0
 40
0
 40
1
 40
1
 40
1
 40
1
 10
119.194700
 20
135.303660
 30
0.0
 10
118.846900
 20
134.621921
 30
0.0
 10
117.780770
 20
133.714058
 30
0.0
 10
116.973150
 20
133.411888
 30
0.0
  0
SPLINE
  5
2a3
100
AcDbEntity
  8
Engraving
 62
7
100
AcDbSpline
 70
8
 71
3
 72
8
 73
4
 74
0
 40
0
 40
0
 40
0
 40
0
 40
1
 40
1
 40
1
 40
1
 10
116.973150
 20
133.411888
 30
0.0
 10
116.592340
 20
133.269406
 30
0.0
 10
116.226140
 20
133.152834
 30
0.0
 10
116.159360
 20
133.152834
 30
0.0
  0
SPLINE
  5
2a4
100
AcDbEntity
  8
Engraving
 62
7
100
AcDbSpline
 70
8
 71
3
 72
8
 73
4
 74
0
 40
0
 40
0
 40
0
 40
0
 40
1
 40
1
 40
1
 40
1
 10
116.159360
 20
133.152834
 30
0.0
 10
115.971000
 20
133.152834
 30
0.0
 10
116.014900
 20
132.963898
 30
0.0
 10
116.282190
 20
132.624086
 30
0.0
  0
SPLINE
  5
2a5
100
AcDbEntity
  8
Engraving
 62
7
100
AcDbSpline
 70
8
 71
3
 72
8
 73
4
 74
0
 40
0
 40
0
 40
0
 40
0
 40
1
 40
1
 40
1
 40
1
 10
116.282190
 20
132.624086
 30
0.0
 10
116.798220
 20
131.968069
 30
0.0
 10
118.569510
 20
131.242295
 30
0.0
 10
120.224780
 20
131.008641
 30
0.0
  0
SPLINE
  5
2a6
100
AcDbEntity
  8
Engraving
 62
7
100
AcDbSpline
 70
8
 71
3
 72
8
 73
4
 74
0
 40
0
 40
0
 40
0
 40
0
 40
1
 40
1
 40
1
 40
1
 10
120.224780
 20
131.008641
 30
0.0
 10
121.313160
 20
130.855008
 30
0.0
 10
123.948280
 20
130.956501
 30
0.0
 10
125.232400
 20
131.201495
 30
0.0
  0
LINE
  5
2a7
100
AcDbEntity
  8
Engraving
 62
7
100
AcDbLine
 10
125.232400
 20
131.201495
 30
0.0
 11
125.232400
 21
131.201495
 31
0.0
  0
SPLINE
  5
2a8
100
AcDbEntity
  8
Engraving
 62
7
100
AcDbSpline
 70
8
 71
3
 72
8
 73
4
 74
0
 40
0
 40
0
 40
0
 40
0
 40
1
 40
1
 40
1
 40
1
 10
122.933410
 20
136.011927
 30
0.0
 10
122.714360
 20
136.230987
 30
0.0
 10
122.916510
 20
136.583043
 30
0.0
 10
123.685210
 20
137.321193
 30
0.0
  0
LINE
  5
2a9
100
AcDbEntity
  8
Engraving
 62
7
100
AcDbLine
 10
123.685210
 20
137.321193
 30
0.0
 11
124.521110
 21
138.123856
 31
0.0
  0
LINE
  5
2aa
100
AcDbEntity
  8
Engraving
 62
7
100
AcDbLine
 10
124.521110
 20
138.123856
 30
0.0
 11
124.050440
 21
138.519007
 31
0.0
  0
SPLINE
  5
2ab
100
AcDbEntity
  8
Engraving
 62
7
100
AcDbSpline
 70
8
 71
3
 72
8
 73
4
 74
0
 40
0
 40
0
 40
0
 40
0
 40
1
 40
1
 40
1
 40
1
 10
124.050440
 20
138.519007
 30
0.0
 10
123.741690
 20
138.778208
 30
0.0
 10
123.595590
 20
138.997153
 30
0.0
 10
123.625770
 20
139.155375
 30
0.0
  0
SPLINE
  5
2ac
100
AcDbEntity
  8
Engraving
 62
7
100
AcDbSpline
 70
8
 71
3
 72
8
 73
4
 74
0
 40
0
 40
0
 40
0
 40
0
 40
1
 40
1
 40
1
 40
1
 10
123.625770
 20
139.155375
 30
0.0
 10
123.702470
 20
139.557398
 30
0.0
 10
124.141880
 20
139.502055
 30
0.0
 10
124.705830
 20
139.019349
 30
0.0
  0
LINE
  5
2ad
100
AcDbEntity
  8
Engraving
 62
7
100
AcDbLine
 10
124.705830
 20
139.019349
 30
0.0
 11
125.231970
 21
138.568986
 31
0.0
  0
LINE
  5
2ae
100
AcDbEntity
  8
Engraving
 62
7
100
AcDbLine
 10
125.231970
 20
138.568986
 30
0.0
 11
125.844870
 21
138.911180
 31
0.0
  0
SPLINE
  5
2af
100
AcDbEntity
  8
Engraving
 62
7
100
AcDbSpline
 70
8
 71
3
 72
8
 73
4
 74
0
 40
0
 40
0
 40
0
 40
0
 40
1
 40
1
 40
1
 40
1
 10
125.844870
 20
138.911180
 30
0.0
 10
126.507460
 20
139.281115
 30
0.0
 10
126.885700
 20
139.253611
 30
0.0
 10
126.885700
 20
138.835500
 30
0.0
  0
SPLINE
  5
2b0
100
AcDbEntity
  8
Engraving
 62
7
100
AcDbSpline
 70
8
 71
3
 72
8
 73
4
 74
0
 40
0
 40
0
 40
0
 40
0
 40
1
 40
1
 40
1
 40
1
 10
126.885700
 20
138.835500
 30
0.0
 10
126.885700
 20
138.666545
 30
0.0
 10
126.717210
 20
138.495874
 30
0.0
 10
126.381160
 20
138.324433
 30
0.0
  0
SPLINE
  5
2b1
100
AcDbEntity
  8
Engraving
 62
7
100
AcDbSpline
 70
8
 71
3
 72
8
 73
4
 74
0
 40
0
 40
0
 40
0
 40
0
 40
1
 40
1
 40
1
 40
1
 10
126.381160
 20
138.324433
 30
0.0
 10
126.103650
 20
138.182863
 30
0.0
 10
125.876590
 20
138.039935
 30
0.0
 10
125.876590
 20
138.006819
 30
0.0
  0
SPLINE
  5
2b2
100
AcDbEntity
  8
Engraving
 62
7
100
AcDbSpline
 70
8
 71
3
 72
8
 73
4
 74
0
 40
0
 40
0
 40
0
 40
0
 40
1
 40
1
 40
1
 40
1
 10
125.876590
 20
138.006819
 30
0.0
 10
125.876590
 20
137.973699
 30
0.0
 10
126.075270
 20
137.670080
 30
0.0
 10
126.318090
 20
137.332102
 30
0.0
  0
SPLINE
  5
2b3
100
AcDbEntity
  8
Engraving
 62
7
100
AcDbSpline
 70
8
 71
3
 72
8
 73
4
 74
0
 40
0
 40
0
 40
0
 40
0
 40
1
 40
1
 40
1
 40
1
 10
126.318090
 20
137.332102
 30
0.0
 10
126.796150
 20
136.666675
 30
0.0
 10
126.855100
 20
136.416426
 30
0.0
 10
126.586330
 20
136.193382
 30
0.0
  0
SPLINE
  5
2b4
100
AcDbEntity
  8
Engraving
 62
7
100
AcDbSpline
 70
8
 71
3
 72
8
 73
4
 74
0
 40
0
 40
0
 40
0
 40
0
 40
1
 40
1
 40
1
 40
1
 10
126.586330
 20
136.193382
 30
0.0
 10
126.329850
 20
135.980518
 30
0.0
 10
126.115220
 20
136.118562
 30
0.0
 10
125.624320
 20
136.812092
 30
0.0
  0
SPLINE
  5
2b5
100
AcDbEntity
  8
Engraving
 62
7
100
AcDbSpline
 70
8
 71
3
 72
8
 73
4
 74
0
 40
0
 40
0
 40
0
 40
0
 40
1
 40
1
 40
1
 40
1
 10
125.624320
 20
136.812092
 30
0.0
 10
125.381510
 20
137.155136
 30
0.0
 10
125.154060
 20
137.437084
 30
0.0
 10
125.118890
 20
137.438642
 30
0.0
  0
SPLINE
  5
2b6
100
AcDbEntity
  8
Engraving
 62
7
100
AcDbSpline
 70
8
 71
3
 72
8
 73
4
 74
0
 40
0
 40
0
 40
0
 40
0
 40
1
 40
1
 40
1
 40
1
 10
125.118890
 20
137.438642
 30
0.0
 10
125.002730
 20
137.443742
 30
0.0
 10
123.688460
 20
136.322715
 30
0.0
 10
123.576860
 20
136.123291
 30
0.0
  0
SPLINE
  5
2b7
100
AcDbEntity
  8
Engraving
 62
7
100
AcDbSpline
 70
8
 71
3
 72
8
 73
4
 74
0
 40
0
 40
0
 40
0
 40
0
 40
1
 40
1
 40
1
 40
1
 10
123.576860
 20
136.123291
 30
0.0
 10
123.465660
 20
135.924612
 30
0.0
 10
123.086390
 20
135.858970
 30
0.0
 10
122.933410
 20
136.011931
 30
0.0
  0
LINE
  5
2b8
100
AcDbEntity
  8
Engraving
 62
7
100
AcDbLine
 10
122.933410
 20
136.011931
 30
0.0
 11
122.933410
 21
136.011927
 31
0.0
  0
SPLINE
  5
2b9
100
AcDbEntity
  8
Engraving
 62
7
100
AcDbSpline
 70
8
 71
3
 72
8
 73
4
 74
0
 40
0
 40
0
 40
0
 40
0
 40
1
 40
1
 40
1
 40
1
 10
122.554820
 20
143.676429
 30
0.0
 10
122.482320
 20
143.865144
 30
0.0
 10
122.994970
 20
144.646611
 30
0.0
 10
123.464620
 20
145.063540
 30
0.0
  0
LINE
  5
2ba
100
AcDbEntity
  8
Engraving
 62
7
100
AcDbLine
 10
123.464620
 20
145.063540
 30
0.0
 11
123.738460
 21
145.306624
 31
0.0
  0
LINE
  5
2bb
100
AcDbEntity
  8
Engraving
 62
7
100
AcDbLine
 10
123.738460
 20
145.306624
 30
0.0
 11
123.328490
 21
145.729597
 31
0.0
  0
SPLINE
  5
2bc
100
AcDbEntity
  8
Engraving
 62
7
100
AcDbSpline
 70
8
 71
3
 72
8
 73
4
 74
0
 40
0
 40
0
 40
0
 40
0
 40
1
 40
1
 40
1
 40
1
 10
123.328490
 20
145.729597
 30
0.0
 10
123.003320
 20
146.065096
 30
0.0
 10
122.945850
 20
146.195878
 30
0.0
 10
123.050620
 20
146.361963
 30
0.0
  0
SPLINE
  5
2bd
100
AcDbEntity
  8
Engraving
 62
7
100
AcDbSpline
 70
8
 71
3
 72
8
 73
4
 74
0
 40
0
 40
0
 40
0
 40
0
 40
1
 40
1
 40
1
 40
1
 10
123.050620
 20
146.361963
 30
0.0
 10
123.265270
 20
146.702259
 30
0.0
 10
123.431080
 20
146.684689
 30
0.0
 10
123.901320
 20
146.271813
 30
0.0
  0
LINE
  5
2be
100
AcDbEntity
  8
Engraving
 62
7
100
AcDbLine
 10
123.901320
 20
146.271813
 30
0.0
 11
124.346340
 21
145.881076
 31
0.0
  0
LINE
  5
2bf
100
AcDbEntity
  8
Engraving
 62
7
100
AcDbLine
 10
124.346340
 20
145.881076
 30
0.0
 11
125.044510
 21
146.275101
 31
0.0
  0
SPLINE
  5
2c0
100
AcDbEntity
  8
Engraving
 62
7
100
AcDbSpline
 70
8
 71
3
 72
8
 73
4
 74
0
 40
0
 40
0
 40
0
 40
0
 40
1
 40
1
 40
1
 40
1
 10
125.044510
 20
146.275101
 30
0.0
 10
125.428510
 20
146.491816
 30
0.0
 10
125.801200
 20
146.632966
 30
0.0
 10
125.872720
 20
146.588768
 30
0.0
  0
SPLINE
  5
2c1
100
AcDbEntity
  8
Engraving
 62
7
100
AcDbSpline
 70
8
 71
3
 72
8
 73
4
 74
0
 40
0
 40
0
 40
0
 40
0
 40
1
 40
1
 40
1
 40
1
 10
125.872720
 20
146.588768
 30
0.0
 10
126.155050
 20
146.414280
 30
0.0
 10
125.987910
 20
146.012524
 30
0.0
 10
125.498200
 20
145.688437
 30
0.0
  0
SPLINE
  5
2c2
100
AcDbEntity
  8
Engraving
 62
7
100
AcDbSpline
 70
8
 71
3
 72
8
 73
4
 74
0
 40
0
 40
0
 40
0
 40
0
 40
1
 40
1
 40
1
 40
1
 10
125.498200
 20
145.688437
 30
0.0
 10
125.220700
 20
145.504797
 30
0.0
 10
124.993640
 20
145.312981
 30
0.0
 10
124.993640
 20
145.262181
 30
0.0
  0
SPLINE
  5
2c3
100
AcDbEntity
  8
Engraving
 62
7
100
AcDbSpline
 70
8
 71
3
 72
8
 73
4
 74
0
 40
0
 40
0
 40
0
 40
0
 40
1
 40
1
 40
1
 40
1
 10
124.993640
 20
145.262181
 30
0.0
 10
124.993640
 20
145.211381
 30
0.0
 10
125.098700
 20
145.034449
 30
0.0
 10
125.227120
 20
144.868999
 30
0.0
  0
SPLINE
  5
2c4
100
AcDbEntity
  8
Engraving
 62
7
100
AcDbSpline
 70
8
 71
3
 72
8
 73
4
 74
0
 40
0
 40
0
 40
0
 40
0
 40
1
 40
1
 40
1
 40
1
 10
125.227120
 20
144.868999
 30
0.0
 10
125.674980
 20
144.291943
 30
0.0
 10
125.781630
 20
144.000892
 30
0.0
 10
125.617640
 20
143.803298
 30
0.0
  0
SPLINE
  5
2c5
100
AcDbEntity
  8
Engraving
 62
7
100
AcDbSpline
 70
8
 71
3
 72
8
 73
4
 74
0
 40
0
 40
0
 40
0
 40
0
 40
1
 40
1
 40
1
 40
1
 10
125.617640
 20
143.803298
 30
0.0
 10
125.369160
 20
143.503908
 30
0.0
 10
125.153260
 20
143.593447
 30
0.0
 10
124.703590
 20
144.182369
 30
0.0
  0
LINE
  5
2c6
100
AcDbEntity
  8
Engraving
 62
7
100
AcDbLine
 10
124.703590
 20
144.182369
 30
0.0
 11
124.275830
 21
144.742582
 31
0.0
  0
LINE
  5
2c7
100
AcDbEntity
  8
Engraving
 62
7
100
AcDbLine
 10
124.275830
 20
144.742582
 30
0.0
 11
123.661940
 21
144.119302
 31
0.0
  0
SPLINE
  5
2c8
100
AcDbEntity
  8
Engraving
 62
7
100
AcDbSpline
 70
8
 71
3
 72
8
 73
4
 74
0
 40
0
 40
0
 40
0
 40
0
 40
1
 40
1
 40
1
 40
1
 10
123.661940
 20
144.119302
 30
0.0
 10
123.042000
 20
143.489910
 30
0.0
 10
122.681700
 20
143.345780
 30
0.0
 10
122.554820
 20
143.676427
 30
0.0
  0
LINE
  5
2c9
100
AcDbEntity
  8
Engraving
 62
7
100
AcDbLine
 10
122.554820
 20
143.676427
 30
0.0
 11
122.554820
 21
143.676429
 31
0.0
  0
SPLINE
  5
2ca
100
AcDbEntity
  8
Engraving
 62
7
100
AcDbSpline
 70
8
 71
3
 72
8
 73
4
 74
0
 40
0
 40
0
 40
0
 40
0
 40
1
 40
1
 40
1
 40
1
 10
115.323370
 20
133.592152
 30
0.0
 10
116.990050
 20
133.945284
 30
0.0
 10
118.254080
 20
134.747489
 30
0.0
 10
118.703850
 20
135.737551
 30
0.0
  0
SPLINE
  5
2cb
100
AcDbEntity
  8
Engraving
 62
7
100
AcDbSpline
 70
8
 71
3
 72
8
 73
4
 74
0
 40
0
 40
0
 40
0
 40
0
 40
1
 40
1
 40
1
 40
1
 10
118.703850
 20
135.737551
 30
0.0
 10
118.988410
 20
136.363935
 30
0.0
 10
119.010760
 20
137.567686
 30
0.0
 10
118.747350
 20
138.077182
 30
0.0
  0
SPLINE
  5
2cc
100
AcDbEntity
  8
Engraving
 62
7
100
AcDbSpline
 70
8
 71
3
 72
8
 73
4
 74
0
 40
0
 40
0
 40
0
 40
0
 40
1
 40
1
 40
1
 40
1
 10
118.747350
 20
138.077182
 30
0.0
 10
118.641870
 20
138.281182
 30
0.0
 10
118.315500
 20
138.575283
 30
0.0
 10
118.022080
 20
138.730744
 30
0.0
  0
SPLINE
  5
2cd
100
AcDbEntity
  8
Engraving
 62
7
100
AcDbSpline
 70
8
 71
3
 72
8
 73
4
 74
0
 40
0
 40
0
 40
0
 40
0
 40
1
 40
1
 40
1
 40
1
 10
118.022080
 20
138.730744
 30
0.0
 10
117.568290
 20
138.971177
 30
0.0
 10
117.309620
 20
139.010815
 30
0.0
 10
116.290300
 20
138.996115
 30
0.0
  0
SPLINE
  5
2ce
100
AcDbEntity
  8
Engraving
 62
7
100
AcDbSpline
 70
8
 71
3
 72
8
 73
4
 74
0
 40
0
 40
0
 40
0
 40
0
 40
1
 40
1
 40
1
 40
1
 10
116.290300
 20
138.996115
 30
0.0
 10
115.493020
 20
138.984615
 30
0.0
 10
114.804610
 20
138.892714
 30
0.0
 10
114.233200
 20
138.721492
 30
0.0
  0
SPLINE
  5
2cf
100
AcDbEntity
  8
Engraving
 62
7
100
AcDbSpline
 70
8
 71
3
 72
8
 73
4
 74
0
 40
0
 40
0
 40
0
 40
0
 40
1
 40
1
 40
1
 40
1
 10
114.233200
 20
138.721492
 30
0.0
 10
113.760850
 20
138.579954
 30
0.0
 10
113.292580
 20
138.495546
 30
0.0
 10
113.192580
 20
138.533921
 30
0.0
  0
SPLINE
  5
2d0
100
AcDbEntity
  8
Engraving
 62
7
100
AcDbSpline
 70
8
 71
3
 72
8
 73
4
 74
0
 40
0
 40
0
 40
0
 40
0
 40
1
 40
1
 40
1
 40
1
 10
113.192580
 20
138.533921
 30
0.0
 10
112.935500
 20
138.632571
 30
0.0
 10
112.954240
 20
139.508006
 30
0.0
 10
113.218080
 20
139.727011
 30
0.0
  0
SPLINE
  5
2d1
100
AcDbEntity
  8
Engraving
 62
7
100
AcDbSpline
 70
8
 71
3
 72
8
 73
4
 74
0
 40
0
 40
0
 40
0
 40
0
 40
1
 40
1
 40
1
 40
1
 10
113.218080
 20
139.727011
 30
0.0
 10
113.366430
 20
139.850132
 30
0.0
 10
113.734410
 20
139.888734
 30
0.0
 10
114.510960
 20
139.862635
 30
0.0
  0
SPLINE
  5
2d2
100
AcDbEntity
  8
Engraving
 62
7
100
AcDbSpline
 70
8
 71
3
 72
8
 73
4
 74
0
 40
0
 40
0
 40
0
 40
0
 40
1
 40
1
 40
1
 40
1
 10
114.510960
 20
139.862635
 30
0.0
 10
115.440840
 20
139.831375
 30
0.0
 10
115.676820
 20
139.867635
 30
0.0
 10
116.156720
 20
140.115918
 30
0.0
  0
SPLINE
  5
2d3
100
AcDbEntity
  8
Engraving
 62
7
100
AcDbSpline
 70
8
 71
3
 72
8
 73
4
 74
0
 40
0
 40
0
 40
0
 40
0
 40
1
 40
1
 40
1
 40
1
 10
116.156720
 20
140.115918
 30
0.0
 10
116.844210
 20
140.471503
 30
0.0
 10
117.170500
 20
140.900402
 30
0.0
 10
117.259750
 20
141.565801
 30
0.0
  0
SPLINE
  5
2d4
100
AcDbEntity
  8
Engraving
 62
7
100
AcDbSpline
 70
8
 71
3
 72
8
 73
4
 74
0
 40
0
 40
0
 40
0
 40
0
 40
1
 40
1
 40
1
 40
1
 10
117.259750
 20
141.565801
 30
0.0
 10
117.347650
 20
142.220698
 30
0.0
 10
117.017570
 20
142.935023
 30
0.0
 10
116.504600
 20
143.200286
 30
0.0
  0
SPLINE
  5
2d5
100
AcDbEntity
  8
Engraving
 62
7
100
AcDbSpline
 70
8
 71
3
 72
8
 73
4
 74
0
 40
0
 40
0
 40
0
 40
0
 40
1
 40
1
 40
1
 40
1
 10
116.504600
 20
143.200286
 30
0.0
 10
116.070680
 20
143.424682
 30
0.0
 10
114.827710
 20
143.451752
 30
0.0
 10
114.155740
 20
143.251446
 30
0.0
  0
SPLINE
  5
2d6
100
AcDbEntity
  8
Engraving
 62
7
100
AcDbSpline
 70
8
 71
3
 72
8
 73
4
 74
0
 40
0
 40
0
 40
0
 40
0
 40
1
 40
1
 40
1
 40
1
 10
114.155740
 20
143.251446
 30
0.0
 10
113.562670
 20
143.074659
 30
0.0
 10
113.342510
 20
143.266946
 30
0.0
 10
113.451740
 20
143.866348
 30
0.0
  0
SPLINE
  5
2d7
100
AcDbEntity
  8
Engraving
 62
7
100
AcDbSpline
 70
8
 71
3
 72
8
 73
4
 74
0
 40
0
 40
0
 40
0
 40
0
 40
1
 40
1
 40
1
 40
1
 10
113.451740
 20
143.866348
 30
0.0
 10
113.584360
 20
144.594300
 30
0.0
 10
113.757470
 20
144.693430
 30
0.0
 10
114.600420
 20
144.524140
 30
0.0
  0
SPLINE
  5
2d8
100
AcDbEntity
  8
Engraving
 62
7
100
AcDbSpline
 70
8
 71
3
 72
8
 73
4
 74
0
 40
0
 40
0
 40
0
 40
0
 40
1
 40
1
 40
1
 40
1
 10
114.600420
 20
144.524140
 30
0.0
 10
116.180760
 20
144.206765
 30
0.0
 10
117.401760
 20
144.476700
 30
0.0
 10
118.259290
 20
145.333032
 30
0.0
  0
SPLINE
  5
2d9
100
AcDbEntity
  8
Engraving
 62
7
100
AcDbSpline
 70
8
 71
3
 72
8
 73
4
 74
0
 40
0
 40
0
 40
0
 40
0
 40
1
 40
1
 40
1
 40
1
 10
118.259290
 20
145.333032
 30
0.0
 10
118.936460
 20
146.009260
 30
0.0
 10
119.153570
 20
146.814700
 30
0.0
 10
118.938230
 20
147.851964
 30
0.0
  0
SPLINE
  5
2da
100
AcDbEntity
  8
Engraving
 62
7
100
AcDbSpline
 70
8
 71
3
 72
8
 73
4
 74
0
 40
0
 40
0
 40
0
 40
0
 40
1
 40
1
 40
1
 40
1
 10
118.938230
 20
147.851964
 30
0.0
 10
118.736320
 20
148.824586
 30
0.0
 10
117.921200
 20
149.688027
 30
0.0
 10
116.929560
 20
149.979728
 30
0.0
  0
SPLINE
  5
2db
100
AcDbEntity
  8
Engraving
 62
7
100
AcDbSpline
 70
8
 71
3
 72
8
 73
4
 74
0
 40
0
 40
0
 40
0
 40
0
 40
1
 40
1
 40
1
 40
1
 10
116.929560
 20
149.979728
 30
0.0
 10
115.290510
 20
150.461876
 30
0.0
 10
112.550500
 20
149.982128
 30
0.0
 10
111.016210
 20
148.944214
 30
0.0
  0
SPLINE
  5
2dc
100
AcDbEntity
  8
Engraving
 62
7
100
AcDbSpline
 70
8
 71
3
 72
8
 73
4
 74
0
 40
0
 40
0
 40
0
 40
0
 40
1
 40
1
 40
1
 40
1
 10
111.016210
 20
148.944214
 30
0.0
 10
110.882480
 20
148.853754
 30
0.0
 10
110.902090
 20
148.679815
 30
0.0
 10
111.118230
 20
148.038170
 30
0.0
  0
SPLINE
  5
2dd
100
AcDbEntity
  8
Engraving
 62
7
100
AcDbSpline
 70
8
 71
3
 72
8
 73
4
 74
0
 40
0
 40
0
 40
0
 40
0
 40
1
 40
1
 40
1
 40
1
 10
111.118230
 20
148.038170
 30
0.0
 10
111.668540
 20
146.404627
 30
0.0
 10
111.542730
 20
143.888762
 30
0.0
 10
110.748550
 20
140.645491
 30
0.0
  0
SPLINE
  5
2de
100
AcDbEntity
  8
Engraving
 62
7
100
AcDbSpline
 70
8
 71
3
 72
8
 73
4
 74
0
 40
0
 40
0
 40
0
 40
0
 40
1
 40
1
 40
1
 40
1
 10
110.748550
 20
140.645491
 30
0.0
 10
110.371230
 20
139.104500
 30
0.0
 10
109.617180
 20
136.940683
 30
0.0
 10
109.113370
 20
135.953134
 30
0.0
  0
SPLINE
  5
2df
100
AcDbEntity
  8
Engraving
 62
7
100
AcDbSpline
 70
8
 71
3
 72
8
 73
4
 74
0
 40
0
 40
0
 40
0
 40
0
 40
1
 40
1
 40
1
 40
1
 10
109.113370
 20
135.953134
 30
0.0
 10
108.853820
 20
135.444361
 30
0.0
 10
108.850120
 20
135.394265
 30
0.0
 10
109.042370
 20
134.988977
 30
0.0
  0
SPLINE
  5
2e0
100
AcDbEntity
  8
Engraving
 62
7
100
AcDbSpline
 70
8
 71
3
 72
8
 73
4
 74
0
 40
0
 40
0
 40
0
 40
0
 40
1
 40
1
 40
1
 40
1
 10
109.042370
 20
134.988977
 30
0.0
 10
109.299480
 20
134.447165
 30
0.0
 10
110.084290
 20
133.921871
 30
0.0
 10
111.055500
 20
133.641535
 30
0.0
  0
SPLINE
  5
2e1
100
AcDbEntity
  8
Engraving
 62
7
100
AcDbSpline
 70
8
 71
3
 72
8
 73
4
 74
0
 40
0
 40
0
 40
0
 40
0
 40
1
 40
1
 40
1
 40
1
 10
111.055500
 20
133.641535
 30
0.0
 10
112.010600
 20
133.365851
 30
0.0
 10
114.139010
 20
133.341224
 30
0.0
 10
115.323310
 20
133.592145
 30
0.0
  0
LINE
  5
2e2
100
AcDbEntity
  8
Engraving
 62
7
100
AcDbLine
 10
115.323310
 20
133.592145
 30
0.0
 11
115.323370
 21
133.592152
 31
0.0
  0
SPLINE
  5
2e3
100
AcDbEntity
  8
Engraving
 62
7
100
AcDbSpline
 70
8
 71
3
 72
8
 73
4
 74
0
 40
0
 40
0
 40
0
 40
0
 40
1
 40
1
 40
1
 40
1
 10
110.316340
 20
135.636945
 30
0.0
 10
110.174280
 20
135.778999
 30
0.0
 10
110.229840
 20
135.927835
 30
0.0
 10
110.424880
 20
135.927835
 30
0.0
  0
SPLINE
  5
2e4
100
AcDbEntity
  8
Engraving
 62
7
100
AcDbSpline
 70
8
 71
3
 72
8
 73
4
 74
0
 40
0
 40
0
 40
0
 40
0
 40
1
 40
1
 40
1
 40
1
 10
110.424880
 20
135.927835
 30
0.0
 10
110.528960
 20
135.927835
 30
0.0
 10
110.614090
 20
135.874425
 30
0.0
 10
110.614090
 20
135.809143
 30
0.0
  0
SPLINE
  5
2e5
100
AcDbEntity
  8
Engraving
 62
7
100
AcDbSpline
 70
8
 71
3
 72
8
 73
4
 74
0
 40
0
 40
0
 40
0
 40
0
 40
1
 40
1
 40
1
 40
1
 10
110.614090
 20
135.809143
 30
0.0
 10
110.614090
 20
135.650089
 30
0.0
 10
110.417110
 20
135.536172
 30
0.0
 10
110.316340
 20
135.636945
 30
0.0
  0
LINE
  5
2e6
100
AcDbEntity
  8
Engraving
 62
7
100
AcDbLine
 10
110.316340
 20
135.636945
 30
0.0
 11
110.316340
 21
135.636945
 31
0.0
  0
SPLINE
  5
2e7
100
AcDbEntity
  8
Engraving
 62
7
100
AcDbSpline
 70
8
 71
3
 72
8
 73
4
 74
0
 40
0
 40
0
 40
0
 40
0
 40
1
 40
1
 40
1
 40
1
 10
59.320327
 20
134.258348
 30
0.0
 10
61.335374
 20
135.206380
 30
0.0
 10
62.808362
 20
137.600827
 30
0.0
 10
62.808362
 20
139.928407
 30
0.0
  0
SPLINE
  5
2e8
100
AcDbEntity
  8
Engraving
 62
7
100
AcDbSpline
 70
8
 71
3
 72
8
 73
4
 74
0
 40
0
 40
0
 40
0
 40
0
 40
1
 40
1
 40
1
 40
1
 10
62.808362
 20
139.928407
 30
0.0
 10
62.808362
 20
142.052521
 30
0.0
 10
61.795992
 20
142.865342
 30
0.0
 10
59.150408
 20
142.865342
 30
0.0
  0
SPLINE
  5
2e9
100
AcDbEntity
  8
Engraving
 62
7
100
AcDbSpline
 70
8
 71
3
 72
8
 73
4
 74
0
 40
0
 40
0
 40
0
 40
0
 40
1
 40
1
 40
1
 40
1
 10
59.150408
 20
142.865342
 30
0.0
 10
57.714650
 20
142.865342
 30
0.0
 10
56.814086
 20
142.633241
 30
0.0
 10
56.347772
 20
142.143022
 30
0.0
  0
SPLINE
  5
2ea
100
AcDbEntity
  8
Engraving
 62
7
100
AcDbSpline
 70
8
 71
3
 72
8
 73
4
 74
0
 40
0
 40
0
 40
0
 40
0
 40
1
 40
1
 40
1
 40
1
 10
56.347772
 20
142.143022
 30
0.0
 10
55.737582
 20
141.501561
 30
0.0
 10
55.769661
 20
140.832304
 30
0.0
 10
56.431352
 20
140.398734
 30
0.0
  0
SPLINE
  5
2eb
100
AcDbEntity
  8
Engraving
 62
7
100
AcDbSpline
 70
8
 71
3
 72
8
 73
4
 74
0
 40
0
 40
0
 40
0
 40
0
 40
1
 40
1
 40
1
 40
1
 10
56.431352
 20
140.398734
 30
0.0
 10
56.700940
 20
140.222095
 30
0.0
 10
56.803948
 20
140.221707
 30
0.0
 10
57.466935
 20
140.394734
 30
0.0
  0
SPLINE
  5
2ec
100
AcDbEntity
  8
Engraving
 62
7
100
AcDbSpline
 70
8
 71
3
 72
8
 73
4
 74
0
 40
0
 40
0
 40
0
 40
0
 40
1
 40
1
 40
1
 40
1
 10
57.466935
 20
140.394734
 30
0.0
 10
58.072853
 20
140.552963
 30
0.0
 10
58.232317
 20
140.557825
 30
0.0
 10
58.367936
 20
140.422204
 30
0.0
  0
SPLINE
  5
2ed
100
AcDbEntity
  8
Engraving
 62
7
100
AcDbSpline
 70
8
 71
3
 72
8
 73
4
 74
0
 40
0
 40
0
 40
0
 40
0
 40
1
 40
1
 40
1
 40
1
 10
58.367936
 20
140.422204
 30
0.0
 10
58.503557
 20
140.286585
 30
0.0
 10
58.430956
 20
140.174062
 30
0.0
 10
57.957922
 20
139.786420
 30
0.0
  0
SPLINE
  5
2ee
100
AcDbEntity
  8
Engraving
 62
7
100
AcDbSpline
 70
8
 71
3
 72
8
 73
4
 74
0
 40
0
 40
0
 40
0
 40
0
 40
1
 40
1
 40
1
 40
1
 10
57.957922
 20
139.786420
 30
0.0
 10
56.935140
 20
138.948328
 30
0.0
 10
55.958129
 20
138.842493
 30
0.0
 10
55.301919
 20
139.498707
 30
0.0
  0
SPLINE
  5
2ef
100
AcDbEntity
  8
Engraving
 62
7
100
AcDbSpline
 70
8
 71
3
 72
8
 73
4
 74
0
 40
0
 40
0
 40
0
 40
0
 40
1
 40
1
 40
1
 40
1
 10
55.301919
 20
139.498707
 30
0.0
 10
54.190538
 20
140.610085
 30
0.0
 10
54.526963
 20
142.929044
 30
0.0
 10
56.015537
 20
144.417618
 30
0.0
  0
SPLINE
  5
2f0
100
AcDbEntity
  8
Engraving
 62
7
100
AcDbSpline
 70
8
 71
3
 72
8
 73
4
 74
0
 40
0
 40
0
 40
0
 40
0
 40
1
 40
1
 40
1
 40
1
 10
56.015537
 20
144.417618
 30
0.0
 10
56.651260
 20
145.053343
 30
0.0
 10
56.805067
 20
145.146642
 30
0.0
 10
57.160752
 20
145.112297
 30
0.0
  0
SPLINE
  5
2f1
100
AcDbEntity
  8
Engraving
 62
7
100
AcDbSpline
 70
8
 71
3
 72
8
 73
4
 74
0
 40
0
 40
0
 40
0
 40
0
 40
1
 40
1
 40
1
 40
1
 10
57.160752
 20
145.112297
 30
0.0
 10
57.458220
 20
145.083577
 30
0.0
 10
57.581962
 20
145.002999
 30
0.0
 10
57.609094
 20
144.820354
 30
0.0
  0
SPLINE
  5
2f2
100
AcDbEntity
  8
Engraving
 62
7
100
AcDbSpline
 70
8
 71
3
 72
8
 73
4
 74
0
 40
0
 40
0
 40
0
 40
0
 40
1
 40
1
 40
1
 40
1
 10
57.609094
 20
144.820354
 30
0.0
 10
57.709259
 20
144.146127
 30
0.0
 10
57.799916
 20
143.974194
 30
0.0
 10
58.176216
 20
143.744753
 30
0.0
  0
SPLINE
  5
2f3
100
AcDbEntity
  8
Engraving
 62
7
100
AcDbSpline
 70
8
 71
3
 72
8
 73
4
 74
0
 40
0
 40
0
 40
0
 40
0
 40
1
 40
1
 40
1
 40
1
 10
58.176216
 20
143.744753
 30
0.0
 10
59.050679
 20
143.211573
 30
0.0
 10
60.481668
 20
143.535210
 30
0.0
 10
61.282467
 20
144.447270
 30
0.0
  0
SPLINE
  5
2f4
100
AcDbEntity
  8
Engraving
 62
7
100
AcDbSpline
 70
8
 71
3
 72
8
 73
4
 74
0
 40
0
 40
0
 40
0
 40
0
 40
1
 40
1
 40
1
 40
1
 10
61.282467
 20
144.447270
 30
0.0
 10
61.983358
 20
145.245543
 30
0.0
 10
62.230428
 20
145.936490
 30
0.0
 10
62.227747
 20
147.090811
 30
0.0
  0
SPLINE
  5
2f5
100
AcDbEntity
  8
Engraving
 62
7
100
AcDbSpline
 70
8
 71
3
 72
8
 73
4
 74
0
 40
0
 40
0
 40
0
 40
0
 40
1
 40
1
 40
1
 40
1
 10
62.227747
 20
147.090811
 30
0.0
 10
62.224747
 20
148.255492
 30
0.0
 10
62.039731
 20
148.779022
 30
0.0
 10
61.366334
 20
149.524390
 30
0.0
  0
SPLINE
  5
2f6
100
AcDbEntity
  8
Engraving
 62
7
100
AcDbSpline
 70
8
 71
3
 72
8
 73
4
 74
0
 40
0
 40
0
 40
0
 40
0
 40
1
 40
1
 40
1
 40
1
 10
61.366334
 20
149.524390
 30
0.0
 10
60.202712
 20
150.812381
 30
0.0
 10
58.108508
 20
151.022240
 30
0.0
 10
56.171197
 20
150.044992
 30
0.0
  0
SPLINE
  5
2f7
100
AcDbEntity
  8
Engraving
 62
7
100
AcDbSpline
 70
8
 71
3
 72
8
 73
4
 74
0
 40
0
 40
0
 40
0
 40
0
 40
1
 40
1
 40
1
 40
1
 10
56.171197
 20
150.044992
 30
0.0
 10
53.634041
 20
148.765156
 30
0.0
 10
51.328205
 20
145.388497
 30
0.0
 10
51.330959
 20
142.956961
 30
0.0
  0
SPLINE
  5
2f8
100
AcDbEntity
  8
Engraving
 62
7
100
AcDbSpline
 70
8
 71
3
 72
8
 73
4
 74
0
 40
0
 40
0
 40
0
 40
0
 40
1
 40
1
 40
1
 40
1
 10
51.330959
 20
142.956961
 30
0.0
 10
51.332459
 20
141.600300
 30
0.0
 10
51.541577
 20
140.021903
 30
0.0
 10
51.904991
 20
138.623392
 30
0.0
  0
SPLINE
  5
2f9
100
AcDbEntity
  8
Engraving
 62
7
100
AcDbSpline
 70
8
 71
3
 72
8
 73
4
 74
0
 40
0
 40
0
 40
0
 40
0
 40
1
 40
1
 40
1
 40
1
 10
51.904991
 20
138.623392
 30
0.0
 10
52.082945
 20
137.938591
 30
0.0
 10
52.234544
 20
137.094494
 30
0.0
 10
52.241883
 20
136.747618
 30
0.0
  0
SPLINE
  5
2fa
100
AcDbEntity
  8
Engraving
 62
7
100
AcDbSpline
 70
8
 71
3
 72
8
 73
4
 74
0
 40
0
 40
0
 40
0
 40
0
 40
1
 40
1
 40
1
 40
1
 10
52.241883
 20
136.747618
 30
0.0
 10
52.257873
 20
135.991864
 30
0.0
 10
52.498031
 20
135.623129
 30
0.0
 10
53.455147
 20
134.884717
 30
0.0
  0
SPLINE
  5
2fb
100
AcDbEntity
  8
Engraving
 62
7
100
AcDbSpline
 70
8
 71
3
 72
8
 73
4
 74
0
 40
0
 40
0
 40
0
 40
0
 40
1
 40
1
 40
1
 40
1
 10
53.455147
 20
134.884717
 30
0.0
 10
54.522164
 20
134.061520
 30
0.0
 10
55.528869
 20
133.768414
 30
0.0
 10
57.132207
 20
133.814134
 30
0.0
  0
SPLINE
  5
2fc
100
AcDbEntity
  8
Engraving
 62
7
100
AcDbSpline
 70
8
 71
3
 72
8
 73
4
 74
0
 40
0
 40
0
 40
0
 40
0
 40
1
 40
1
 40
1
 40
1
 10
57.132207
 20
133.814134
 30
0.0
 10
58.318242
 20
133.847934
 30
0.0
 10
58.546890
 20
133.894364
 30
0.0
 10
59.320313
 20
134.258242
 30
0.0
  0
LINE
  5
2fd
100
AcDbEntity
  8
Engraving
 62
7
100
AcDbLine
 10
59.320313
 20
134.258242
 30
0.0
 11
59.320327
 21
134.258348
 31
0.0
  0
SPLINE
  5
2fe
100
AcDbEntity
  8
Engraving
 62
7
100
AcDbSpline
 70
8
 71
3
 72
8
 73
4
 74
0
 40
0
 40
0
 40
0
 40
0
 40
1
 40
1
 40
1
 40
1
 10
83.443554
 20
134.177198
 30
0.0
 10
84.731974
 20
134.659256
 30
0.0
 10
86.027175
 20
136.267777
 30
0.0
 10
86.388335
 20
137.834341
 30
0.0
  0
SPLINE
  5
2ff
100
AcDbEntity
  8
Engraving
 62
7
100
AcDbSpline
 70
8
 71
3
 72
8
 73
4
 74
0
 40
0
 40
0
 40
0
 40
0
 40
1
 40
1
 40
1
 40
1
 10
86.388335
 20
137.834341
 30
0.0
 10
86.877819
 20
139.957571
 30
0.0
 10
86.071235
 20
141.477836
 30
0.0
 10
84.455245
 20
141.477836
 30
0.0
  0
SPLINE
  5
300
100
AcDbEntity
  8
Engraving
 62
7
100
AcDbSpline
 70
8
 71
3
 72
8
 73
4
 74
0
 40
0
 40
0
 40
0
 40
0
 40
1
 40
1
 40
1
 40
1
 10
84.455245
 20
141.477836
 30
0.0
 10
83.693427
 20
141.477836
 30
0.0
 10
83.313644
 20
141.315167
 30
0.0
 10
82.489365
 20
140.635819
 30
0.0
  0
SPLINE
  5
301
100
AcDbEntity
  8
Engraving
 62
7
100
AcDbSpline
 70
8
 71
3
 72
8
 73
4
 74
0
 40
0
 40
0
 40
0
 40
0
 40
1
 40
1
 40
1
 40
1
 10
82.489365
 20
140.635819
 30
0.0
 10
81.614383
 20
139.914681
 30
0.0
 10
81.284864
 20
139.782368
 30
0.0
 10
80.831544
 20
139.970140
 30
0.0
  0
SPLINE
  5
302
100
AcDbEntity
  8
Engraving
 62
7
100
AcDbSpline
 70
8
 71
3
 72
8
 73
4
 74
0
 40
0
 40
0
 40
0
 40
0
 40
1
 40
1
 40
1
 40
1
 10
80.831544
 20
139.970140
 30
0.0
 10
80.174184
 20
140.242424
 30
0.0
 10
79.915214
 20
141.309759
 30
0.0
 10
80.241906
 20
142.400196
 30
0.0
  0
SPLINE
  5
303
100
AcDbEntity
  8
Engraving
 62
7
100
AcDbSpline
 70
8
 71
3
 72
8
 73
4
 74
0
 40
0
 40
0
 40
0
 40
0
 40
1
 40
1
 40
1
 40
1
 10
80.241906
 20
142.400196
 30
0.0
 10
80.429673
 20
143.026908
 30
0.0
 10
81.121810
 20
143.748293
 30
0.0
 10
81.535340
 20
143.748293
 30
0.0
  0
SPLINE
  5
304
100
AcDbEntity
  8
Engraving
 62
7
100
AcDbSpline
 70
8
 71
3
 72
8
 73
4
 74
0
 40
0
 40
0
 40
0
 40
0
 40
1
 40
1
 40
1
 40
1
 10
81.535340
 20
143.748293
 30
0.0
 10
81.835806
 20
143.748293
 30
0.0
 10
81.872269
 20
143.690823
 30
0.0
 10
82.034285
 20
142.962235
 30
0.0
  0
SPLINE
  5
305
100
AcDbEntity
  8
Engraving
 62
7
100
AcDbSpline
 70
8
 71
3
 72
8
 73
4
 74
0
 40
0
 40
0
 40
0
 40
0
 40
1
 40
1
 40
1
 40
1
 10
82.034285
 20
142.962235
 30
0.0
 10
82.202034
 20
142.207817
 30
0.0
 10
83.489324
 20
142.005210
 30
0.0
 10
84.599594
 20
142.558478
 30
0.0
  0
SPLINE
  5
306
100
AcDbEntity
  8
Engraving
 62
7
100
AcDbSpline
 70
8
 71
3
 72
8
 73
4
 74
0
 40
0
 40
0
 40
0
 40
0
 40
1
 40
1
 40
1
 40
1
 10
84.599594
 20
142.558478
 30
0.0
 10
86.128334
 20
143.320289
 30
0.0
 10
86.967122
 20
145.100123
 30
0.0
 10
86.637161
 20
146.882024
 30
0.0
  0
SPLINE
  5
307
100
AcDbEntity
  8
Engraving
 62
7
100
AcDbSpline
 70
8
 71
3
 72
8
 73
4
 74
0
 40
0
 40
0
 40
0
 40
0
 40
1
 40
1
 40
1
 40
1
 10
86.637161
 20
146.882024
 30
0.0
 10
86.007208
 20
150.283920
 30
0.0
 10
81.150625
 20
150.775830
 30
0.0
 10
78.040182
 20
147.752784
 30
0.0
  0
SPLINE
  5
308
100
AcDbEntity
  8
Engraving
 62
7
100
AcDbSpline
 70
8
 71
3
 72
8
 73
4
 74
0
 40
0
 40
0
 40
0
 40
0
 40
1
 40
1
 40
1
 40
1
 10
78.040182
 20
147.752784
 30
0.0
 10
76.686847
 20
146.437468
 30
0.0
 10
75.911993
 20
144.737361
 30
0.0
 10
75.724910
 20
142.672826
 30
0.0
  0
LINE
  5
309
100
AcDbEntity
  8
Engraving
 62
7
100
AcDbLine
 10
75.724910
 20
142.672826
 30
0.0
 11
75.641500
 21
141.752713
 31
0.0
  0
LINE
  5
30a
100
AcDbEntity
  8
Engraving
 62
7
100
AcDbLine
 10
75.641500
 20
141.752713
 30
0.0
 11
76.359826
 21
141.016978
 31
0.0
  0
SPLINE
  5
30b
100
AcDbEntity
  8
Engraving
 62
7
100
AcDbSpline
 70
8
 71
3
 72
8
 73
4
 74
0
 40
0
 40
0
 40
0
 40
0
 40
1
 40
1
 40
1
 40
1
 10
76.359826
 20
141.016978
 30
0.0
 10
76.767641
 20
140.599281
 30
0.0
 10
77.251818
 20
139.926460
 30
0.0
 10
77.479905
 20
139.460504
 30
0.0
  0
SPLINE
  5
30c
100
AcDbEntity
  8
Engraving
 62
7
100
AcDbSpline
 70
8
 71
3
 72
8
 73
4
 74
0
 40
0
 40
0
 40
0
 40
0
 40
1
 40
1
 40
1
 40
1
 10
77.479905
 20
139.460504
 30
0.0
 10
77.855449
 20
138.693261
 30
0.0
 10
77.882824
 20
138.545217
 30
0.0
 10
77.899771
 20
137.189197
 30
0.0
  0
LINE
  5
30d
100
AcDbEntity
  8
Engraving
 62
7
100
AcDbLine
 10
77.899771
 20
137.189197
 30
0.0
 11
77.917911
 21
135.738628
 31
0.0
  0
LINE
  5
30e
100
AcDbEntity
  8
Engraving
 62
7
100
AcDbLine
 10
77.917911
 20
135.738628
 30
0.0
 11
78.435033
 21
135.212226
 31
0.0
  0
SPLINE
  5
30f
100
AcDbEntity
  8
Engraving
 62
7
100
AcDbSpline
 70
8
 71
3
 72
8
 73
4
 74
0
 40
0
 40
0
 40
0
 40
0
 40
1
 40
1
 40
1
 40
1
 10
78.435033
 20
135.212226
 30
0.0
 10
79.719916
 20
133.904282
 30
0.0
 10
81.648741
 20
133.505681
 30
0.0
 10
83.443517
 20
134.177198
 30
0.0
  0
LINE
  5
310
100
AcDbEntity
  8
Engraving
 62
7
100
AcDbLine
 10
83.443517
 20
134.177198
 30
0.0
 11
83.443554
 21
134.177198
 31
0.0
  0
SPLINE
  5
311
100
AcDbEntity
  8
Engraving
 62
7
100
AcDbSpline
 70
8
 71
3
 72
8
 73
4
 74
0
 40
0
 40
0
 40
0
 40
0
 40
1
 40
1
 40
1
 40
1
 10
88.990779
 20
134.047178
 30
0.0
 10
89.203908
 20
134.112898
 30
0.0
 10
89.556248
 20
134.350292
 30
0.0
 10
89.773773
 20
134.574710
 30
0.0
  0
SPLINE
  5
312
100
AcDbEntity
  8
Engraving
 62
7
100
AcDbSpline
 70
8
 71
3
 72
8
 73
4
 74
0
 40
0
 40
0
 40
0
 40
0
 40
1
 40
1
 40
1
 40
1
 10
89.773773
 20
134.574710
 30
0.0
 10
90.419250
 20
135.240673
 30
0.0
 10
90.558396
 20
135.841360
 30
0.0
 10
90.558396
 20
137.961873
 30
0.0
  0
SPLINE
  5
313
100
AcDbEntity
  8
Engraving
 62
7
100
AcDbSpline
 70
8
 71
3
 72
8
 73
4
 74
0
 40
0
 40
0
 40
0
 40
0
 40
1
 40
1
 40
1
 40
1
 10
90.558396
 20
137.961873
 30
0.0
 10
90.558396
 20
139.734956
 30
0.0
 10
90.544896
 20
139.838062
 30
0.0
 10
90.313557
 20
139.838062
 30
0.0
  0
SPLINE
  5
314
100
AcDbEntity
  8
Engraving
 62
7
100
AcDbSpline
 70
8
 71
3
 72
8
 73
4
 74
0
 40
0
 40
0
 40
0
 40
0
 40
1
 40
1
 40
1
 40
1
 10
90.313557
 20
139.838062
 30
0.0
 10
89.985877
 20
139.838062
 30
0.0
 10
89.856994
 20
140.074435
 30
0.0
 10
90.070468
 20
140.283912
 30
0.0
  0
SPLINE
  5
315
100
AcDbEntity
  8
Engraving
 62
7
100
AcDbSpline
 70
8
 71
3
 72
8
 73
4
 74
0
 40
0
 40
0
 40
0
 40
0
 40
1
 40
1
 40
1
 40
1
 10
90.070468
 20
140.283912
 30
0.0
 10
90.314432
 20
140.523322
 30
0.0
 10
92.358756
 20
140.626663
 30
0.0
 10
92.649220
 20
140.414268
 30
0.0
  0
SPLINE
  5
316
100
AcDbEntity
  8
Engraving
 62
7
100
AcDbSpline
 70
8
 71
3
 72
8
 73
4
 74
0
 40
0
 40
0
 40
0
 40
0
 40
1
 40
1
 40
1
 40
1
 10
92.649220
 20
140.414268
 30
0.0
 10
92.923377
 20
140.213807
 30
0.0
 10
92.781605
 20
139.964199
 30
0.0
 10
92.393605
 20
139.964199
 30
0.0
  0
SPLINE
  5
317
100
AcDbEntity
  8
Engraving
 62
7
100
AcDbSpline
 70
8
 71
3
 72
8
 73
4
 74
0
 40
0
 40
0
 40
0
 40
0
 40
1
 40
1
 40
1
 40
1
 10
92.393605
 20
139.964199
 30
0.0
 10
92.037791
 20
139.964199
 30
0.0
 10
92.005177
 20
139.854180
 30
0.0
 10
91.821263
 20
138.033289
 30
0.0
  0
SPLINE
  5
318
100
AcDbEntity
  8
Engraving
 62
7
100
AcDbSpline
 70
8
 71
3
 72
8
 73
4
 74
0
 40
0
 40
0
 40
0
 40
0
 40
1
 40
1
 40
1
 40
1
 10
91.821263
 20
138.033289
 30
0.0
 10
91.669311
 20
136.529086
 30
0.0
 10
91.778793
 20
135.543605
 30
0.0
 10
92.172569
 20
134.869276
 30
0.0
  0
SPLINE
  5
319
100
AcDbEntity
  8
Engraving
 62
7
100
AcDbSpline
 70
8
 71
3
 72
8
 73
4
 74
0
 40
0
 40
0
 40
0
 40
0
 40
1
 40
1
 40
1
 40
1
 10
92.172569
 20
134.869276
 30
0.0
 10
92.886432
 20
133.646982
 30
0.0
 10
94.616301
 20
133.571328
 30
0.0
 10
95.563921
 20
134.720963
 30
0.0
  0
SPLINE
  5
31a
100
AcDbEntity
  8
Engraving
 62
7
100
AcDbSpline
 70
8
 71
3
 72
8
 73
4
 74
0
 40
0
 40
0
 40
0
 40
0
 40
1
 40
1
 40
1
 40
1
 10
95.563921
 20
134.720963
 30
0.0
 10
96.088208
 20
135.357021
 30
0.0
 10
96.220360
 20
135.883828
 30
0.0
 10
96.363194
 20
137.907091
 30
0.0
  0
SPLINE
  5
31b
100
AcDbEntity
  8
Engraving
 62
7
100
AcDbSpline
 70
8
 71
3
 72
8
 73
4
 74
0
 40
0
 40
0
 40
0
 40
0
 40
1
 40
1
 40
1
 40
1
 10
96.363194
 20
137.907091
 30
0.0
 10
96.430904
 20
138.865062
 30
0.0
 10
96.608972
 20
141.060280
 30
0.0
 10
96.759099
 20
142.785352
 30
0.0
  0
SPLINE
  5
31c
100
AcDbEntity
  8
Engraving
 62
7
100
AcDbSpline
 70
8
 71
3
 72
8
 73
4
 74
0
 40
0
 40
0
 40
0
 40
0
 40
1
 40
1
 40
1
 40
1
 10
96.759099
 20
142.785352
 30
0.0
 10
97.069353
 20
146.350547
 30
0.0
 10
97.005717
 20
147.370594
 30
0.0
 10
96.409591
 20
148.387806
 30
0.0
  0
SPLINE
  5
31d
100
AcDbEntity
  8
Engraving
 62
7
100
AcDbSpline
 70
8
 71
3
 72
8
 73
4
 74
0
 40
0
 40
0
 40
0
 40
0
 40
1
 40
1
 40
1
 40
1
 10
96.409591
 20
148.387806
 30
0.0
 10
95.897756
 20
149.261187
 30
0.0
 10
94.779437
 20
149.658294
 30
0.0
 10
93.989338
 20
149.247215
 30
0.0
  0
SPLINE
  5
31e
100
AcDbEntity
  8
Engraving
 62
7
100
AcDbSpline
 70
8
 71
3
 72
8
 73
4
 74
0
 40
0
 40
0
 40
0
 40
0
 40
1
 40
1
 40
1
 40
1
 10
93.989338
 20
149.247215
 30
0.0
 10
93.014421
 20
148.739961
 30
0.0
 10
92.715687
 20
147.948212
 30
0.0
 10
92.580871
 20
145.514205
 30
0.0
  0
SPLINE
  5
31f
100
AcDbEntity
  8
Engraving
 62
7
100
AcDbSpline
 70
8
 71
3
 72
8
 73
4
 74
0
 40
0
 40
0
 40
0
 40
0
 40
1
 40
1
 40
1
 40
1
 10
92.580871
 20
145.514205
 30
0.0
 10
92.483071
 20
143.749145
 30
0.0
 10
92.488771
 20
143.677926
 30
0.0
 10
92.742592
 20
143.476382
 30
0.0
  0
SPLINE
  5
320
100
AcDbEntity
  8
Engraving
 62
7
100
AcDbSpline
 70
8
 71
3
 72
8
 73
4
 74
0
 40
0
 40
0
 40
0
 40
0
 40
1
 40
1
 40
1
 40
1
 10
92.742592
 20
143.476382
 30
0.0
 10
92.957388
 20
143.305833
 30
0.0
 10
92.977020
 20
143.233080
 30
0.0
 10
92.849664
 20
143.079626
 30
0.0
  0
SPLINE
  5
321
100
AcDbEntity
  8
Engraving
 62
7
100
AcDbSpline
 70
8
 71
3
 72
8
 73
4
 74
0
 40
0
 40
0
 40
0
 40
0
 40
1
 40
1
 40
1
 40
1
 10
92.849664
 20
143.079626
 30
0.0
 10
92.723575
 20
142.927698
 30
0.0
 10
92.609118
 20
142.917676
 30
0.0
 10
92.251982
 20
143.027286
 30
0.0
  0
SPLINE
  5
322
100
AcDbEntity
  8
Engraving
 62
7
100
AcDbSpline
 70
8
 71
3
 72
8
 73
4
 74
0
 40
0
 40
0
 40
0
 40
0
 40
1
 40
1
 40
1
 40
1
 10
92.251982
 20
143.027286
 30
0.0
 10
91.922347
 20
143.128448
 30
0.0
 10
91.648618
 20
143.121436
 30
0.0
 10
91.173495
 20
142.999676
 30
0.0
  0
SPLINE
  5
323
100
AcDbEntity
  8
Engraving
 62
7
100
AcDbSpline
 70
8
 71
3
 72
8
 73
4
 74
0
 40
0
 40
0
 40
0
 40
0
 40
1
 40
1
 40
1
 40
1
 10
91.173495
 20
142.999676
 30
0.0
 10
90.682772
 20
142.873899
 30
0.0
 10
90.503114
 20
142.870766
 30
0.0
 10
90.389924
 20
142.986016
 30
0.0
  0
SPLINE
  5
324
100
AcDbEntity
  8
Engraving
 62
7
100
AcDbSpline
 70
8
 71
3
 72
8
 73
4
 74
0
 40
0
 40
0
 40
0
 40
0
 40
1
 40
1
 40
1
 40
1
 10
90.389924
 20
142.986016
 30
0.0
 10
90.277823
 20
143.100141
 30
0.0
 10
90.306294
 20
143.187273
 30
0.0
 10
90.510304
 20
143.354130
 30
0.0
  0
SPLINE
  5
325
100
AcDbEntity
  8
Engraving
 62
7
100
AcDbSpline
 70
8
 71
3
 72
8
 73
4
 74
0
 40
0
 40
0
 40
0
 40
0
 40
1
 40
1
 40
1
 40
1
 10
90.510304
 20
143.354130
 30
0.0
 10
90.712546
 20
143.519553
 30
0.0
 10
90.826817
 20
143.862576
 30
0.0
 10
90.980072
 20
144.764213
 30
0.0
  0
SPLINE
  5
326
100
AcDbEntity
  8
Engraving
 62
7
100
AcDbSpline
 70
8
 71
3
 72
8
 73
4
 74
0
 40
0
 40
0
 40
0
 40
0
 40
1
 40
1
 40
1
 40
1
 10
90.980072
 20
144.764213
 30
0.0
 10
91.438143
 20
147.459209
 30
0.0
 10
91.380151
 20
148.577921
 30
0.0
 10
90.751791
 20
149.168232
 30
0.0
  0
SPLINE
  5
327
100
AcDbEntity
  8
Engraving
 62
7
100
AcDbSpline
 70
8
 71
3
 72
8
 73
4
 74
0
 40
0
 40
0
 40
0
 40
0
 40
1
 40
1
 40
1
 40
1
 10
90.751791
 20
149.168232
 30
0.0
 10
90.129186
 20
149.753137
 30
0.0
 10
88.870883
 20
149.596396
 30
0.0
 10
88.020352
 20
148.827993
 30
0.0
  0
SPLINE
  5
328
100
AcDbEntity
  8
Engraving
 62
7
100
AcDbSpline
 70
8
 71
3
 72
8
 73
4
 74
0
 40
0
 40
0
 40
0
 40
0
 40
1
 40
1
 40
1
 40
1
 10
88.020352
 20
148.827993
 30
0.0
 10
87.251328
 20
148.133235
 30
0.0
 10
87.172586
 20
147.898597
 30
0.0
 10
87.246103
 20
146.520907
 30
0.0
  0
SPLINE
  5
329
100
AcDbEntity
  8
Engraving
 62
7
100
AcDbSpline
 70
8
 71
3
 72
8
 73
4
 74
0
 40
0
 40
0
 40
0
 40
0
 40
1
 40
1
 40
1
 40
1
 10
87.246103
 20
146.520907
 30
0.0
 10
87.303843
 20
145.439689
 30
0.0
 10
87.277863
 20
145.238860
 30
0.0
 10
86.984993
 20
144.502723
 30
0.0
  0
SPLINE
  5
32a
100
AcDbEntity
  8
Engraving
 62
7
100
AcDbSpline
 70
8
 71
3
 72
8
 73
4
 74
0
 40
0
 40
0
 40
0
 40
0
 40
1
 40
1
 40
1
 40
1
 10
86.984993
 20
144.502723
 30
0.0
 10
86.806136
 20
144.053107
 30
0.0
 10
86.598446
 20
143.185397
 30
0.0
 10
86.523430
 20
142.574479
 30
0.0
  0
LINE
  5
32b
100
AcDbEntity
  8
Engraving
 62
7
100
AcDbLine
 10
86.523430
 20
142.574479
 30
0.0
 11
86.387031
 21
141.463718
 31
0.0
  0
LINE
  5
32c
100
AcDbEntity
  8
Engraving
 62
7
100
AcDbLine
 10
86.387031
 20
141.463718
 30
0.0
 11
86.786197
 21
140.652912
 31
0.0
  0
SPLINE
  5
32d
100
AcDbEntity
  8
Engraving
 62
7
100
AcDbSpline
 70
8
 71
3
 72
8
 73
4
 74
0
 40
0
 40
0
 40
0
 40
0
 40
1
 40
1
 40
1
 40
1
 10
86.786197
 20
140.652912
 30
0.0
 10
87.158188
 20
139.897285
 30
0.0
 10
87.180837
 20
139.775443
 30
0.0
 10
87.118989
 20
138.862535
 30
0.0
  0
SPLINE
  5
32e
100
AcDbEntity
  8
Engraving
 62
7
100
AcDbSpline
 70
8
 71
3
 72
8
 73
4
 74
0
 40
0
 40
0
 40
0
 40
0
 40
1
 40
1
 40
1
 40
1
 10
87.118989
 20
138.862535
 30
0.0
 10
87.037689
 20
137.661859
 30
0.0
 10
86.790248
 20
136.842692
 30
0.0
 10
86.225878
 20
135.905476
 30
0.0
  0
LINE
  5
32f
100
AcDbEntity
  8
Engraving
 62
7
100
AcDbLine
 10
86.225878
 20
135.905476
 30
0.0
 11
85.794648
 21
135.189357
 31
0.0
  0
LINE
  5
330
100
AcDbEntity
  8
Engraving
 62
7
100
AcDbLine
 10
85.794648
 20
135.189357
 30
0.0
 11
86.026617
 21
134.807906
 31
0.0
  0
SPLINE
  5
331
100
AcDbEntity
  8
Engraving
 62
7
100
AcDbSpline
 70
8
 71
3
 72
8
 73
4
 74
0
 40
0
 40
0
 40
0
 40
0
 40
1
 40
1
 40
1
 40
1
 10
86.026617
 20
134.807906
 30
0.0
 10
86.396177
 20
134.200219
 30
0.0
 10
87.459697
 20
133.745147
 30
0.0
 10
88.224866
 20
133.867286
 30
0.0
  0
SPLINE
  5
332
100
AcDbEntity
  8
Engraving
 62
7
100
AcDbSpline
 70
8
 71
3
 72
8
 73
4
 74
0
 40
0
 40
0
 40
0
 40
0
 40
1
 40
1
 40
1
 40
1
 10
88.224866
 20
133.867286
 30
0.0
 10
88.432994
 20
133.900506
 30
0.0
 10
88.777660
 20
133.981469
 30
0.0
 10
88.990779
 20
134.047192
 30
0.0
  0
LINE
  5
333
100
AcDbEntity
  8
Engraving
 62
7
100
AcDbLine
 10
88.990779
 20
134.047192
 30
0.0
 11
88.990779
 21
134.047178
 31
0.0
  0
SPLINE
  5
334
100
AcDbEntity
  8
Engraving
 62
7
100
AcDbSpline
 70
8
 71
3
 72
8
 73
4
 74
0
 40
0
 40
0
 40
0
 40
0
 40
1
 40
1
 40
1
 40
1
 10
100.856930
 20
134.173303
 30
0.0
 10
101.740120
 20
134.719142
 30
0.0
 10
102.430330
 20
136.159277
 30
0.0
 10
102.613010
 20
137.837452
 30
0.0
  0
SPLINE
  5
335
100
AcDbEntity
  8
Engraving
 62
7
100
AcDbSpline
 70
8
 71
3
 72
8
 73
4
 74
0
 40
0
 40
0
 40
0
 40
0
 40
1
 40
1
 40
1
 40
1
 10
102.613010
 20
137.837452
 30
0.0
 10
102.754840
 20
139.140074
 30
0.0
 10
103.172030
 20
139.351797
 30
0.0
 10
103.172030
 20
138.121143
 30
0.0
  0
SPLINE
  5
336
100
AcDbEntity
  8
Engraving
 62
7
100
AcDbSpline
 70
8
 71
3
 72
8
 73
4
 74
0
 40
0
 40
0
 40
0
 40
0
 40
1
 40
1
 40
1
 40
1
 10
103.172030
 20
138.121143
 30
0.0
 10
103.172030
 20
136.411895
 30
0.0
 10
103.912660
 20
134.620625
 30
0.0
 10
104.808320
 20
134.163701
 30
0.0
  0
SPLINE
  5
337
100
AcDbEntity
  8
Engraving
 62
7
100
AcDbSpline
 70
8
 71
3
 72
8
 73
4
 74
0
 40
0
 40
0
 40
0
 40
0
 40
1
 40
1
 40
1
 40
1
 10
104.808320
 20
134.163701
 30
0.0
 10
105.799080
 20
133.658247
 30
0.0
 10
106.769870
 20
133.940361
 30
0.0
 10
107.708270
 20
135.006424
 30
0.0
  0
SPLINE
  5
338
100
AcDbEntity
  8
Engraving
 62
7
100
AcDbSpline
 70
8
 71
3
 72
8
 73
4
 74
0
 40
0
 40
0
 40
0
 40
0
 40
1
 40
1
 40
1
 40
1
 10
107.708270
 20
135.006424
 30
0.0
 10
109.476290
 20
137.014998
 30
0.0
 10
111.203710
 20
143.658931
 30
0.0
 10
110.764830
 20
146.762391
 30
0.0
  0
SPLINE
  5
339
100
AcDbEntity
  8
Engraving
 62
7
100
AcDbSpline
 70
8
 71
3
 72
8
 73
4
 74
0
 40
0
 40
0
 40
0
 40
0
 40
1
 40
1
 40
1
 40
1
 10
110.764830
 20
146.762391
 30
0.0
 10
110.574400
 20
148.108987
 30
0.0
 10
110.203900
 20
148.941533
 30
0.0
 10
109.531810
 20
149.533122
 30
0.0
  0
SPLINE
  5
33a
100
AcDbEntity
  8
Engraving
 62
7
100
AcDbSpline
 70
8
 71
3
 72
8
 73
4
 74
0
 40
0
 40
0
 40
0
 40
0
 40
1
 40
1
 40
1
 40
1
 10
109.531810
 20
149.533122
 30
0.0
 10
108.013750
 20
150.869381
 30
0.0
 10
105.777380
 20
150.383647
 30
0.0
 10
105.185080
 20
148.589026
 30
0.0
  0
SPLINE
  5
33b
100
AcDbEntity
  8
Engraving
 62
7
100
AcDbSpline
 70
8
 71
3
 72
8
 73
4
 74
0
 40
0
 40
0
 40
0
 40
0
 40
1
 40
1
 40
1
 40
1
 10
105.185080
 20
148.589026
 30
0.0
 10
105.082030
 20
148.276748
 30
0.0
 10
105.057660
 20
147.710077
 30
0.0
 10
105.110380
 20
146.851445
 30
0.0
  0
SPLINE
  5
33c
100
AcDbEntity
  8
Engraving
 62
7
100
AcDbSpline
 70
8
 71
3
 72
8
 73
4
 74
0
 40
0
 40
0
 40
0
 40
0
 40
1
 40
1
 40
1
 40
1
 10
105.110380
 20
146.851445
 30
0.0
 10
105.352630
 20
142.903496
 30
0.0
 10
105.357300
 20
142.425629
 30
0.0
 10
105.155380
 20
142.258025
 30
0.0
  0
SPLINE
  5
33d
100
AcDbEntity
  8
Engraving
 62
7
100
AcDbSpline
 70
8
 71
3
 72
8
 73
4
 74
0
 40
0
 40
0
 40
0
 40
0
 40
1
 40
1
 40
1
 40
1
 10
105.155380
 20
142.258025
 30
0.0
 10
104.901110
 20
142.046991
 30
0.0
 10
104.850370
 20
142.147792
 30
0.0
 10
104.686050
 20
143.190688
 30
0.0
  0
SPLINE
  5
33e
100
AcDbEntity
  8
Engraving
 62
7
100
AcDbSpline
 70
8
 71
3
 72
8
 73
4
 74
0
 40
0
 40
0
 40
0
 40
0
 40
1
 40
1
 40
1
 40
1
 10
104.686050
 20
143.190688
 30
0.0
 10
104.418280
 20
144.890250
 30
0.0
 10
103.898850
 20
146.018751
 30
0.0
 10
103.384340
 20
146.018751
 30
0.0
  0
SPLINE
  5
33f
100
AcDbEntity
  8
Engraving
 62
7
100
AcDbSpline
 70
8
 71
3
 72
8
 73
4
 74
0
 40
0
 40
0
 40
0
 40
0
 40
1
 40
1
 40
1
 40
1
 10
103.384340
 20
146.018751
 30
0.0
 10
103.053960
 20
146.018751
 30
0.0
 10
102.517730
 20
145.479853
 30
0.0
 10
102.267110
 20
144.895924
 30
0.0
  0
SPLINE
  5
340
100
AcDbEntity
  8
Engraving
 62
7
100
AcDbSpline
 70
8
 71
3
 72
8
 73
4
 74
0
 40
0
 40
0
 40
0
 40
0
 40
1
 40
1
 40
1
 40
1
 10
102.267110
 20
144.895924
 30
0.0
 10
102.130200
 20
144.576916
 30
0.0
 10
101.860000
 20
143.750927
 30
0.0
 10
101.666690
 20
143.060395
 30
0.0
  0
SPLINE
  5
341
100
AcDbEntity
  8
Engraving
 62
7
100
AcDbSpline
 70
8
 71
3
 72
8
 73
4
 74
0
 40
0
 40
0
 40
0
 40
0
 40
1
 40
1
 40
1
 40
1
 10
101.666690
 20
143.060395
 30
0.0
 10
101.473350
 20
142.369863
 30
0.0
 10
101.250520
 20
141.783329
 30
0.0
 10
101.171490
 20
141.756985
 30
0.0
  0
SPLINE
  5
342
100
AcDbEntity
  8
Engraving
 62
7
100
AcDbSpline
 70
8
 71
3
 72
8
 73
4
 74
0
 40
0
 40
0
 40
0
 40
0
 40
1
 40
1
 40
1
 40
1
 10
101.171490
 20
141.756985
 30
0.0
 10
100.959190
 20
141.686215
 30
0.0
 10
100.992170
 20
142.426778
 30
0.0
 10
101.291110
 20
144.442043
 30
0.0
  0
SPLINE
  5
343
100
AcDbEntity
  8
Engraving
 62
7
100
AcDbSpline
 70
8
 71
3
 72
8
 73
4
 74
0
 40
0
 40
0
 40
0
 40
0
 40
1
 40
1
 40
1
 40
1
 10
101.291110
 20
144.442043
 30
0.0
 10
101.587210
 20
146.438342
 30
0.0
 10
101.565140
 20
147.272604
 30
0.0
 10
101.197310
 20
147.985239
 30
0.0
  0
SPLINE
  5
344
100
AcDbEntity
  8
Engraving
 62
7
100
AcDbSpline
 70
8
 71
3
 72
8
 73
4
 74
0
 40
0
 40
0
 40
0
 40
0
 40
1
 40
1
 40
1
 40
1
 10
101.197310
 20
147.985239
 30
0.0
 10
100.536230
 20
149.266100
 30
0.0
 10
98.896832
 20
149.513516
 30
0.0
 10
97.790276
 20
148.499428
 30
0.0
  0
LINE
  5
345
100
AcDbEntity
  8
Engraving
 62
7
100
AcDbLine
 10
97.790276
 20
148.499428
 30
0.0
 11
97.348046
 21
148.094151
 31
0.0
  0
LINE
  5
346
100
AcDbEntity
  8
Engraving
 62
7
100
AcDbLine
 10
97.348046
 20
148.094151
 30
0.0
 11
97.503919
 21
147.075944
 31
0.0
  0
SPLINE
  5
347
100
AcDbEntity
  8
Engraving
 62
7
100
AcDbSpline
 70
8
 71
3
 72
8
 73
4
 74
0
 40
0
 40
0
 40
0
 40
0
 40
1
 40
1
 40
1
 40
1
 10
97.503919
 20
147.075944
 30
0.0
 10
97.627242
 20
146.270301
 30
0.0
 10
97.627614
 20
145.691598
 30
0.0
 10
97.505819
 20
144.303868
 30
0.0
  0
SPLINE
  5
348
100
AcDbEntity
  8
Engraving
 62
7
100
AcDbSpline
 70
8
 71
3
 72
8
 73
4
 74
0
 40
0
 40
0
 40
0
 40
0
 40
1
 40
1
 40
1
 40
1
 10
97.505819
 20
144.303868
 30
0.0
 10
96.887545
 20
137.267169
 30
0.0
 10
96.869664
 20
136.536322
 30
0.0
 10
97.295624
 20
135.702898
 30
0.0
  0
SPLINE
  5
349
100
AcDbEntity
  8
Engraving
 62
7
100
AcDbSpline
 70
8
 71
3
 72
8
 73
4
 74
0
 40
0
 40
0
 40
0
 40
0
 40
1
 40
1
 40
1
 40
1
 10
97.295624
 20
135.702898
 30
0.0
 10
97.627345
 20
135.053869
 30
0.0
 10
98.227654
 20
134.430188
 30
0.0
 10
98.820513
 20
134.118612
 30
0.0
  0
SPLINE
  5
34a
100
AcDbEntity
  8
Engraving
 62
7
100
AcDbSpline
 70
8
 71
3
 72
8
 73
4
 74
0
 40
0
 40
0
 40
0
 40
0
 40
1
 40
1
 40
1
 40
1
 10
98.820513
 20
134.118612
 30
0.0
 10
99.373195
 20
133.828170
 30
0.0
 10
100.340730
 20
133.854152
 30
0.0
 10
100.857130
 20
134.173302
 30
0.0
  0
LINE
  5
34b
100
AcDbEntity
  8
Engraving
 62
7
100
AcDbLine
 10
100.857130
 20
134.173302
 30
0.0
 11
100.856930
 21
134.173303
 31
0.0
  0
ENDSEC
  0
SECTION
  2
OBJECTS
  0
DICTIONARY
  5
C
330
0
100
AcDbDictionary
  3
ACAD_GROUP
350
D
  3
ACAD_MLINESTYLE
350
17
  0
DICTIONARY
  5
D
330
C
100
AcDbDictionary
  0
DICTIONARY
  5
1A
330
C
100
AcDbDictionary
  0
DICTIONARY
  5
17
330
C
100
AcDbDictionary
  3
STANDARD
350
18
  0
DICTIONARY
  5
19
330
C
100
AcDbDictionary
  0
ENDSEC
  0
EOF
