<?xml version="1.0" encoding="UTF-8" standalone="no"?>
<svg
   width="250mm"
   height="180mm"
   viewBox="0 0 250 180"
   version="1.1"
   id="svg28"
   sodipodi:docname="magnet_levitation.svg"
   inkscape:version="1.4 (86a8ad7, 2024-10-11)"
   xmlns:inkscape="http://www.inkscape.org/namespaces/inkscape"
   xmlns:sodipodi="http://sodipodi.sourceforge.net/DTD/sodipodi-0.dtd"
   xmlns="http://www.w3.org/2000/svg"
   xmlns:svg="http://www.w3.org/2000/svg"
   xmlns:rdf="http://www.w3.org/1999/02/22-rdf-syntax-ns#"
   xmlns:cc="http://creativecommons.org/ns#">
  <defs
     id="defs28" />
  <sodipodi:namedview
     id="namedview28"
     pagecolor="#ffffff"
     bordercolor="#000000"
     borderopacity="0.25"
     inkscape:showpageshadow="2"
     inkscape:pageopacity="0.0"
     inkscape:pagecheckerboard="0"
     inkscape:deskcolor="#d1d1d1"
     inkscape:document-units="mm"
     inkscape:zoom="1.1945937"
     inkscape:cx="302.61335"
     inkscape:cy="358.69936"
     inkscape:window-width="1920"
     inkscape:window-height="1001"
     inkscape:window-x="-9"
     inkscape:window-y="-9"
     inkscape:window-maximized="1"
     inkscape:current-layer="layer1" />
  <!-- Erstes Rechteck 80 x 200mm -->
  <!-- Linke Spalte mit 4x15mm Rechtecken (ungefüllt) -->
  <!-- Abstand von links: 10mm, Abstand von unten: 10mm, vertikaler Abstand: 15mm -->
  <!-- Rechteck 1 (unten) -->
  <!-- Rechteck 2 -->
  <!-- Rechteck 3 -->
  <!-- Rechteck 4 -->
  <!-- Rechteck 5 -->
  <!-- Rechteck 6 -->
  <!-- Rechteck 7 (oben) -->
  <!-- Rechte Spalte mit 4x15mm Rechtecken (ungefüllt) -->
  <!-- Abstand von rechts: 10mm (d.h. x = 80 - 10 - 4 = 66mm) -->
  <!-- Rechteck 1 (unten) -->
  <!-- Rechteck 2 -->
  <!-- Rechteck 3 -->
  <!-- Rechteck 4 -->
  <!-- Rechteck 5 -->
  <!-- Rechteck 6 -->
  <!-- Rechteck 7 (oben) -->
  <!-- Zweites Rechteck 78 x 130mm (daneben) -->
  <!-- Linke Spalte im zweiten Rechteck mit 15x4mm Rechtecken (horizontal) -->
  <!-- Abstand von links: 10mm (82 + 10 = 92mm), Abstand von unten: 10mm, vertikaler Abstand: 15mm -->
  <!-- Rechteck 1 (unten) -->
  <!-- Rechteck 2 -->
  <!-- Rechteck 3 -->
  <!-- Rechteck 4 -->
  <!-- Rechteck 5 -->
  <!-- Rechteck 6 (oben) -->
  <!-- Rechte Spalte im zweiten Rechteck mit 15x4mm Rechtecken (horizontal) -->
  <!-- Abstand von rechts: 10mm (82 + 78 - 10 - 15 = 135mm) -->
  <!-- Rechteck 1 (unten) -->
  <!-- Rechteck 2 -->
  <!-- Rechteck 3 -->
  <!-- Rechteck 4 -->
  <!-- Rechteck 5 -->
  <!-- Rechteck 6 (oben) -->
  <metadata
     id="metadata28">
    <rdf:RDF>
      <cc:Work
         rdf:about="">
        <cc:license
           rdf:resource="http://creativecommons.org/licenses/by-nc-nd/4.0/" />
      </cc:Work>
      <cc:License
         rdf:about="http://creativecommons.org/licenses/by-nc-nd/4.0/">
        <cc:permits
           rdf:resource="http://creativecommons.org/ns#Reproduction" />
        <cc:permits
           rdf:resource="http://creativecommons.org/ns#Distribution" />
        <cc:requires
           rdf:resource="http://creativecommons.org/ns#Notice" />
        <cc:requires
           rdf:resource="http://creativecommons.org/ns#Attribution" />
        <cc:prohibits
           rdf:resource="http://creativecommons.org/ns#CommercialUse" />
      </cc:License>
    </rdf:RDF>
  </metadata>
  <g
     inkscape:groupmode="layer"
     id="layer1"
     inkscape:label="Outer Rectangle"
     style="display:inline">
    <rect
       x="7.1005802"
       y="-191.52501"
       width="80.015686"
       height="187.61258"
       fill="none"
       stroke="#000000"
       stroke-width="0.484316"
       id="rect1"
       transform="rotate(90)" />
    <rect
       x="89.32991"
       y="-133.93134"
       width="78"
       height="130"
       fill="none"
       stroke="#000000"
       stroke-width="0.5"
       id="rect16"
       transform="rotate(90)" />
    <path
       style="fill:#000000;stroke-width:0.688927"
       d="m 84.090862,66.357967 c -1.69577,-0.197784 -4.287787,-1.039695 -5.793652,-1.881819 -1.150698,-0.643506 -3.220136,-2.481301 -3.765379,-3.343913 l -0.26039,-0.411937 -1.458226,0.591541 c -1.397381,0.566848 -1.560919,0.591402 -3.918987,0.588308 -2.828266,-0.0034 -3.726086,-0.258602 -5.720448,-1.623994 l -1.129939,-0.773582 -0.697877,0.603266 c -0.984945,0.851417 -2.24418,1.230637 -3.731822,1.12384 -1.412244,-0.101379 -2.411025,-0.557356 -3.509237,-1.602052 -0.54719,-0.520532 -0.80803,-0.665792 -0.900933,-0.501725 -0.632999,1.117936 -1.037924,1.607874 -1.664834,2.014374 -0.773382,0.501471 -2.351904,0.80309 -3.152005,0.602275 -0.40073,-0.100576 -0.652678,0.07716 -1.871668,1.320327 -3.003886,3.063494 -6.736478,3.873899 -10.180312,2.210305 -2.583232,-1.247867 -4.078931,-3.966083 -4.078931,-7.412874 v -1.511071 h -0.546826 c -0.497668,0 -0.546838,0.05436 -0.546838,0.604499 0,2.32707 -0.981071,4.551843 -2.738177,6.209422 -1.437969,1.356497 -2.679751,2.012811 -4.543749,2.401462 -3.968798,0.827518 -7.488547,-1.326419 -8.782285,-5.374388 -0.532285,-1.665461 -0.524037,-5.004552 0.01895,-7.668846 0.771528,-3.78572 2.966251,-11.035034 4.208308,-13.900321 1.835217,-4.233639 4.885123,-7.085533 8.345821,-7.803969 1.389313,-0.288421 3.567256,-0.136494 4.594073,0.32047 0.969599,0.431501 2.036255,1.32477 2.739054,2.293821 l 0.498417,0.687228 0.402239,-0.650836 c 0.660018,-1.067941 1.921693,-2.456288 2.900603,-3.191824 2.139206,-1.607378 5.18903,-1.910876 7.545343,-0.750866 1.933122,0.951675 3.603338,3.045375 4.144804,5.19573 l 0.210643,0.83653 0.576959,-0.440068 c 0.317329,-0.242038 1.139891,-0.703496 1.827924,-1.025465 3.195771,-1.495483 6.337214,-0.578577 7.977886,2.328539 l 0.551406,0.97704 1.413401,-1.415225 c 1.497625,-1.499551 2.737043,-2.337737 4.604419,-3.113831 0.972393,-0.404131 1.41859,-0.47588 2.967269,-0.47714 2.306576,-0.0018 3.489665,0.424854 4.952267,1.786247 l 1.01465,0.944426 1.300101,-1.341422 c 3.007032,-3.102634 6.662975,-4.708313 11.143117,-4.894031 3.611246,-0.149697 5.67543,0.468148 7.611152,2.278137 1.351326,1.263554 1.988905,2.275418 2.570295,4.079078 0.08828,0.274044 0.276816,0.222724 1.544662,-0.420572 3.57251,-1.812678 7.26372,-1.568025 9.98492,0.661796 l 0.74909,0.613818 0.52063,-0.543417 c 0.80668,-0.841992 2.52927,-1.626289 3.57191,-1.626289 1.15184,0 2.39197,0.590205 3.10533,1.477882 l 0.56031,0.697226 0.90279,-0.811685 c 0.52114,-0.468555 1.2223,-0.89772 1.65862,-1.015203 1.33831,-0.360376 2.90641,0.0558 3.97555,1.05514 l 0.48181,0.45035 0.703,-0.464116 c 1.0056,-0.663887 2.42356,-0.934187 3.49677,-0.666574 1.82908,0.456096 3.05377,1.55052 3.96682,3.54487 0.42359,0.925243 0.519,1.018077 1.04518,1.016953 0.57434,-0.0013 0.57944,-0.0094 0.62816,-1.005183 0.23091,-4.719286 5.23867,-6.917347 9.07977,-3.985378 l 0.81203,0.619841 0.86706,-0.43937 c 1.85299,-0.938985 3.43139,-1.292305 5.77938,-1.293704 1.9662,-0.0012 2.30516,0.0483 3.3527,0.489322 l 1.16536,0.490626 0.56629,-0.427134 c 2.58852,-1.952421 9.47302,-2.354292 13.47159,-0.786383 2.24667,0.880959 4.58365,2.936196 5.62422,4.946167 0.51786,1.000288 0.93127,3.145344 0.79531,4.12661 -0.23436,1.691362 -0.72202,2.851816 -1.77411,4.221642 l -0.51243,0.667208 0.62377,0.385516 c 0.89152,0.550988 2.69788,2.536784 3.35957,3.693286 2.15248,3.762165 1.15668,8.022771 -2.5801,11.039093 -3.60215,2.907664 -9.08846,4.47416 -14.63335,4.178231 -3.71343,-0.198183 -6.51642,-1.140855 -8.27027,-2.781383 l -0.9269,-0.867008 -2.13589,0.03885 c -3.02953,0.05512 -5.38141,-0.586283 -6.93107,-1.890257 l -0.56033,-0.471481 -0.81673,0.623424 c -2.30128,1.756606 -5.65472,1.060148 -7.15221,-1.485409 -0.0181,-0.03072 -0.46029,0.396051 -0.98269,0.948411 -1.17481,1.242183 -2.24007,1.657944 -3.9055,1.524258 -1.27858,-0.102631 -2.3217,-0.574497 -3.29111,-1.488757 l -0.67228,-0.634048 -0.57649,0.656575 c -1.75185,1.995257 -5.23766,1.997152 -6.98785,0.0034 l -0.57316,-0.652785 -0.81539,0.781285 c -1.53721,1.472898 -4.01732,1.825022 -6.0559,0.859801 -0.60152,-0.284802 -1.2018,-0.648494 -1.33396,-0.808208 -0.21648,-0.261599 -0.32488,-0.236633 -1.09367,0.251885 -2.65013,1.683965 -6.30074,1.545146 -9.035784,-0.343581 l -0.708977,-0.4896 -0.278946,0.452543 c -0.153415,0.248902 -0.958481,1.125974 -1.789058,1.949056 -1.273435,1.261943 -1.804275,1.638944 -3.386767,2.40521 -2.06992,1.002285 -3.291874,1.361464 -5.608594,1.64861 -1.719996,0.213181 -2.24631,0.212237 -4.129663,-0.0075 z m 3.218285,-4.179837 c 3.116596,-0.375907 5.692851,-1.457315 7.614426,-3.196237 2.072392,-1.875409 2.851509,-3.703553 2.74264,-6.435395 -0.152838,-3.835059 -2.477209,-6.053744 -8.014397,-7.649958 -2.67453,-0.770994 -4.172797,-1.444293 -4.613248,-2.073119 -0.641346,-0.915638 -0.128044,-2.574597 0.972735,-3.143827 1.193919,-0.6174 2.022173,-0.201359 2.022173,1.015755 0,1.599731 0.885728,2.347549 2.780477,2.347549 1.85871,0 3.48851,-1.008999 4.882478,-3.022712 1.289657,-1.863013 1.673747,-4.944216 0.838837,-6.729192 -1.18569,-2.534943 -4.431454,-3.835163 -8.376369,-3.355506 -3.75043,0.456008 -6.950984,2.018617 -9.342341,4.561215 -1.534062,1.631081 -1.921277,2.453105 -1.983811,4.211455 -0.03135,0.881939 -0.177086,1.791145 -0.350534,2.187112 -0.426219,0.973041 -0.370618,1.577209 0.261568,2.842329 0.96227,1.925662 2.606163,3.081588 6.011753,4.227233 3.466584,1.166163 4.911069,2.216245 4.912706,3.57134 6.85e-4,0.828103 -0.540855,1.223683 -1.783376,1.301935 -0.895369,0.05639 -1.172292,-0.01105 -1.976395,-0.481347 -0.777298,-0.454615 -1.037667,-0.750984 -1.542654,-1.755932 -0.409708,-0.81534 -0.784874,-1.300715 -1.152186,-1.490656 -0.687594,-0.355573 -2.271082,-0.349875 -2.968317,0.0107 -0.447503,0.231412 -0.564322,0.444657 -0.732227,1.336668 -0.294932,1.566882 -0.86301,2.940356 -1.784328,4.314088 -0.450638,0.671932 -0.819341,1.346053 -0.819341,1.498059 0,0.529922 0.772878,1.817499 1.613781,2.688488 1.950468,2.02023 4.840937,3.122218 8.872025,3.382425 0.203131,0.01309 1.064397,-0.06001 1.913925,-0.162455 z M 42.001295,61.287036 c 1.185507,-0.533311 2.546421,-1.745878 3.391208,-3.02153 0.432404,-0.652937 0.842604,-1.187159 0.911559,-1.187159 0.06891,0 0.419842,0.123043 0.779759,0.273422 0.895851,0.374314 1.918772,0.341804 2.615676,-0.08312 0.993077,-0.605517 1.223409,-1.154 1.337693,-3.185425 0.05682,-1.009392 0.07041,-1.87627 0.03028,-1.926397 -0.04013,-0.05012 -0.340047,0.216456 -0.666482,0.592406 -0.67226,0.774234 -0.828297,0.835942 -0.828297,0.327564 0,-0.609531 0.413742,-1.300598 0.942302,-1.573931 1.276956,-0.660339 3.980324,-0.425673 4.131353,0.358622 0.05843,0.303275 -0.0123,0.327939 -0.61592,0.214709 l -0.681912,-0.127926 0.09556,1.190694 c 0.221911,2.764493 2.570422,4.548745 4.952492,3.76259 2.114627,-0.69789 2.613139,-2.486358 1.678167,-6.020678 -0.757266,-2.862583 -0.919275,-5.022384 -0.655128,-8.733753 0.126204,-1.773212 0.17196,-3.684261 0.101656,-4.246774 -0.166406,-1.3319 -0.767111,-2.49514 -1.563798,-3.028267 -0.556072,-0.372108 -0.814718,-0.419099 -2.01465,-0.366028 -3.148517,0.139255 -5.802619,2.458479 -8.517908,7.443171 -1.053493,1.933994 -2.318293,5.113854 -2.853734,7.174617 -0.848489,3.265686 -0.839319,5.296575 0.02857,6.328031 0.405685,0.482131 0.558491,0.546628 1.06841,0.450964 0.740327,-0.138881 0.936396,0.133453 0.447824,0.622026 -0.53817,0.538176 -1.189563,0.463193 -1.921576,-0.221202 -2.083359,-1.94783 -1.211446,-7.422442 2.286148,-14.354436 1.354365,-2.684257 1.816121,-4.349246 1.816121,-6.548442 0,-3.377874 -1.986657,-5.538073 -5.103799,-5.549621 -3.492351,-0.01294 -6.49842,3.433849 -8.564028,9.819581 -0.461895,1.42795 -0.642212,1.712236 -0.913774,1.440676 -0.120618,-0.120617 -0.07811,-0.870571 0.126621,-2.233238 0.506474,-3.371207 -0.04023,-5.376945 -1.779171,-6.527737 -0.598168,-0.395854 -1.007812,-0.50362 -2.17011,-0.570905 -2.756497,-0.159571 -5.203138,1.042253 -7.007024,3.441954 -1.539595,2.048112 -2.44449,4.198257 -4.03333,9.583698 -2.353294,7.976588 -2.747705,11.66132 -1.522212,14.221062 0.873726,1.825002 2.919101,2.831014 5.027272,2.472662 2.347261,-0.398999 4.283516,-1.732961 5.30953,-3.657961 0.796944,-1.49522 0.960344,-2.875464 0.651362,-5.501849 -0.293884,-2.497893 -0.296581,-4.079344 -0.0107,-6.286219 0.160938,-1.242512 0.282391,-1.651612 0.502932,-1.694005 0.246715,-0.04743 0.309175,0.255943 0.412383,2.002672 0.134668,2.27935 0.483575,4.17524 0.948798,5.155624 0.509449,1.073584 1.700082,1.08991 2.684053,0.0368 0.660158,-0.706548 2.393712,-3.352027 3.453561,-5.270295 0.727786,-1.31726 1.071139,-1.64547 1.312632,-1.254732 0.110303,0.178477 -0.721644,2.537219 -1.903288,5.396226 -1.157162,2.799753 -1.530883,4.309232 -1.534361,6.197471 -0.0043,2.414475 0.716604,3.851198 2.355724,4.693859 1.379094,0.708981 3.849626,0.695651 5.461523,-0.02949 z m 8.919632,-13.397164 c -0.13927,-0.362928 0.227989,-0.836845 0.648504,-0.836845 0.210568,0 0.463993,-0.369367 0.781621,-1.139241 1.277416,-3.096186 1.396793,-3.326585 1.723667,-3.326585 0.219471,0 0.315788,0.120893 0.290459,0.364558 -0.02087,0.200506 -0.09427,1.203306 -0.16326,2.228442 -0.10996,1.634716 -0.0885,1.878038 0.174603,1.978997 0.351721,0.134968 0.402506,0.738078 0.07212,0.856541 -0.125316,0.04493 -0.379318,0.0036 -0.564462,-0.0918 -0.36744,-0.189381 -2.024505,-0.11282 -2.532734,0.11702 -0.218872,0.09898 -0.352567,0.05206 -0.430521,-0.151089 z M 166.94057,61.538716 c 1.92662,-0.367584 4.57718,-1.309044 6.12946,-2.17712 1.65408,-0.925022 3.36268,-2.573714 4.10763,-3.963624 0.53862,-1.004931 0.61411,-1.312117 0.61738,-2.512031 0.003,-1.132251 -0.0792,-1.523647 -0.47906,-2.278481 -1.26358,-2.385382 -4.62254,-4.283548 -7.58012,-4.283548 -0.57289,0 -0.98968,-0.09802 -1.12862,-0.265433 -0.31818,-0.383391 -0.11457,-0.58348 0.70574,-0.693507 1.92126,-0.257694 4.17134,-1.938368 5.11004,-3.816862 1.70885,-3.419699 -0.39656,-6.807557 -5.01362,-8.067582 -3.45869,-0.943895 -9.69981,-0.291783 -11.08946,1.158697 l -0.51457,0.537095 0.46061,0.971262 c 0.85603,1.805094 0.79968,3.456926 -0.16869,4.945077 -0.41968,0.644957 -0.45711,0.895147 -0.542,3.622865 -0.0861,2.768498 -0.0731,2.922543 0.23656,2.79364 1.21422,-0.505419 1.32907,-0.530249 1.52883,-0.330498 0.15,0.150003 -0.0586,0.371392 -0.79196,0.840514 -0.54757,0.350281 -1.17046,0.882456 -1.38418,1.18261 l -0.3886,0.545736 0.49955,0.31822 c 1.69446,1.079392 2.08562,3.338664 0.96005,5.544973 -0.5026,0.985173 -2.04325,2.297118 -3.21033,2.73378 -0.55031,0.205899 -1.0795,0.374356 -1.176,0.374356 -0.27219,0 -0.20876,0.273029 0.1775,0.764089 0.7457,0.948004 3.30539,1.996813 5.69741,2.334463 1.57279,0.222014 5.3808,0.07537 7.23645,-0.278691 z m -3.32224,-6.951508 c -0.31656,-0.316561 -0.0245,-0.825314 1.08641,-1.892008 l 1.20795,-1.159919 -0.68017,-0.571031 c -0.44615,-0.374565 -0.65729,-0.690962 -0.61367,-0.919607 0.11083,-0.58096 0.74583,-0.500985 1.56077,0.196569 l 0.76033,0.650816 0.88569,-0.494502 c 0.9575,-0.53459 1.50409,-0.494844 1.50409,0.109369 0,0.244156 -0.24348,0.490792 -0.72911,0.738539 -0.40102,0.204582 -0.72913,0.411124 -0.72913,0.45898 0,0.04786 0.28709,0.486619 0.63799,0.975028 0.69084,0.961601 0.77603,1.323233 0.38765,1.645553 -0.37064,0.307607 -0.6808,0.108128 -1.39019,-0.894093 -0.35088,-0.495729 -0.67957,-0.903168 -0.7304,-0.905421 -0.16786,-0.0075 -2.06711,1.612616 -2.22838,1.900801 -0.16068,0.28711 -0.70878,0.381968 -0.92983,0.160926 z m -0.54711,-11.075897 c -0.10465,-0.272709 0.63606,-1.401999 1.31476,-2.0045 l 0.39571,-0.351276 -0.59244,-0.611237 c -0.46991,-0.484825 -0.55296,-0.673816 -0.40156,-0.913825 0.31019,-0.491759 0.54982,-0.466368 1.22934,0.13027 l 0.64311,0.56465 1.00892,-0.569402 c 0.5549,-0.313171 1.09348,-0.517146 1.19683,-0.453277 0.40798,0.252152 0.16647,0.832725 -0.54122,1.301059 -0.40102,0.265377 -0.72912,0.542569 -0.72912,0.61598 0,0.07341 0.15182,0.329093 0.33739,0.568183 0.64718,0.833897 0.80131,1.254492 0.56433,1.540032 -0.35906,0.432646 -0.67106,0.303254 -1.32088,-0.54779 l -0.61815,-0.809559 -0.88715,0.900697 c -0.89585,0.909527 -1.41651,1.117808 -1.59987,0.639995 z m -10.45009,14.572691 c 2.40851,-0.510309 4.23513,-1.669566 4.8851,-3.100296 0.41122,-0.905181 0.44351,-2.644709 0.0628,-3.380977 -0.15244,-0.294799 -0.62408,-0.719802 -1.04809,-0.944456 -0.65578,-0.347447 -1.02958,-0.404728 -2.50258,-0.383486 -1.15214,0.01662 -2.14697,0.149424 -2.97269,0.396856 -0.68259,0.204536 -1.35929,0.326511 -1.5038,0.271057 -0.37151,-0.14256 -0.34441,-1.407641 0.0369,-1.724123 0.21438,-0.17792 0.74616,-0.233704 1.86834,-0.195989 1.34376,0.04516 1.68477,-0.0073 2.37827,-0.366016 0.99348,-0.513853 1.46501,-1.133651 1.59398,-2.095211 0.12694,-0.946386 -0.34998,-1.97865 -1.09126,-2.36198 -0.62706,-0.324271 -2.42326,-0.363391 -3.39433,-0.07393 -0.85702,0.255473 -1.17517,-0.0224 -1.01734,-0.888587 0.19166,-1.051958 0.44181,-1.19521 1.65996,-0.950571 2.28373,0.458636 4.04817,0.06856 5.2874,-1.16892 0.97857,-0.977211 1.2923,-2.141144 0.98112,-3.640085 -0.29179,-1.405527 -1.4697,-2.653277 -2.9027,-3.074811 -2.3686,-0.696747 -6.32814,-0.0034 -8.54532,1.496411 -0.19325,0.130717 -0.16494,0.38208 0.14742,1.309315 0.79523,2.360617 0.61343,5.996268 -0.53421,10.683088 -0.54529,2.226871 -1.63496,5.353781 -2.363,6.780879 -0.37508,0.735223 -0.38041,0.807616 -0.10251,1.393293 0.37155,0.782966 1.50566,1.542066 2.90915,1.947176 1.3802,0.398387 4.45594,0.433976 6.16736,0.07136 z m -7.23561,-2.954911 c -0.20528,-0.20528 -0.12503,-0.420363 0.15685,-0.420363 0.15039,0 0.27342,0.07718 0.27342,0.171523 0,0.229846 -0.28464,0.394466 -0.43027,0.24884 z m -73.693843,1.992197 c 2.911924,-1.369993 5.040526,-4.830184 5.040526,-8.193746 0,-3.069536 -1.462966,-4.244137 -5.286075,-4.244137 -2.074799,0 -3.376195,0.335408 -4.05006,1.043818 -0.88178,0.926968 -0.835424,1.894106 0.1208,2.520653 0.38958,0.25526 0.538437,0.255821 1.496512,0.0057 0.875605,-0.228653 1.106045,-0.23568 1.302028,-0.0397 0.195983,0.195981 0.09106,0.358587 -0.592508,0.918764 -1.478011,1.211118 -2.889881,1.36406 -3.838165,0.415772 -1.606045,-1.606042 -1.11988,-4.957147 1.031246,-7.10827 0.918676,-0.918681 1.14094,-1.053505 1.654937,-1.003875 0.429868,0.04151 0.608687,0.157946 0.647894,0.421886 0.144748,0.974318 0.275757,1.222776 0.819544,1.55434 1.263676,0.770492 3.331584,0.302808 4.48881,-1.0152 1.012852,-1.153578 1.369891,-2.152058 1.366017,-3.820155 -0.0043,-1.683069 -0.271701,-2.439618 -1.244821,-3.516742 -1.681538,-1.861263 -4.707853,-2.164528 -7.507441,-0.752315 -3.666419,1.849477 -6.99856,6.729054 -6.994579,10.242842 0.0021,1.960497 0.30436,4.241423 0.829528,6.262399 0.257159,0.989598 0.476234,2.209395 0.486838,2.710661 0.02311,1.092132 0.370158,1.624989 1.753276,2.692061 1.541937,1.189591 2.996716,1.613157 5.313682,1.547089 1.713929,-0.04885 2.044345,-0.115939 3.162011,-0.641776 z m 34.860243,0.117262 c 1.86188,-0.696615 3.73356,-3.021075 4.25547,-5.284901 0.70735,-3.068258 -0.45824,-5.265179 -2.79349,-5.265179 -1.10089,0 -1.64972,0.235071 -2.84087,1.21679 -1.26443,1.042112 -1.74062,1.233317 -2.3957,0.961968 -0.94995,-0.393477 -1.32419,-1.935871 -0.85208,-3.51165 0.27134,-0.905656 1.27153,-1.948123 1.86912,-1.948123 0.4342,0 0.4869,0.08304 0.72102,1.135926 0.24242,1.090201 2.10267,1.382987 3.70711,0.583464 2.20917,-1.100884 3.4213,-3.672905 2.94447,-6.247912 -0.91034,-4.916047 -7.92855,-5.6269 -12.423412,-1.258328 -1.95569,1.900752 -3.07542,4.357559 -3.345773,7.340998 l -0.12049,1.329646 1.038042,1.063203 c 0.589329,0.60361 1.289005,1.575897 1.618607,2.249245 0.542707,1.108736 0.582257,1.322671 0.60675,3.282244 l 0.02622,2.096202 0.747283,0.760699 c 1.856783,1.890098 4.644103,2.466111 7.237723,1.495708 z m 8.01623,0.187892 c 0.30799,-0.09498 0.81716,-0.438027 1.13149,-0.762332 0.93278,-0.962376 1.13386,-1.830424 1.13386,-4.894756 0,-2.562264 -0.0195,-2.711262 -0.35381,-2.711262 -0.47354,0 -0.65978,-0.34158 -0.3513,-0.644293 0.35255,-0.34597 3.3068,-0.495306 3.72655,-0.188376 0.39617,0.289684 0.1913,0.65039 -0.3694,0.65039 -0.51418,0 -0.56131,0.158988 -0.8271,2.790339 -0.21957,2.173708 -0.0614,3.597817 0.50768,4.572283 1.03159,1.766326 3.53141,1.875652 4.90081,0.214326 0.75765,-0.91916 0.94862,-1.680445 1.15502,-4.604241 0.0977,-1.384356 0.35517,-4.556643 0.57211,-7.049527 0.44835,-5.152028 0.3564,-6.626088 -0.50506,-8.096053 -0.73965,-1.262113 -2.35572,-1.835968 -3.49747,-1.241922 -1.40885,0.733028 -1.84055,1.877177 -2.03536,5.394537 -0.1413,2.550668 -0.13312,2.653588 0.23369,2.944838 0.31039,0.246457 0.33877,0.351592 0.15473,0.573348 -0.18221,0.219549 -0.34761,0.234032 -0.86372,0.07563 -0.47633,-0.146189 -0.8719,-0.13606 -1.55848,0.0399 -0.70916,0.181756 -0.96877,0.186285 -1.13235,0.01975 -0.162,-0.164921 -0.12082,-0.290834 0.17396,-0.531958 0.29225,-0.23905 0.4574,-0.734749 0.67886,-2.037697 0.66196,-3.894511 0.57815,-5.511151 -0.32988,-6.364205 -0.89971,-0.845238 -2.71809,-0.618734 -3.94718,0.491677 -1.1113,1.003987 -1.22509,1.343061 -1.11886,3.333948 0.0834,1.562458 0.0458,1.852673 -0.37733,2.916457 -0.25845,0.649736 -0.55859,1.903655 -0.667,2.786487 l -0.1971,1.605149 0.57682,1.171687 c 0.53756,1.09195 0.5703,1.268022 0.48092,2.587258 -0.11753,1.735083 -0.47506,2.918855 -1.29063,4.273215 l -0.62316,1.034857 0.33522,0.551232 c 0.53404,0.878161 2.07092,1.535782 3.17666,1.35928 0.30076,-0.04801 0.79883,-0.165006 1.10681,-0.259981 z m 17.14767,-0.182263 c 1.27628,-0.788787 2.27368,-2.869911 2.5377,-5.295024 0.20494,-1.882408 0.80783,-2.188366 0.80783,-0.409958 0,2.470016 1.07029,5.058562 2.36458,5.718858 1.43175,0.730427 2.83462,0.322747 4.19069,-1.21781 2.55494,-2.902571 5.05122,-12.503652 4.417,-16.988432 -0.27519,-1.945954 -0.8106,-3.149057 -1.78181,-4.003956 -2.19375,-1.931016 -5.42551,-1.229087 -6.28141,1.364303 -0.14893,0.451271 -0.18415,1.270161 -0.10802,2.510961 0.35006,5.705143 0.35682,6.395702 0.065,6.637906 -0.36746,0.304963 -0.44076,0.159296 -0.67822,-1.347781 -0.38696,-2.45602 -1.13759,-4.086806 -1.88109,-4.086806 -0.47744,0 -1.25232,0.778757 -1.6145,1.622585 -0.19785,0.460997 -0.58832,1.654625 -0.86769,2.652506 -0.27937,0.99788 -0.60139,1.845476 -0.71559,1.883545 -0.3068,0.102267 -0.25913,-0.967911 0.17286,-3.880152 0.42789,-2.884832 0.396,-4.090414 -0.13553,-5.120238 -0.95533,-1.850959 -3.32439,-2.208498 -4.92348,-0.743049 l -0.63907,0.585663 0.22525,1.4714 c 0.17822,1.164227 0.17876,2.000505 0.003,4.005901 -0.89346,10.168664 -0.91928,11.224802 -0.30373,12.429177 0.47936,0.937905 1.34686,1.839179 2.20362,2.289435 0.79866,0.419714 2.19683,0.382168 2.94308,-0.07903 z"
       id="path1" />
  </g>
  <g
     inkscape:groupmode="layer"
     id="layer2"
     inkscape:label="Cutouts Right">
    <rect
       x="99.329895"
       y="-27.931498"
       width="15"
       height="4"
       fill="none"
       stroke="#000000"
       stroke-width="0.5"
       id="rect17"
       transform="rotate(90)" />
    <rect
       x="99.329895"
       y="-46.931332"
       width="15"
       height="4"
       fill="none"
       stroke="#000000"
       stroke-width="0.5"
       id="rect18"
       transform="rotate(90)" />
    <rect
       x="99.329895"
       y="-65.93132"
       width="15"
       height="4"
       fill="none"
       stroke="#000000"
       stroke-width="0.5"
       id="rect19"
       transform="rotate(90)" />
    <rect
       x="99.329895"
       y="-84.93132"
       width="15"
       height="4"
       fill="none"
       stroke="#000000"
       stroke-width="0.5"
       id="rect20"
       transform="rotate(90)" />
    <rect
       x="99.329895"
       y="-103.9313"
       width="15"
       height="4"
       fill="none"
       stroke="#000000"
       stroke-width="0.5"
       id="rect21"
       transform="rotate(90)" />
    <rect
       x="99.329895"
       y="-122.93132"
       width="15"
       height="4"
       fill="none"
       stroke="#000000"
       stroke-width="0.5"
       id="rect22"
       transform="rotate(90)" />
    <rect
       x="142.32991"
       y="-27.931498"
       width="15"
       height="4"
       fill="none"
       stroke="#000000"
       stroke-width="0.5"
       id="rect23"
       transform="rotate(90)" />
    <rect
       x="142.32991"
       y="-46.931332"
       width="15"
       height="4"
       fill="none"
       stroke="#000000"
       stroke-width="0.5"
       id="rect24"
       transform="rotate(90)" />
    <rect
       x="142.32991"
       y="-65.93132"
       width="15"
       height="4"
       fill="none"
       stroke="#000000"
       stroke-width="0.5"
       id="rect25"
       transform="rotate(90)" />
    <rect
       x="142.32991"
       y="-84.93132"
       width="15"
       height="4"
       fill="none"
       stroke="#000000"
       stroke-width="0.5"
       id="rect26"
       transform="rotate(90)" />
    <rect
       x="142.32991"
       y="-103.9313"
       width="15"
       height="4"
       fill="none"
       stroke="#000000"
       stroke-width="0.5"
       id="rect27"
       transform="rotate(90)" />
    <rect
       x="142.32991"
       y="-122.93132"
       width="15"
       height="4"
       fill="none"
       stroke="#000000"
       stroke-width="0.5"
       id="rect28"
       transform="rotate(90)" />
  </g>
  <g
     inkscape:groupmode="layer"
     id="layer3"
     inkscape:label="Cutouts Left">
    <rect
       x="17.772886"
       y="-29.927818"
       width="4"
       height="15"
       fill="none"
       stroke="#000000"
       stroke-width="0.5"
       id="rect3"
       transform="rotate(90)" />
    <rect
       x="17.772886"
       y="-59.927696"
       width="4"
       height="15"
       fill="none"
       stroke="#000000"
       stroke-width="0.5"
       id="rect4"
       transform="rotate(90)" />
    <rect
       x="17.772886"
       y="-89.927429"
       width="4"
       height="15"
       fill="none"
       stroke="#000000"
       stroke-width="0.5"
       id="rect5"
       transform="rotate(90)" />
    <rect
       x="17.772886"
       y="-119.92767"
       width="4"
       height="15"
       fill="none"
       stroke="#000000"
       stroke-width="0.5"
       id="rect6"
       transform="rotate(90)" />
    <rect
       x="17.772886"
       y="-149.92773"
       width="4"
       height="15"
       fill="none"
       stroke="#000000"
       stroke-width="0.5"
       id="rect7"
       transform="rotate(90)" />
    <rect
       x="17.772886"
       y="-179.92776"
       width="4"
       height="15"
       fill="none"
       stroke="#000000"
       stroke-width="0.5"
       id="rect8"
       transform="rotate(90)" />
    <rect
       x="73.772881"
       y="-29.927818"
       width="4"
       height="15"
       fill="none"
       stroke="#000000"
       stroke-width="0.5"
       id="rect10"
       transform="rotate(90)" />
    <rect
       x="73.772881"
       y="-59.927696"
       width="4"
       height="15"
       fill="none"
       stroke="#000000"
       stroke-width="0.5"
       id="rect11"
       transform="rotate(90)" />
    <rect
       x="73.772881"
       y="-89.927429"
       width="4"
       height="15"
       fill="none"
       stroke="#000000"
       stroke-width="0.5"
       id="rect12"
       transform="rotate(90)" />
    <rect
       x="73.772881"
       y="-119.92767"
       width="4"
       height="15"
       fill="none"
       stroke="#000000"
       stroke-width="0.5"
       id="rect13"
       transform="rotate(90)" />
    <rect
       x="73.772881"
       y="-149.92773"
       width="4"
       height="15"
       fill="none"
       stroke="#000000"
       stroke-width="0.5"
       id="rect14"
       transform="rotate(90)" />
    <rect
       x="73.772881"
       y="-179.92776"
       width="4"
       height="15"
       fill="none"
       stroke="#000000"
       stroke-width="0.5"
       id="rect15"
       transform="rotate(90)" />
  </g>
</svg>
